<?xml version="1.0" encoding="UTF-8" standalone="no"?>
<svg
   version="1.0"
   width="300.000000pt"
   height="526.000000pt"
   viewBox="0 0 300.000000 526.000000"
   preserveAspectRatio="xMidYMid meet"
   id="svg1373"
   sodipodi:docname="coin_1.svg"
   inkscape:version="1.2.1 (9c6d41e, 2022-07-14)"
   xmlns:inkscape="http://www.inkscape.org/namespaces/inkscape"
   xmlns:sodipodi="http://sodipodi.sourceforge.net/DTD/sodipodi-0.dtd"
   xmlns="http://www.w3.org/2000/svg"
   xmlns:svg="http://www.w3.org/2000/svg">
  <defs
     id="defs1377" />
  <sodipodi:namedview
     id="namedview1375"
     pagecolor="#ffffff"
     bordercolor="#000000"
     borderopacity="0.25"
     inkscape:showpageshadow="2"
     inkscape:pageopacity="0.0"
     inkscape:pagecheckerboard="0"
     inkscape:deskcolor="#d1d1d1"
     inkscape:document-units="pt"
     showgrid="false"
     inkscape:zoom="3.5699454"
     inkscape:cx="212.18812"
     inkscape:cy="271.8529"
     inkscape:window-width="1920"
     inkscape:window-height="1027"
     inkscape:window-x="1920"
     inkscape:window-y="25"
     inkscape:window-maximized="0"
     inkscape:current-layer="svg1373" />
  <metadata
     id="metadata793">
Created by potrace 1.15, written by Peter Selinger 2001-2017
</metadata>
  <g
     inkscape:groupmode="layer"
     id="layer2"
     inkscape:label="grey"
     style="fill:#dbdee3"
     sodipodi:insensitive="true">
    <path
       id="rect3328"
       style="fill:#dbdee3;stroke-width:1.55"
       d="m 11.666016,1.9980469 c -4.6182959,0 -8.3364262,3.7181305 -8.3364262,8.3364261 V 411.93311 c 0,4.61827 3.7181303,8.33642 8.3364262,8.33642 H 153.1333 c -3.32553,-2.8156 -1.26323,-7.92316 5.58545,-7.39599 0.53899,0.0415 1.07819,0.0815 1.61719,0.12304 5.74174,0.43772 11.4835,0.88755 17.23388,1.19678 4.70259,0.16349 9.42147,0.25032 14.10938,-0.24609 0.2664,-0.0391 0.53357,-0.0682 0.79834,-0.11719 0.91061,-0.16856 1.77799,-0.52841 2.62939,-0.88037 0.74095,-0.33848 1.39585,-0.84105 2.1211,-1.21143 0.39611,-0.22287 0.77592,-0.47532 1.14843,-0.73535 0.51439,-0.30845 0.9804,-0.69476 1.50147,-0.99316 0.57614,-0.33424 1.21074,-0.67705 1.80908,-0.89795 0.49887,-0.21091 1.00274,-0.41117 1.53076,-0.5376 0.41999,-0.11257 0.84493,-0.20826 1.27442,-0.27686 0.46214,-0.0773 0.92642,-0.12555 1.38867,-0.13183 0.77041,-0.0105 1.53471,0.0988 2.27197,0.39843 0.79609,0.36185 1.61424,0.76734 2.17383,1.47803 0.002,0.003 0.005,0.006 0.007,0.009 0.24674,-0.0937 0.44504,-0.21152 0.71192,-0.29443 0.86915,-0.27004 1.74653,-0.51102 2.62353,-0.7544 0.81292,-0.20897 1.60211,-0.48038 2.37159,-0.81299 0.59553,-0.24225 1.16321,-0.54687 1.72412,-0.85986 0.1882,-0.11318 0.38216,-0.23109 0.51269,-0.41162 0.15641,-0.19289 0.37639,-0.35263 0.46729,-0.58594 -0.006,0.005 -0.0206,0.0231 -0.0176,0.0161 0.13611,-0.31321 0.14069,-0.33207 0.26807,-0.67237 0.1531,-0.3803 0.24143,-0.80042 0.46728,-1.14697 0.25078,-0.3848 0.53141,-0.75018 0.79688,-1.125 0.26788,-0.23243 0.51652,-0.48989 0.80419,-0.69727 0.34764,-0.25055 0.75384,-0.42439 1.16016,-0.59033 0.19126,-0.23163 0.40868,-0.45476 0.65918,-0.66797 0.20426,-0.15827 0.41031,-0.31391 0.62256,-0.46142 0.30479,-0.17462 0.59923,-0.36714 0.91406,-0.52295 0.6152,-0.30446 1.29371,-0.43933 1.97461,-0.43506 0.6809,0.004 1.3647,0.14745 1.98926,0.39551 0.20329,0.0978 0.41006,0.18724 0.60937,0.29297 0.67445,0.35781 1.23096,0.89999 1.71973,1.47656 0.30712,0.3949 0.56476,0.81321 0.77783,1.25537 0.0818,0.0305 0.16425,0.059 0.2461,0.0894 1.17468,0.43925 2.31866,0.94697 3.4541,1.47802 1.31957,0.61222 2.68551,1.11405 4.0459,1.62598 0.64873,0.24156 1.30017,0.47658 1.95117,0.71191 1.35255,0.48894 2.38308,1.12411 3.17431,1.82227 3.31901,0.89532 4.62999,3.29423 3.99317,5.36426 2.78237,1.2882 3.59342,3.78923 2.40674,5.729 h 39.28564 c 4.61831,0 8.33643,-3.71815 8.33643,-8.33642 V 10.334473 c 0,-4.6182956 -3.71812,-8.3364261 -8.33643,-8.3364261 z" />
  </g>
  <path
     id="path4214"
     style="fill:#ffffff;stroke-width:1.6954"
     d="M 188.9502,124.63037 A 120.44321,93.735107 0 0 0 70.239258,203.40234 c 1.236561,0.89792 2.33552,1.98885 3.269531,3.42334 0.398621,0.69557 0.734715,1.41986 1.07666,2.14161 0.22715,0.15141 0.449066,0.31095 0.65918,0.48779 0.115941,0.0976 0.207856,0.18045 0.288574,0.25635 0.442474,0.29548 0.871459,0.61115 1.280274,0.958 0.883957,0.77689 1.703262,1.6178 2.368652,2.59424 0.747361,1.0711 1.479433,2.17075 1.992187,3.37647 0.324611,0.83227 0.587861,1.68423 0.717774,2.5708 0.115798,0.79208 0.189724,1.58921 0.246094,2.38769 0.03943,0.82042 0.102002,1.63885 0.161132,2.45801 0.02523,0.65482 0.06678,1.30818 0.118653,1.96143 0.03588,1.01338 0.01549,2.03786 -0.272461,3.01904 -0.347657,0.95444 -0.815122,1.84794 -1.549805,2.56641 -0.457718,0.46501 -0.895834,0.94987 -1.379883,1.38867 -0.504069,0.45489 -0.968071,0.95354 -1.460449,1.4209 -0.651985,0.64717 -1.290794,1.30711 -1.921875,1.97461 -0.531811,0.55201 -1.071512,1.10439 -1.517578,1.72998 -0.479468,0.74861 -0.91384,1.52472 -1.381348,2.28076 -0.167677,0.26126 -0.338609,0.52175 -0.51416,0.77929 a 120.44321,93.735107 0 0 0 0.912598,2.92969 c 0.639597,0.12336 1.271608,0.27766 1.895508,0.46289 0.876488,0.24976 1.731621,0.52022 2.556152,0.91553 0.228599,0.1096 0.454247,0.22537 0.681152,0.33838 1.67479,0.91932 3.146835,2.11897 4.136719,3.78076 0.466194,0.80062 0.91123,1.61659 1.262695,2.47559 0.254595,0.58526 0.43454,1.08511 0.779297,1.64062 0.426831,0.83616 0.934837,1.62951 1.381348,2.45508 0.523473,0.99886 1.039949,2.00238 1.521973,3.02197 0.691956,1.56151 1.254345,3.17524 1.521972,4.86914 0.206509,1.3757 0.366447,2.7628 0.310547,4.15723 -0.01216,0.90267 -0.03217,1.80435 -0.0835,2.70557 a 120.44321,93.735107 0 0 0 5.244141,5.29834 c 0.651722,0.10622 1.299321,0.25761 1.940918,0.43505 0.09166,0.0275 0.179709,0.0652 0.270996,0.0937 0.170087,-0.006 0.339606,-0.0267 0.509765,-0.0308 0.21977,-0.005 0.439364,0.018 0.65918,0.0161 0.597968,-0.46698 1.239782,-0.87768 1.908691,-1.23487 1.398834,-0.70465 2.855614,-1.28405 4.432614,-1.41357 1.11925,-0.12421 2.24409,-0.19183 3.37061,-0.19483 1.35962,-0.032 2.71939,-0.0859 4.07959,-0.0732 1.2595,0.0437 2.51778,0.11012 3.77637,0.17432 1.36718,0.0318 2.73323,0.0843 4.0957,0.20947 1.80273,0.16324 3.60285,0.36394 5.39648,0.60645 2.26303,0.35273 4.51916,0.76139 6.74268,1.31543 3.06952,0.76346 6.09792,1.6757 9.13623,2.55322 5.48501,1.50986 11.02483,2.79658 16.58203,4.01221 4.37024,0.98558 8.73511,1.9927 13.09717,3.01318 3.38922,0.51534 6.77035,1.0834 10.14697,1.67725 2.17367,0.0396 4.35215,0.0998 6.5127,-0.17872 1.98588,-0.34214 3.88231,-1.06332 5.77881,-1.72265 3.59511,-1.24319 7.16715,-2.54465 10.67578,-4.01514 3.97197,-1.74582 7.84689,-3.70124 11.77441,-5.54297 3.97447,-1.85352 8.06245,-3.44603 12.13916,-5.05664 3.31241,-1.30529 6.63737,-2.57945 9.94629,-3.89355 1.3608,-0.55445 2.71465,-1.1255 4.07227,-1.6875 0.67362,-0.65899 1.38313,-1.27975 2.09765,-1.89405 0.60755,-0.49605 1.18233,-1.02566 1.74756,-1.56884 0.40895,-0.41973 0.74751,-0.90423 1.06348,-1.396 0.51128,-0.80641 0.98572,-1.63548 1.43115,-2.47998 0.40766,-0.71367 0.73804,-1.46664 1.05176,-2.2251 0.3326,-0.81191 0.67523,-1.61991 1.02246,-2.42578 0.36032,-0.88322 0.71524,-1.76902 1.05176,-2.66162 0.50031,-1.28009 1.02128,-2.55101 1.5791,-3.80713 0.65651,-1.45934 1.38018,-2.88398 2.14746,-4.2876 0.84873,-2.69204 1.77944,-5.35003 2.82568,-7.97314 0.84236,-2.11193 1.40827,-3.38349 2.30274,-5.45508 1.65211,-3.7053 3.37866,-7.37654 5.14453,-11.02881 0.38661,-0.79145 0.78805,-1.57591 1.19531,-2.35693 0.11929,-0.84224 0.31427,-1.72828 0.66943,-2.68799 0.47849,-1.29299 0.98257,-2.57685 1.47657,-3.86426 0.54614,-1.40221 1.11055,-2.79785 1.69043,-4.18652 0.61601,-1.48834 1.2305,-2.97668 1.82519,-4.47363 0.73735,-1.84101 1.49072,-3.67601 2.20313,-5.52686 0.82057,-2.18002 1.54495,-4.39244 2.14453,-6.64307 0.11,-0.46367 0.2093,-0.93074 0.31054,-1.39746 -0.45362,-1.19867 -0.91581,-2.39942 -1.57031,-3.5039 -0.49186,-0.82933 -1.02427,-1.63841 -1.67285,-2.35547 -0.40326,-0.42131 -0.82979,-0.8072 -1.34033,-1.09717 -0.90505,-0.38478 -1.87344,-0.56714 -2.84326,-0.70752 -2.04814,0.20573 -4.09062,0.46134 -6.13623,0.68994 -0.33005,0.0376 -0.66146,0.0611 -0.9917,0.0967 -1.86765,0.46135 -3.71575,0.99804 -5.55323,1.57324 -3.28865,1.02371 -6.56412,2.09138 -9.81298,3.23584 -1.99041,0.71623 -3.99346,1.41253 -5.91211,2.3086 -7.3512,3.43309 -11.79537,-1.46665 -8.94287,-5.92676 -2.89203,-2.68971 -1.40499,-7.74733 5.5122,-8.85059 2.14108,-0.34149 4.28028,-0.69386 6.43213,-0.9624 1.66855,-0.22309 3.33877,-0.43068 5.01123,-0.62109 -0.32143,-3.03625 2.17571,-4.95722 4.11182,-6.55518 0.65307,-0.539 1.32912,-1.05179 1.99512,-1.5747 0.0756,-0.0594 0.34863,-0.27242 0.47607,-0.37207 -0.94473,-0.25824 -1.8937,-0.49862 -2.85791,-0.67969 -1.89218,-0.3195 -3.93554,-0.36563 -5.56787,-1.54248 -0.77441,-0.55832 -1.36837,-1.33192 -2.05225,-1.99805 -0.385,-0.80691 -0.84733,-1.58168 -1.15429,-2.42139 -0.36163,-0.98923 -0.5808,-2.67962 -0.69873,-3.75146 -0.15477,-1.40622 -0.20906,-2.81755 -0.24756,-4.23047 -0.0243,-1.83005 0.2033,-3.64646 0.72216,-5.40234 0.22915,-0.77542 0.41358,-1.20788 0.69874,-1.93653 0.63214,-1.5374 1.51986,-2.92576 2.9121,-3.87744 A 120.44321,93.735107 0 0 0 188.9502,124.63037 Z m 71.12841,32.83301 c -0.21082,0.20466 -0.43814,0.68244 -0.58886,1.60254 0.28313,-0.22562 0.56355,-0.45436 0.82324,-0.70606 0.14566,-0.14118 0.22445,-0.29666 0.26221,-0.44384 -0.16479,-0.15169 -0.33116,-0.30164 -0.49659,-0.45264 z m -3.51269,112.00195 c -0.13073,0.0995 -0.26116,0.19949 -0.39404,0.2959 -0.0368,0.0705 -0.0716,0.14196 -0.1084,0.2124 0.0718,-0.007 0.14347,-0.0165 0.21533,-0.0234 0.0943,-0.16252 0.18949,-0.32447 0.28711,-0.48487 z" />
  <path
     id="path2995"
     style="fill:#ffcc00;stroke-width:1.55"
     inkscape:label="coin"
     d="m 187.12939,96.862793 a 73.771942,70.47377 0 0 0 -73.77246,70.473637 73.771942,70.47377 0 0 0 14.91504,41.90478 c 0.24699,-0.0387 0.50887,-0.0647 0.78955,-0.0732 0.26744,-0.008 0.12601,-0.004 0.42188,-0.0132 0.77697,-0.0259 1.55388,-0.0562 2.33056,-0.0879 0.93659,-0.0352 1.87407,-0.0583 2.81104,-0.0806 1.37785,-0.0102 2.7547,0.0379 4.12793,0.15527 1.39017,0.11719 2.77771,0.27102 4.17041,0.35742 1.61839,0.10248 3.23659,0.19682 4.85596,0.28272 1.63796,0.0816 3.27667,0.16246 4.91162,0.29297 1.28806,0.12252 2.56999,0.28934 3.84521,0.50976 0.96754,0.16288 1.93696,0.33505 2.86084,0.67676 1.03971,0.36688 2.07712,0.74404 3.12158,1.09717 1.10469,0.36074 2.22059,0.68054 3.33252,1.0166 0.0413,0.0125 0.0784,0.0266 0.11866,0.0395 0.0375,0.004 0.0753,0.006 0.11279,0.0103 0.64702,0.0883 1.20312,0.14573 1.84131,0.3252 0.083,0.0233 0.16258,0.0549 0.24463,0.0806 1.01101,0.17362 2.01683,0.37665 3.01904,0.59472 1.3572,0.30177 2.69509,0.68254 4.01221,1.12647 0.84004,0.29237 1.6699,0.61256 2.47998,0.97998 0.44053,0.19028 0.86329,0.41671 1.29345,0.62842 0.50866,0.22775 0.99845,0.49194 1.49122,0.75146 0.5193,0.27463 1.05228,0.51785 1.60986,0.70313 0.88552,0.28256 1.7824,0.53026 2.68213,0.76318 0.86628,0.20989 1.72855,0.42457 2.58105,0.68555 0.63467,0.22182 1.26963,0.44593 1.9043,0.66797 0.60548,0.22473 1.22325,0.40886 1.84717,0.57421 1.29018,0.32852 2.59724,0.58553 3.90381,0.83936 0.97396,0.18054 1.95169,0.34145 2.92529,0.52441 0.94985,0.17145 1.88091,0.4292 2.80957,0.68848 1.17577,0.32827 1.96756,0.87541 2.42139,1.48682 1.2784,0.086 2.5556,0.18635 3.83496,0.26367 1.56375,0.1244 3.11914,0.33447 4.68017,0.48633 0.57588,0.0536 1.15388,0.0857 1.73145,0.11425 0.84955,-0.0163 2.12382,0.33663 2.79053,0.44532 0.025,0.004 -0.0982,-0.0216 -0.0733,-0.0176 1.37223,0.24559 2.38759,0.45337 3.66211,0.94336 0.17492,0.077 0.3495,0.15298 0.52442,0.22998 1.15944,0.51011 2.06418,0.99837 2.77295,1.46924 a 73.771942,70.47377 0 0 0 37.82812,-61.44287 73.771942,70.47377 0 0 0 -73.771,-70.473637 z"
     sodipodi:insensitive="true" />
  <g
     transform="matrix(0.1,0,0,-0.1,0,526)"
     fill="#000000"
     stroke="none"
     id="g1371"
     sodipodi:insensitive="true"
     inkscape:label="g1371">
    <g
       id="g1277">
      <path
         d="M 6,5244 C 3,5235 0,4052 0,2614 V 0 h 1500 1500 v 1902 c 0,1046 -2,1899 -4,1897 -4,-4 -16,-1735 -16,-2260 v -227 l -23,-4 c -37,-7 -62,7 -67,38 -4,21 -12,30 -28,32 -18,3 -21,8 -16,24 5,17 3,19 -18,13 -16,-4 -19,-3 -9,3 11,8 10,14 -5,36 -28,38 -46,35 -21,-4 10,-17 9,-22 -3,-30 -12,-8 -12,-10 3,-15 13,-6 14,-11 6,-26 -5,-11 -7,-24 -4,-29 3,-5 -6,-17 -20,-26 -18,-12 -23,-20 -16,-27 19,-19 12,-28 -15,-21 -25,7 -27,5 -20,-22 4,-16 3,-24 -2,-17 -4,7 -16,11 -27,11 -11,-1 -32,2 -47,5 -22,6 -28,4 -28,-8 0,-8 -3,-15 -8,-15 -15,0 -43,42 -38,56 3,8 -3,23 -14,34 -12,12 -17,26 -13,36 5,14 2,16 -19,11 -16,-4 -30,-2 -37,7 -9,11 -6,12 14,8 27,-5 33,9 12,30 -8,7 -17,26 -21,43 -6,22 -10,26 -16,15 -5,-8 -12,-11 -16,-7 -4,3 -2,13 5,20 9,12 5,16 -21,22 -32,7 -33,7 -8,15 21,6 22,8 8,14 -9,4 -14,14 -11,22 4,10 0,12 -13,7 -11,-4 -15,-3 -11,4 4,6 1,13 -5,16 -10,3 -11,9 -1,26 7,11 13,22 13,23 0,2 -22,3 -50,3 -27,0 -50,-3 -50,-7 0,-10 -31,2 -53,20 -13,12 -20,13 -29,4 -9,-9 -8,-12 4,-12 10,0 15,-9 14,-29 -1,-32 -13,-31 -26,4 -10,27 -50,41 -50,18 0,-10 -6,-13 -16,-9 -9,4 -23,1 -30,-5 -9,-8 -14,-8 -14,-1 0,6 4,14 10,17 16,10 11,28 -6,21 -12,-4 -15,-2 -10,9 8,21 -11,19 -23,-2 -6,-10 -11,-13 -11,-6 0,7 -6,10 -14,7 -8,-3 -12,-13 -9,-24 6,-23 -14,-35 -32,-20 -8,6 -18,9 -23,6 -5,-3 -19,1 -33,8 -33,17 -55,10 -37,-12 11,-13 10,-15 -4,-9 -10,3 -18,2 -18,-3 0,-6 -7,-10 -15,-10 -18,0 -20,-17 -2,-23 6,-2 -3,-11 -20,-21 -31,-15 -38,-30 -36,-75 1,-7 -12,-20 -28,-30 -34,-19 -36,-27 -9,-36 11,-3 20,-11 20,-16 0,-6 -6,-7 -16,-1 -12,7 -22,4 -36,-10 -19,-19 -19,-19 4,-38 19,-16 20,-19 6,-20 -10,0 -18,-4 -18,-10 0,-5 -9,-10 -20,-10 -23,0 -26,-10 -7,-29 10,-10 6,-12 -20,-9 -18,1 -32,-1 -32,-6 0,-5 -5,-12 -11,-16 -17,-10 -3,-31 15,-23 8,3 15,1 15,-4 0,-5 -20,-19 -45,-31 -25,-12 -48,-29 -52,-37 -5,-14 -7,-14 -24,1 -10,9 -22,13 -27,10 -4,-3 -16,4 -25,14 -11,13 -13,22 -5,26 5,4 14,0 19,-7 4,-7 11,-10 15,-6 9,8 -25,36 -43,37 -7,0 -13,4 -13,8 0,13 -45,7 -46,-6 -1,-7 -2,-16 -3,-21 0,-6 -13,-9 -28,-8 -22,2 -27,-2 -25,-15 2,-11 -3,-18 -12,-18 -22,0 -27,15 -16,45 8,20 7,26 -2,23 -7,-3 -14,-16 -16,-30 -2,-17 -11,-28 -25,-32 -22,-6 -22,-7 -3,-21 24,-19 12,-34 -14,-17 -11,6 -26,9 -35,6 -10,-4 -15,0 -15,10 0,19 -13,20 -42,5 -17,-9 -23,-8 -30,5 -5,9 -18,16 -28,16 -19,0 -22,-4 -24,-39 -1,-17 -38,-24 -47,-9 -5,7 -16,8 -36,0 -27,-9 -33,-6 -67,25 -39,37 -68,39 -59,4 3,-12 1,-21 -6,-21 -6,0 -11,5 -11,11 0,5 -5,7 -10,4 -6,-4 -8,-10 -5,-15 3,-4 -4,-10 -14,-13 -12,-3 -28,4 -42,19 -26,28 -39,30 -39,7 0,-14 -2,-15 -12,-4 -11,10 -10,15 5,25 25,19 21,26 -8,13 -14,-7 -25,-20 -25,-31 0,-15 -3,-16 -14,-7 -11,10 -15,8 -19,-6 -4,-16 -6,-15 -12,4 -8,24 -20,29 -30,13 -3,-5 -17,-10 -30,-10 -18,0 -23,-4 -19,-15 4,-8 1,-15 -5,-15 -15,0 -14,33 1,48 6,6 9,15 5,19 -4,4 -13,1 -19,-5 -7,-7 -21,-11 -32,-11 -17,1 -18,2 -3,6 21,6 22,26 2,43 -12,10 -19,10 -27,2 -7,-7 -27,-12 -45,-12 -41,0 -46,-27 -6,-32 19,-2 29,-10 31,-23 3,-19 2,-19 -11,-3 -13,17 -15,17 -29,0 -9,-9 -18,-24 -21,-32 -4,-12 -6,-11 -6,3 -1,13 -11,17 -48,18 -35,1 -42,3 -24,8 31,8 40,31 13,31 -11,0 -22,7 -26,15 -7,18 5,20 22,3 9,-9 12,-4 12,25 0,20 -4,37 -10,37 -5,0 -10,-3 -10,-7 0,-14 -48,-31 -61,-22 -15,9 -59,-26 -59,-47 0,-6 10,-19 23,-28 21,-16 21,-16 -18,-10 -37,6 -50,15 -58,38 -2,5 -11,6 -21,3 -15,-6 -16,-10 -6,-22 16,-19 4,-33 -12,-17 -7,7 -27,12 -45,12 -23,0 -33,5 -33,15 0,8 -7,15 -16,15 -13,0 -12,5 6,30 21,29 16,42 -8,18 -9,-9 -12,-8 -12,5 0,16 -1,16 -18,-1 -10,-9 -14,-19 -9,-20 4,-2 3,-10 -3,-17 -9,-10 -6,-16 9,-25 12,-6 21,-17 21,-25 0,-18 -10,-19 -33,-1 -17,13 -18,66 -19,1097 -1,596 2,1141 7,1212 7,120 9,127 29,127 29,0 42,11 43,38 2,25 -7,28 -26,10 -10,-11 -15,-9 -27,6 -19,26 -18,38 6,64 26,28 73,29 100,2 23,-23 24,-24 7,-71 -14,-42 -36,-71 -47,-64 -4,2 -16,-2 -26,-10 -10,-8 -14,-15 -9,-15 6,0 17,6 24,13 8,8 7,-2 -4,-28 -51,-122 -55,-170 -20,-242 41,-82 65,-100 134,-102 97,-2 140,50 87,104 -20,20 -30,23 -48,16 -28,-10 -36,-48 -13,-57 21,-8 34,4 16,15 -7,5 -10,14 -7,20 12,19 46,-7 46,-34 0,-26 -17,-39 -68,-48 -27,-6 -38,-2 -65,24 -20,20 -25,29 -14,25 31,-10 14,16 -21,33 -17,9 -32,22 -32,30 0,11 3,11 15,1 20,-16 32,-5 16,14 -7,8 -19,12 -27,9 -10,-4 -14,3 -13,28 0,19 3,28 6,22 2,-7 9,-13 14,-13 11,0 7,45 -4,56 -13,14 -7,41 24,101 32,62 82,103 144,116 23,5 19,1 -18,-19 -60,-31 -57,-42 4,-14 24,11 59,20 77,20 17,0 32,5 32,10 0,13 37,13 44,1 4,-5 1,-11 -6,-13 -6,-2 9,-14 34,-26 43,-20 48,-20 77,-6 17,9 31,22 31,29 0,20 35,37 64,29 13,-3 29,-16 36,-29 17,-32 -7,-70 -48,-78 -75,-15 -38,-97 44,-97 33,0 31,16 -3,25 -16,4 -34,11 -40,17 -19,15 -16,38 5,38 27,1 72,46 72,73 0,37 -56,79 -95,71 -36,-8 -55,-21 -55,-40 0,-18 -5,-18 -34,1 -47,31 -208,30 -288,0 -12,-5 -14,0 -10,20 7,41 -31,75 -84,75 -24,0 -46,-4 -49,-10 -20,-32 -25,6 -25,173 0,195 3,206 49,208 24,0 24,1 6,9 -21,8 -17,10 59,25 28,6 96,-65 96,-99 0,-74 -61,-115 -81,-56 -10,28 -29,33 -29,7 0,-22 16,-37 47,-43 24,-5 35,-1 56,20 36,36 42,68 23,107 -9,18 -14,34 -11,37 9,9 35,-20 35,-39 0,-11 5,-19 10,-19 20,0 9,40 -21,75 l -31,35 29,11 c 51,20 141,28 226,20 90,-8 149,-33 222,-94 77,-63 162,-230 135,-263 -10,-11 -10,-18 4,-32 20,-23 21,-61 1,-68 -11,-5 -15,-22 -15,-63 0,-63 -6,-77 -27,-60 -10,9 -13,6 -13,-16 0,-60 -76,-176 -95,-145 -3,5 -13,10 -22,10 -14,0 -12,-4 6,-24 28,-30 47,-94 32,-109 -8,-8 -11,-6 -11,6 0,9 -6,17 -13,17 -9,0 -12,-17 -12,-57 0,-56 -1,-58 -25,-55 -122,14 -157,13 -211,-7 -71,-27 -143,-97 -160,-157 -9,-30 -19,-44 -31,-44 -24,0 -97,-29 -129,-51 -25,-18 -27,-18 -63,0 -42,22 -45,17 -11,-19 l 25,-26 -19,-37 c -31,-62 -35,-123 -11,-199 24,-80 85,-152 144,-172 l 38,-13 -35,-22 C 130,2454 90,2373 90,2265 c 0,-63 5,-85 31,-140 17,-36 39,-70 50,-75 10,-6 19,-17 19,-24 0,-17 73,-67 140,-96 70,-30 197,-33 247,-7 41,22 38,22 53,-12 14,-35 74,-61 141,-61 70,0 147,43 170,94 10,23 19,51 19,63 0,12 8,26 17,32 15,8 15,13 5,36 -17,37 -16,41 18,55 36,15 74,64 102,130 19,46 20,55 8,110 -10,46 -23,72 -53,106 -22,25 -37,47 -35,50 3,2 42,14 86,25 l 81,21 128,-27 c 70,-15 173,-40 228,-55 55,-16 123,-31 150,-35 28,-4 67,-13 88,-21 47,-18 66,-13 181,44 90,44 114,52 271,94 117,32 138,47 189,142 116,216 154,294 161,326 4,19 18,53 30,75 13,22 26,50 30,63 4,13 23,51 42,85 37,64 45,115 23,142 -15,18 -73,20 -102,4 -20,-11 -20,-10 -12,37 17,92 8,272 -16,343 -21,64 -76,181 -89,191 -4,3 -18,21 -31,40 -28,42 -45,59 -128,128 -362,300 -926,161 -1124,-276 -17,-37 -37,-87 -45,-112 -21,-66 -28,-224 -14,-306 15,-82 62,-206 98,-252 14,-18 23,-34 22,-36 -2,-1 -24,-15 -49,-30 -25,-15 -60,-37 -77,-50 -34,-25 -242,-96 -279,-96 -17,0 -20,6 -21,49 -1,53 -38,120 -90,160 -25,21 -26,22 -12,64 8,23 13,71 12,106 -2,60 0,66 33,105 85,100 126,239 108,368 -30,205 -189,359 -402,390 -102,15 -178,-1 -380,-78 -34,-13 -64,-24 -67,-24 -2,0 -2,57 0,128 2,70 4,314 4,543 l 1,416 1461,8 c 803,4 1463,4 1467,0 3,-3 9,-187 12,-408 l 6,-402 2,423 2,422 H 1506 C 150,5260 12,5259 6,5244 Z m 2016,-979 c 90,-19 177,-55 245,-101 55,-38 213,-199 213,-218 0,-5 10,-23 23,-40 12,-17 34,-69 47,-116 32,-110 35,-300 6,-395 -25,-81 -70,-174 -107,-221 -48,-62 -137,-151 -174,-174 -30,-19 -37,-19 -74,-8 -23,7 -41,15 -41,18 0,3 19,16 42,29 89,51 209,183 207,229 0,16 -3,21 -6,12 -7,-17 -54,-80 -98,-128 -16,-19 -61,-55 -100,-80 -69,-46 -71,-47 -150,-46 -101,1 -184,24 -305,86 -53,26 -106,48 -118,48 -12,0 -22,3 -22,8 0,10 244,192 257,192 7,0 31,-15 55,-33 24,-18 75,-54 113,-82 39,-27 72,-52 75,-55 3,-4 15,-9 28,-13 18,-4 22,-2 18,11 -7,27 -76,254 -87,287 -12,36 -8,40 159,160 61,44 111,86 112,93 0,10 -36,13 -172,11 l -173,-2 -39,119 c -74,228 -87,249 -106,172 -6,-24 -30,-99 -53,-168 l -42,-125 -178,-3 c -132,-2 -177,-6 -177,-15 1,-6 37,-39 82,-72 90,-67 98,-71 98,-57 0,6 -33,34 -72,64 l -73,53 149,3 c 82,1 151,0 154,-2 5,-6 -46,-176 -54,-176 -2,0 -22,11 -44,25 -30,19 -40,22 -40,11 0,-8 16,-24 35,-36 21,-13 35,-30 35,-41 0,-18 -85,-307 -92,-315 -2,-1 -39,0 -83,3 -71,6 -82,9 -106,36 -38,41 -94,161 -108,229 -14,63 -16,193 -6,253 4,22 26,81 50,130 101,210 288,338 515,352 213,13 399,-74 532,-249 20,-26 38,-44 42,-41 10,10 -27,67 -81,125 -72,74 -159,130 -258,164 -70,25 -95,28 -196,28 -98,0 -122,-3 -156,-21 -23,-12 -43,-20 -46,-17 -9,9 -91,-29 -152,-69 -124,-82 -226,-226 -264,-371 -40,-152 -22,-291 58,-449 l 49,-98 -41,3 c -38,3 -42,6 -73,63 -167,301 -73,697 213,901 159,113 369,159 555,119 z m -101,-381 c 22,-70 37,-134 35,-141 -6,-14 -142,-19 -163,-5 -9,6 -5,31 18,102 39,125 60,182 65,177 3,-2 23,-62 45,-133 z m 46,-172 c 11,-7 68,-190 61,-196 -49,-43 -124,-99 -142,-108 -21,-9 -33,-4 -100,42 -42,29 -76,58 -76,64 0,7 11,46 25,86 14,40 25,82 25,91 0,16 12,19 93,22 50,1 94,4 97,5 3,1 10,-2 17,-6 z m 313,-1 c 0,-5 -12,-18 -27,-30 -141,-106 -195,-143 -202,-135 -5,5 -16,36 -25,69 -10,33 -19,68 -22,77 -4,13 3,18 33,21 78,8 243,7 243,-2 z m -497,-285 c 31,-22 57,-43 57,-48 0,-12 -215,-168 -218,-158 -3,8 47,181 69,238 10,26 8,27 92,-32 z m 268,27 c 17,-44 71,-234 67,-238 -4,-4 -227,158 -227,165 0,7 131,100 141,100 5,0 13,-12 19,-27 z m 647,-78 c 2,-13 -5,-24 -20,-30 -35,-15 -70,-92 -63,-137 6,-33 -2,-52 -64,-167 -68,-125 -122,-215 -175,-292 -19,-28 -37,-39 -73,-49 -50,-12 -64,-17 -126,-45 -21,-9 -77,-28 -124,-42 -48,-13 -117,-40 -154,-59 -40,-20 -70,-30 -74,-24 -8,12 -65,13 -65,1 0,-5 20,-12 44,-15 38,-6 51,-3 84,18 22,14 136,57 254,96 192,64 216,75 246,108 19,20 42,53 52,72 11,19 19,29 20,22 0,-8 -21,-54 -47,-104 -43,-84 -50,-92 -97,-114 -28,-13 -67,-27 -86,-30 -72,-13 -204,-55 -253,-81 -140,-72 -123,-67 -185,-53 -93,21 -280,70 -309,81 -15,6 -63,17 -107,25 -43,8 -113,24 -155,34 -94,24 -103,24 -99,3 2,-11 -5,-19 -17,-21 -61,-11 -185,-55 -185,-65 0,-7 16,-13 36,-14 45,-2 80,-25 106,-70 41,-69 29,-165 -29,-232 -45,-53 -92,-73 -170,-73 -35,-1 -63,-4 -63,-8 0,-13 58,-22 98,-15 34,5 39,3 50,-20 17,-38 15,-41 -11,-17 -28,26 -42,18 -22,-12 55,-77 -50,-188 -162,-172 -52,7 -87,26 -103,57 -10,17 -6,26 29,64 31,34 41,53 41,79 0,34 -23,66 -34,47 -4,-5 -2,-12 4,-16 36,-22 -25,-118 -98,-154 -59,-29 -112,-35 -174,-21 -149,36 -250,121 -292,244 -18,55 -22,141 -6,131 6,-3 10,-20 10,-38 0,-35 27,-114 47,-138 7,-8 13,-21 13,-27 0,-14 41,-43 51,-36 5,3 -6,18 -24,33 -39,35 -71,121 -71,196 -1,44 4,60 32,99 18,25 29,46 23,46 -14,0 -56,-58 -69,-95 -7,-21 -11,-24 -11,-11 -1,32 38,103 74,134 18,17 57,38 87,47 77,25 81,35 14,35 -100,0 -171,49 -212,145 -20,48 -18,79 2,38 23,-46 38,-41 19,5 -27,63 -12,125 44,185 34,37 39,47 21,37 -14,-7 -36,-22 -49,-34 l -24,-21 12,22 c 21,41 117,95 152,86 14,-4 19,-15 19,-37 0,-17 6,-43 14,-58 8,-15 17,-39 20,-55 7,-31 57,-91 96,-115 35,-22 93,-30 156,-22 36,4 54,11 54,20 0,8 3,14 8,14 4,0 18,20 31,44 28,50 25,96 -9,151 -17,28 -28,35 -54,35 -42,0 -76,-25 -76,-56 0,-19 5,-24 27,-24 25,0 25,1 10,18 -16,17 -16,19 8,32 20,11 28,10 49,-3 35,-23 51,-77 36,-122 -29,-87 -146,-114 -234,-55 -70,48 -90,88 -94,195 -4,78 -1,98 16,132 28,54 71,89 137,109 48,15 65,16 131,6 91,-14 123,-32 165,-90 23,-32 32,-57 36,-102 l 6,-58 -52,-50 c -28,-27 -51,-59 -51,-70 0,-11 -7,-23 -16,-26 -23,-9 -7,-26 25,-26 77,0 166,-124 165,-230 -1,-61 -13,-89 -62,-145 -25,-28 -47,-41 -90,-52 -86,-23 -206,-4 -252,39 -13,13 -33,28 -45,33 -11,6 -22,22 -23,35 -5,32 -20,48 -27,29 -6,-16 21,-89 33,-89 4,0 27,-18 50,-39 57,-51 134,-73 214,-61 64,9 66,10 127,59 62,50 97,108 100,167 6,124 -56,233 -156,274 -16,7 -21,15 -16,27 9,26 95,113 111,113 24,0 214,62 266,87 28,13 76,40 106,59 30,19 72,39 93,45 48,13 229,3 312,-17 53,-13 121,-40 135,-54 21,-22 178,-64 295,-80 39,-5 97,-18 130,-29 l 60,-20 -60,6 c -58,5 -61,4 -73,-21 -24,-53 -11,-71 58,-82 31,-5 41,-4 36,4 -4,7 -20,12 -35,12 -40,0 -57,23 -42,56 9,21 16,25 37,20 15,-4 40,-10 56,-13 31,-6 33,-18 13,-67 -6,-14 -5,-17 3,-12 7,4 12,3 12,-3 0,-15 -26,-18 -145,-20 -74,0 -125,4 -156,14 -62,21 -159,24 -193,5 -22,-11 -31,-12 -46,-2 -11,7 -28,12 -37,12 -15,-1 -14,-4 6,-21 21,-17 22,-22 10,-30 -7,-5 -26,-9 -41,-9 -16,0 -28,-5 -28,-11 0,-11 19,-9 103,7 21,4 27,2 27,-11 0,-12 6,-15 20,-10 11,3 20,2 20,-3 0,-10 -23,-85 -35,-117 -8,-20 -8,-20 13,-1 12,11 22,23 22,28 0,5 9,28 19,52 19,41 21,42 99,60 52,12 126,19 210,20 111,1 133,4 150,19 43,39 68,127 37,127 -8,0 -15,2 -15,5 0,3 40,44 88,92 90,91 159,193 183,271 14,49 46,71 99,69 27,-2 36,-7 38,-22 z m -8,-52 c 0,-18 -44,-95 -48,-84 -5,15 28,91 40,91 4,0 8,-3 8,-7 z m -400,-400 c -1,-10 -8,-29 -16,-43 -8,-14 -13,-17 -10,-7 3,10 6,30 6,43 0,13 5,24 10,24 6,0 10,-8 10,-17 z m -386,-92 c 26,-10 12,-17 -47,-26 -46,-7 -77,4 -77,26 0,11 97,11 124,0 z m 457,-1238 c 13,-17 13,-17 -6,-3 -11,8 -22,16 -24,17 -2,2 0,3 6,3 6,0 17,-8 24,-17 z m -391,-3 c -8,-5 -19,-10 -25,-10 -5,0 -3,5 5,10 8,5 20,10 25,10 6,0 3,-5 -5,-10 z m 58,-9 c 3,-8 -1,-12 -9,-9 -7,2 -15,10 -17,17 -3,8 1,12 9,9 7,-2 15,-10 17,-17 z m 112,-27 c 0,-19 -16,-18 -24,2 -11,27 -7,37 9,24 8,-7 15,-19 15,-26 z m -30,-30 c 0,-14 -12,-19 -23,-8 -9,9 4,35 14,28 5,-3 9,-12 9,-20 z m 178,-5 c -2,-6 -8,-10 -13,-10 -5,0 -11,4 -13,10 -2,6 4,11 13,11 9,0 15,-5 13,-11 z m 62,-19 c 0,-5 -5,-10 -11,-10 -5,0 -7,5 -4,10 3,6 8,10 11,10 2,0 4,-4 4,-10 z m -390,-9 c 0,-6 -4,-13 -10,-16 -5,-3 -10,1 -10,9 0,9 5,16 10,16 6,0 10,-4 10,-9 z m 182,-3 c -21,-21 -13,-27 18,-16 25,8 34,7 49,-6 25,-23 34,-20 27,10 -6,23 -5,24 14,14 11,-6 19,-16 17,-22 -1,-7 3,-12 10,-13 15,0 30,-15 15,-15 -7,0 -12,-7 -12,-15 0,-8 -4,-15 -10,-15 -5,0 -10,-5 -10,-12 0,-9 3,-9 12,0 15,15 48,16 48,1 0,-6 9,-23 19,-38 22,-31 18,-67 -8,-74 -11,-3 -9,-5 7,-6 24,-1 27,-8 13,-30 -8,-12 -17,-11 -55,9 -25,14 -46,22 -48,20 -37,-52 -85,-103 -102,-110 -14,-5 -29,-2 -48,11 -34,25 -37,24 -73,-10 -16,-16 -40,-32 -52,-35 -18,-6 -21,-4 -16,14 3,12 12,24 19,27 23,9 15,23 -13,24 -24,2 -25,2 -5,6 17,3 21,9 17,26 -4,16 0,25 17,32 23,10 27,32 5,28 -16,-4 -42,38 -29,46 5,3 15,23 23,44 8,22 20,37 29,37 21,0 40,20 40,42 0,11 12,21 33,27 48,14 64,14 49,-1 z m 222,-69 c -8,-14 -24,-10 -24,6 0,9 6,12 15,9 8,-4 12,-10 9,-15 z m 496,-69 c 0,-5 -4,-10 -10,-10 -5,0 -10,5 -10,10 0,6 5,10 10,10 6,0 10,-4 10,-10 z m -970,-10 c 0,-5 -5,-10 -11,-10 -5,0 -7,5 -4,10 3,6 8,10 11,10 2,0 4,-4 4,-10 z m 565,-70 c 3,-5 -1,-10 -10,-10 -9,0 -13,5 -10,10 3,6 8,10 10,10 2,0 7,-4 10,-10 z m -138,-45 c 58,-28 64,-38 32,-55 -13,-7 -18,-17 -15,-27 4,-9 1,-22 -5,-29 -16,-19 -4,-42 26,-54 31,-12 34,-34 4,-25 -15,5 -19,4 -15,-4 4,-6 3,-11 -3,-11 -15,0 -9,-43 9,-57 13,-11 11,-12 -10,-10 -14,1 -24,-2 -24,-8 1,-5 5,-25 9,-42 5,-28 4,-32 -9,-27 -9,3 -16,1 -16,-5 0,-6 6,-11 13,-11 8,0 8,-3 -2,-9 -9,-6 -22,-6 -32,-1 -9,5 -20,6 -24,2 -5,-4 -5,-2 -1,5 10,17 -12,27 -30,12 -8,-6 -12,-20 -9,-30 4,-11 -3,-25 -16,-38 -13,-12 -17,-21 -11,-21 7,0 12,-4 12,-10 0,-5 -13,-10 -30,-10 -16,0 -30,-4 -30,-10 0,-13 63,-13 77,1 7,7 13,8 17,0 4,-6 -2,-16 -14,-23 -31,-19 -24,-31 14,-25 35,6 56,-8 69,-45 4,-10 13,-18 22,-18 8,0 15,-4 15,-10 0,-5 9,-10 19,-10 11,0 23,-4 26,-10 14,-23 26,-8 19,25 -5,28 -3,35 9,35 9,0 18,13 22,30 4,20 13,30 25,30 10,0 20,4 22,10 2,5 30,4 74,-3 48,-8 69,-16 67,-24 -3,-8 4,-13 17,-13 16,0 20,4 16,16 -4,9 0,27 8,39 16,24 12,35 -11,35 -8,0 -26,11 -40,25 l -27,24 25,10 c 14,5 39,21 57,36 26,22 35,24 52,15 11,-6 29,-8 40,-5 10,3 21,1 25,-5 3,-5 -1,-10 -9,-10 -22,0 -20,-29 2,-29 9,-1 36,-4 58,-7 35,-5 41,-9 37,-25 -3,-10 -9,-19 -14,-19 -5,0 -6,-7 -3,-15 4,-8 2,-15 -4,-15 -6,0 -12,5 -14,11 -2,6 -15,0 -28,-15 -31,-32 -42,-33 -35,-3 4,13 -1,30 -10,42 -16,20 -16,20 -12,-3 6,-26 -18,-92 -33,-92 -5,0 -7,7 -3,16 4,12 2,15 -8,12 -16,-5 -21,-45 -7,-54 15,-10 -3,-25 -23,-19 -11,4 -19,2 -19,-4 0,-6 7,-11 15,-11 11,0 14,-7 9,-25 -4,-15 -2,-25 5,-25 6,0 10,-9 8,-19 -4,-35 17,-27 32,12 14,38 8,64 -9,37 -8,-13 -10,-12 -10,3 0,9 5,17 10,17 6,0 10,9 10,19 0,11 5,23 10,26 6,3 10,-4 10,-17 0,-13 6,-30 12,-36 10,-10 10,-15 -1,-21 -18,-12 2,-23 26,-14 17,6 17,6 0,-15 -18,-20 -18,-21 10,-36 l 28,-15 -32,-1 c -20,0 -36,6 -42,18 -10,16 -12,16 -25,0 -15,-20 -37,-23 -52,-8 -12,12 -39,-4 -29,-20 4,-6 13,-9 20,-6 8,3 19,-2 25,-9 8,-9 21,-13 36,-9 30,8 34,-20 4,-36 -16,-9 -18,-8 -14,5 8,20 1,19 -46,-4 -22,-11 -40,-15 -40,-10 0,5 -13,9 -30,9 -35,0 -40,-15 -8,-23 12,-4 19,-9 15,-13 -13,-14 -56,-12 -68,2 -14,18 -35,18 -42,1 -7,-19 -123,-18 -119,2 6,26 -17,40 -49,29 -33,-11 -30,-28 7,-28 13,0 24,-4 24,-10 0,-6 -100,-10 -281,-10 -169,0 -278,4 -274,9 5,9 -45,17 -140,23 -33,3 -40,0 -39,-14 2,-16 -9,-18 -105,-18 -58,0 -186,-3 -283,-7 -187,-6 -215,-1 -203,38 4,11 -2,23 -16,32 -11,9 -18,20 -15,26 4,6 0,24 -9,41 -14,27 -14,30 1,30 9,0 14,6 11,13 -3,6 -8,19 -12,28 -4,11 0,19 11,23 17,7 37,-11 28,-25 -8,-13 17,-22 29,-10 8,8 7,11 -3,11 -11,0 -11,3 -2,12 19,19 32,-3 35,-60 2,-28 6,-54 10,-58 4,-4 2,-13 -5,-21 -6,-7 -8,-16 -4,-20 3,-3 -1,-15 -11,-25 -15,-17 -15,-18 10,-18 24,0 27,4 27,35 0,19 4,35 9,35 12,0 22,-27 15,-44 -3,-8 3,-17 14,-21 25,-7 72,4 72,17 0,6 -11,7 -24,4 -20,-5 -25,-1 -32,22 -4,15 -9,42 -10,61 -2,19 -5,40 -8,48 -3,7 -1,13 5,13 6,0 8,9 4,20 -4,12 -2,20 6,20 9,0 8,4 -1,15 -18,22 -30,18 -30,-10 0,-14 -4,-25 -10,-25 -14,0 -12,62 3,80 15,19 47,22 47,5 0,-16 35,-25 71,-18 42,8 35,23 -10,23 -72,0 -52,17 27,24 42,3 94,8 115,10 27,3 40,0 44,-10 3,-10 12,-12 26,-8 11,3 72,7 136,8 72,1 125,7 139,15 20,11 25,10 36,-5 9,-11 19,-15 31,-10 25,9 85,-4 85,-19 0,-16 64,-29 87,-17 78,41 97,41 61,3 -19,-21 -28,-23 -80,-18 -51,4 -57,3 -47,-10 16,-18 164,-15 164,4 0,6 3,15 8,19 4,4 7,16 7,26 0,10 6,18 14,18 42,0 20,49 -23,53 -31,2 -51,28 -44,57 l 6,24 10,-25 c 9,-23 9,-23 17,-4 11,28 -3,39 -52,44 -11,1 -10,41 1,41 5,0 7,9 4,20 -6,23 -14,25 -31,8 -14,-14 -15,-4 -3,40 9,31 9,33 -12,26 -21,-6 -21,-6 -4,13 9,11 17,25 17,32 0,6 12,17 28,23 l 27,11 -24,6 c -23,6 -22,7 17,35 22,15 46,25 51,21 18,-11 12,-24 -14,-31 -14,-3 -25,-10 -25,-15 0,-17 35,-8 85,22 28,16 58,32 67,35 10,4 27,22 39,40 11,19 23,34 26,34 3,0 30,-11 60,-25 z m 111,3 c 18,-18 15,-28 -8,-28 -13,0 -20,7 -20,20 0,23 10,26 28,8 z M 339,1191 c 7,-5 12,-14 9,-21 -2,-7 -10,-4 -22,9 -19,21 -12,28 13,12 z m 1141,-21 c 8,-5 12,-12 8,-15 -9,-9 -48,4 -48,16 0,12 21,11 40,-1 z m -880,-30 c 0,-5 -4,-10 -10,-10 -5,0 -10,5 -10,10 0,6 5,10 10,10 6,0 10,-4 10,-10 z m 380,-11 c 0,-5 -4,-9 -10,-9 -5,0 -10,7 -10,16 0,8 5,12 10,9 6,-3 10,-10 10,-16 z m -423,-35 c -2,-3 -12,-2 -21,2 -16,6 -16,8 1,26 18,20 18,20 21,-2 2,-12 2,-24 -1,-26 z m 119,19 c -10,-10 -19,5 -10,18 6,11 8,11 12,0 2,-7 1,-15 -2,-18 z m 524,7 c 0,-5 -9,-6 -20,-3 -11,3 -20,9 -20,13 0,5 9,6 20,3 11,-3 20,-9 20,-13 z m -438,-12 c -7,-7 -12,-8 -12,-2 0,14 12,26 19,19 2,-3 -1,-11 -7,-17 z m -397,-8 c -3,-5 -14,-10 -23,-10 -15,0 -15,2 -2,10 20,13 33,13 25,0 z m 372,4 c -3,-3 -12,-4 -19,-1 -8,3 -5,6 6,6 11,1 17,-2 13,-5 z m 1633,-8 c 0,-3 -4,-8 -10,-11 -5,-3 -10,-1 -10,4 0,6 5,11 10,11 6,0 10,-2 10,-4 z M 280,1070 c 0,-5 -4,-10 -10,-10 -5,0 -10,5 -10,10 0,6 5,10 10,10 6,0 10,-4 10,-10 z m 2510,0 c 0,-5 -7,-10 -15,-10 -8,0 -15,5 -15,10 0,6 7,10 15,10 8,0 15,-4 15,-10 z m -930,-4 c 0,-3 -4,-8 -10,-11 -5,-3 -10,-1 -10,4 0,6 5,11 10,11 6,0 10,-2 10,-4 z M 470,1030 c 0,-10 -7,-20 -15,-24 -19,-7 -21,-80 -2,-74 6,3 16,14 22,26 10,23 39,30 50,12 3,-5 16,-10 27,-10 20,0 20,-1 4,-19 -10,-11 -15,-25 -11,-31 7,-12 -11,-40 -26,-40 -5,0 -9,9 -9,20 0,18 -5,20 -38,14 -33,-5 -43,-2 -67,21 -24,21 -26,28 -15,35 9,6 20,4 29,-3 12,-10 13,-8 8,13 -3,14 -9,35 -12,48 -6,18 -4,22 14,22 11,0 21,5 21,11 0,5 5,7 10,4 6,-3 10,-14 10,-25 z m 1480,20 c 0,-5 -4,-10 -10,-10 -5,0 -10,5 -10,10 0,6 5,10 10,10 6,0 10,-4 10,-10 z M 152,1011 c -6,-14 -7,-14 -10,2 -2,9 -8,17 -13,17 -5,0 -9,5 -9,10 0,6 7,6 19,-2 12,-7 17,-18 13,-27 z m 2378,-5 c 0,-2 -7,-7 -16,-10 -8,-3 -12,-2 -9,4 6,10 25,14 25,6 z M 190,986 c 0,-11 -19,-15 -25,-6 -3,5 1,10 9,10 9,0 16,-2 16,-4 z m 193,-72 c 41,-27 45,-49 26,-118 -7,-26 -7,-42 -1,-48 7,-7 7,-16 -1,-28 -8,-14 -8,-22 2,-33 9,-11 9,-17 1,-22 -6,-4 -13,-5 -16,-3 -5,6 -6,46 -2,73 2,16 -2,20 -22,18 -24,-3 -24,-2 -6,12 11,8 23,15 28,15 4,0 8,7 8,15 0,8 -5,15 -11,15 -6,0 -8,7 -5,17 4,9 1,20 -6,25 -10,6 -10,8 0,8 6,0 12,5 12,11 0,6 -16,9 -37,7 -33,-3 -38,-6 -35,-26 3,-21 1,-22 -18,-12 -15,8 -20,18 -17,31 3,10 1,19 -4,19 -19,0 -8,45 19,73 l 27,28 11,-26 c 5,-14 27,-37 47,-51 z m 569,9 c -2,-7 3,-13 12,-13 9,0 16,-7 16,-16 0,-13 -7,-15 -28,-11 -38,8 -79,-35 -76,-78 1,-16 3,-40 3,-52 1,-16 7,-23 21,-23 11,0 20,6 21,13 0,9 2,9 5,0 3,-7 0,-21 -5,-32 -7,-13 -8,-22 -1,-26 16,-10 12,-28 -5,-21 -10,4 -20,-3 -27,-19 -17,-37 -25,-30 -30,26 -3,28 -10,54 -15,58 -6,3 -10,15 -10,26 1,59 -3,73 -28,79 -25,6 -34,29 -15,41 5,3 7,20 3,37 -6,28 -5,30 15,19 12,-6 26,-19 32,-29 9,-16 11,-16 25,2 21,28 19,46 -7,48 -13,0 -3,4 22,7 47,7 82,-11 72,-36 z m 373,28 c 7,-12 -12,-24 -25,-16 -11,7 -4,25 10,25 5,0 11,-4 15,-9 z m 120,-1 c 3,-5 1,-10 -4,-10 -6,0 -11,5 -11,10 0,6 2,10 4,10 3,0 8,-4 11,-10 z m 952,4 c -3,-3 -12,-4 -19,-1 -8,3 -5,6 6,6 11,1 17,-2 13,-5 z m 136,-1 c -7,-2 -19,-2 -25,0 -7,3 -2,5 12,5 14,0 19,-2 13,-5 z M 1151,933 c 13,-16 12,-17 -3,-4 -10,7 -18,15 -18,17 0,8 8,3 21,-13 z m 1489,-3 c 0,-5 -4,-10 -10,-10 -5,0 -10,5 -10,10 0,6 5,10 10,10 6,0 10,-4 10,-10 z M 86,905 c 3,-43 14,-76 24,-70 6,3 10,15 10,26 0,15 5,20 23,17 12,-2 21,-9 19,-16 -1,-6 4,-12 12,-12 17,0 16,-62 -2,-68 -6,-2 -12,3 -12,12 0,21 -19,20 -47,-2 C 88,773 68,680 88,680 c 6,0 18,-7 26,-16 9,-8 21,-12 27,-8 7,4 1,15 -17,30 l -29,24 28,-11 c 30,-13 47,-5 29,13 -22,22 -12,28 48,28 33,0 60,-4 60,-10 0,-5 -7,-10 -15,-10 -8,0 -15,-5 -15,-11 0,-6 12,-9 28,-7 19,2 26,8 24,21 -2,12 4,17 22,17 14,0 28,-5 31,-10 4,-6 11,-8 16,-5 15,10 10,-12 -6,-25 -17,-14 -10,-34 8,-23 7,4 6,0 -2,-10 -12,-15 -11,-17 3,-17 25,0 19,-15 -21,-50 -35,-31 -36,-33 -18,-46 10,-8 13,-14 7,-14 -7,0 -12,-4 -12,-10 0,-5 9,-10 21,-10 h 20 l -21,-27 c -15,-20 -18,-28 -8,-34 9,-6 8,-10 -4,-14 -10,-4 -23,-3 -30,2 -7,4 -26,8 -43,8 -20,0 -30,5 -30,15 0,23 -20,23 -23,0 -2,-13 2,-20 12,-20 9,0 15,-5 14,-12 -2,-8 17,-12 59,-12 34,-1 65,-4 69,-9 4,-4 -27,-7 -69,-7 -52,0 -78,4 -84,13 -4,8 -16,17 -27,20 -18,7 -18,8 0,28 12,13 14,23 8,27 -6,4 -16,22 -22,40 -9,26 -8,32 4,32 7,0 14,5 14,11 0,5 -10,9 -22,7 -16,-2 -24,5 -33,31 -22,65 -33,48 -29,-41 5,-83 5,-83 -11,-48 -13,27 -15,56 -12,128 2,51 0,95 -5,98 -5,3 -6,14 -3,24 5,15 2,17 -15,13 -18,-5 -20,-1 -20,33 0,30 3,35 12,26 15,-15 32,-16 23,-2 -4,6 -1,18 6,26 10,13 10,17 -2,25 -12,8 -12,10 1,19 22,14 25,13 26,-15 z m 2303,-4 c -26,-21 -35,-20 -26,4 4,8 16,15 28,15 21,0 21,0 -2,-19 z m 114,-1 c 15,0 18,-3 10,-11 -8,-8 -17,-7 -32,3 -12,8 -18,18 -14,22 4,4 9,2 11,-3 2,-6 13,-11 25,-11 z m -670,-17 c -7,-2 -19,-2 -25,0 -7,3 -2,5 12,5 14,0 19,-2 13,-5 z m 582,-13 c -3,-5 -11,-10 -16,-10 -6,0 -7,5 -4,10 3,6 11,10 16,10 6,0 7,-4 4,-10 z M 1246,858 c -3,-7 -9,-21 -12,-30 -4,-10 -13,-18 -20,-18 -8,0 -17,-7 -20,-15 -4,-8 -13,-15 -21,-15 -13,0 -13,3 -3,15 11,13 9,20 -11,42 l -24,26 36,-6 c 20,-3 42,-1 50,4 20,13 32,11 25,-3 z M 580,838 c 0,-19 -2,-20 -10,-8 -13,19 -13,30 0,30 6,0 10,-10 10,-22 z m 1920,1 c 0,-6 -4,-7 -10,-4 -5,3 -10,11 -10,16 0,6 5,7 10,4 6,-3 10,-11 10,-16 z M 978,803 c -7,-9 -12,-24 -10,-35 2,-10 -2,-18 -7,-18 -6,0 -11,9 -11,20 0,11 -4,20 -10,20 -5,0 -10,7 -10,16 0,14 3,14 15,4 12,-10 15,-10 15,2 0,8 6,20 13,27 18,18 23,-15 5,-36 z m 1022,37 c 0,-5 -7,-10 -15,-10 -8,0 -15,5 -15,10 0,6 7,10 15,10 8,0 15,-4 15,-10 z M 552,815 c 9,-20 9,-28 -2,-38 -7,-7 -10,-7 -7,-1 4,6 0,20 -8,30 -17,23 -19,34 -5,34 6,0 16,-11 22,-25 z m 98,-23 c 0,-8 8,-27 17,-43 18,-31 9,-55 -11,-27 -7,9 -26,20 -43,25 l -30,8 19,45 c 18,43 20,44 34,26 8,-11 14,-26 14,-34 z m 484,-18 c 4,-32 2,-43 -9,-48 -12,-4 -15,1 -12,29 5,41 -9,46 -23,10 -11,-29 -41,-33 -61,-8 -12,13 -12,15 -1,12 8,-3 30,10 49,29 20,18 39,30 43,25 4,-4 10,-27 14,-49 z m 1326,14 c 0,-19 -2,-20 -10,-8 -13,19 -13,30 0,30 6,0 10,-10 10,-22 z M 820,768 c 0,-4 -6,-5 -14,-2 -8,3 -12,12 -9,21 5,12 7,12 14,1 5,-7 9,-16 9,-20 z m 1510,-8 c 0,-14 -37,-31 -54,-24 -25,9 -19,22 12,27 15,2 30,5 35,6 4,0 7,-3 7,-9 z M 523,679 c 12,-8 0,-29 -17,-29 -7,0 -20,6 -30,13 -16,12 -16,15 -2,42 9,17 16,37 17,45 1,8 6,-3 11,-25 6,-22 15,-43 21,-46 z m 2328,51 c 5,0 9,6 9,14 0,11 12,14 45,13 31,-1 44,-6 41,-14 -3,-7 -1,-15 4,-18 4,-3 11,1 13,7 3,7 6,-15 6,-49 1,-52 -2,-61 -14,-57 -8,4 -15,10 -15,15 0,5 -9,9 -20,9 -11,0 -20,5 -20,10 0,6 8,10 19,10 10,0 24,7 31,15 10,12 7,15 -13,20 -49,13 -91,2 -105,-27 -7,-16 -19,-28 -26,-28 -37,0 -50,64 -15,73 12,3 18,10 15,16 -3,5 2,11 11,13 10,2 19,-2 21,-9 2,-7 8,-13 13,-13 z M 810,717 c 0,-12 -3,-32 -6,-44 -6,-20 -8,-21 -21,-7 -12,11 -13,18 -4,27 6,6 11,22 11,35 0,13 4,20 10,17 6,-3 10,-16 10,-28 z m -52,-2 c 3,-16 1,-18 -9,-7 -19,18 -29,15 -29,-10 0,-11 14,-34 31,-49 25,-22 36,-26 54,-19 29,11 36,4 25,-25 -5,-12 -7,-39 -6,-59 2,-27 -3,-43 -20,-62 -28,-29 -29,-34 -9,-34 8,0 15,5 15,10 0,6 6,10 14,10 9,0 12,-8 8,-25 -3,-21 -7,-23 -18,-14 -11,9 -18,8 -32,-5 -23,-20 -90,-23 -73,-3 6,8 7,17 3,21 -7,8 -9,14 -11,47 0,12 -6,19 -13,16 -14,-5 -14,-5 -3,-54 5,-27 3,-33 -10,-33 -9,0 -14,4 -11,8 3,4 -11,21 -30,37 -19,16 -34,36 -34,46 0,28 11,49 26,49 8,0 14,5 14,10 0,6 -8,10 -19,10 -16,0 -18,8 -17,60 0,40 5,60 13,60 6,0 13,-10 15,-22 2,-15 11,-23 31,-25 15,-2 27,1 27,7 0,5 -4,10 -9,10 -12,0 13,50 31,61 20,14 42,6 46,-16 z m 1177,15 c 3,-5 -1,-10 -10,-10 -9,0 -13,5 -10,10 3,6 8,10 10,10 2,0 7,-4 10,-10 z m 495,2 c 0,-5 -9,-18 -20,-30 -11,-12 -20,-26 -20,-31 0,-14 -40,-35 -48,-25 -4,4 -1,9 6,11 17,7 15,30 -4,41 -11,6 -13,11 -5,16 6,4 11,2 11,-3 0,-6 7,-11 15,-11 18,0 19,12 3,28 -9,9 -4,12 25,12 20,0 37,-4 37,-8 z M 577,715 c 0,-8 -4,-15 -9,-15 -4,0 -8,7 -8,15 0,8 4,15 8,15 5,0 9,-7 9,-15 z m 470,-6 c -14,-8 -15,-14 -7,-24 7,-8 7,-15 1,-19 -5,-4 -14,1 -19,11 -8,13 -6,21 6,30 10,7 22,12 27,12 6,0 2,-4 -8,-10 z m 53,-29 c 0,-11 -4,-20 -10,-20 -5,0 -10,9 -10,20 0,11 5,20 10,20 6,0 10,-9 10,-20 z M 559,636 c -9,-8 -10,-7 -5,7 3,10 7,26 7,35 1,9 4,6 6,-7 3,-13 -1,-28 -8,-35 z M 406,625 c 1,-8 -4,-19 -12,-26 -11,-9 -14,-8 -14,4 0,40 21,57 26,22 z m 118,-10 c -7,-16 -49,-21 -59,-6 -3,5 7,12 22,14 16,2 31,5 35,6 4,0 5,-6 2,-14 z m 399,9 c 12,-12 -6,-34 -28,-34 -17,0 -25,-7 -28,-22 -3,-16 -5,-13 -6,11 -1,26 2,32 14,27 9,-3 18,1 21,9 6,16 17,19 27,9 z M 575,575 c 1,-19 -1,-35 -5,-35 -9,0 -19,68 -11,75 9,9 15,-6 16,-40 z m 399,28 c 4,-9 3,-20 -1,-24 -13,-13 -34,6 -27,24 8,22 20,22 28,0 z m 1996,-8 c 0,-8 -4,-15 -9,-15 -5,0 -11,7 -15,15 -3,9 0,15 9,15 8,0 15,-7 15,-15 z m -1845,-5 c 3,-5 1,-10 -4,-10 -6,0 -11,5 -11,10 0,6 2,10 4,10 3,0 8,-4 11,-10 z M 435,570 c 3,-5 1,-10 -4,-10 -6,0 -11,5 -11,10 0,6 2,10 4,10 3,0 8,-4 11,-10 z m 55,1 c 0,-6 -4,-13 -10,-16 -5,-3 -10,1 -10,9 0,9 5,16 10,16 6,0 10,-4 10,-9 z m 40,-13 c 0,-12 -10,-32 -22,-45 -19,-20 -20,-27 -10,-43 10,-17 10,-20 -6,-20 -25,0 -23,67 4,87 10,8 18,21 16,29 -2,8 2,14 8,14 5,0 10,-10 10,-22 z m 393,-12 c 3,-8 3,-23 0,-35 -3,-14 0,-23 11,-27 9,-3 13,-10 10,-15 -10,-17 -22,-9 -34,24 -6,17 -16,40 -21,50 -7,13 -5,17 10,17 10,0 21,-6 24,-14 z m 52,-23 c 3,-13 2,-23 -3,-23 -11,0 -22,24 -22,48 0,21 15,5 25,-25 z m 175,28 c 0,-12 -29,-47 -30,-34 0,6 -2,18 -5,25 -4,9 2,14 15,15 11,1 20,-2 20,-6 z m 1795,-1 c 3,-5 -1,-10 -10,-10 -9,0 -13,5 -10,10 3,6 8,10 10,10 2,0 7,-4 10,-10 z M 399,466 c -5,-6 -9,-2 -9,11 0,12 -5,25 -10,28 -8,5 -7,12 2,22 11,14 14,11 20,-18 4,-19 2,-38 -3,-43 z m 2571,10 c 0,-43 -13,-67 -28,-51 -4,4 -1,10 6,12 23,8 12,23 -17,23 -20,0 -30,-6 -34,-20 -3,-11 -13,-20 -22,-20 -12,0 -15,5 -11,16 3,9 6,22 6,30 0,8 7,14 15,14 7,0 18,6 22,14 4,7 15,16 23,19 34,13 40,7 40,-37 z M 580,494 c 0,-8 -5,-12 -10,-9 -6,4 -8,11 -5,16 9,14 15,11 15,-7 z m 322,-61 c 8,-10 6,-13 -5,-13 -20,0 -26,20 -19,56 l 7,29 3,-30 c 2,-16 8,-36 14,-42 z m 1892,51 c 3,-8 10,-12 16,-9 5,3 15,-6 20,-20 13,-34 13,-35 -6,-35 -10,0 -14,6 -10,15 3,8 1,15 -4,15 -11,0 -40,29 -40,41 0,15 17,10 24,-7 z M 995,460 c 13,-6 15,-9 5,-9 -8,0 -22,4 -30,9 -18,12 -2,12 25,0 z m 1725,-31 c 0,-5 -11,-9 -25,-9 -27,0 -32,9 -13,28 12,12 38,-1 38,-19 z M 40,440 c 0,-5 -5,-10 -11,-10 -5,0 -7,5 -4,10 3,6 8,10 11,10 2,0 4,-4 4,-10 z m 2730,-5 c 0,-8 -4,-15 -10,-15 -5,0 -10,7 -10,15 0,8 5,15 10,15 6,0 10,-7 10,-15 z M 580,419 c 0,-5 -19,-9 -42,-9 l -43,1 30,13 c 31,13 55,11 55,-5 z m -500,1 c 0,-5 -4,-10 -10,-10 -5,0 -10,5 -10,10 0,6 5,10 10,10 6,0 10,-4 10,-10 z m 570,0 c 0,-5 -4,-10 -10,-10 -5,0 -10,5 -10,10 0,6 5,10 10,10 6,0 10,-4 10,-10 z m 337,4 c -3,-3 -12,-4 -19,-1 -8,3 -5,6 6,6 11,1 17,-2 13,-5 z M 463,413 c -13,-2 -33,-2 -45,0 -13,2 -3,4 22,4 25,0 35,-2 23,-4 z M 2970,257 c 0,-80 -4,-136 -9,-133 -14,9 -41,-4 -41,-20 0,-8 10,-14 26,-14 22,0 24,-3 18,-22 -3,-13 -8,-25 -11,-28 -2,-2 -273,-5 -601,-7 -542,-2 -1382,-4 -1407,-3 -15,0 -13,110 3,110 17,0 15,47 -3,54 -10,4 -19,-2 -24,-16 l -8,-21 -16,24 c -22,31 -21,39 4,39 11,0 17,5 14,10 -9,14 -28,12 -50,-4 -19,-14 -19,-15 7,-62 C 906,98 913,67 896,44 882,26 863,25 448,25 H 15 v 165 c 0,91 2,171 4,178 2,9 120,12 540,13 295,1 741,5 991,8 250,3 672,6 937,6 h 483 z"
         id="path795" />
      <g
         id="g799">
        <path
           d="m 2420,3856 c 0,-8 7,-17 16,-20 8,-3 13,-10 9,-15 -3,-5 2,-29 10,-53 37,-99 28,-307 -16,-407 -26,-60 -8,-77 20,-19 63,131 63,357 0,488 -19,40 -39,53 -39,26 z"
           id="path797" />
      </g>
      <g
         id="g803">
        <path
           d="m 477,3165 c -27,-14 -55,-25 -62,-25 -26,0 -64,-46 -76,-94 -13,-52 0,-134 27,-171 23,-31 24,-13 2,54 -20,61 -20,66 -4,116 15,49 50,95 62,82 3,-3 22,6 42,19 31,22 47,25 107,23 38,-1 72,2 75,7 3,5 -24,10 -60,11 -53,2 -74,-2 -113,-22 z"
           id="path801" />
      </g>
      <g
         id="g807">
        <path
           d="m 1652,2963 c 2,-21 9,-29 28,-31 l 25,-3 -22,16 c -13,9 -20,22 -17,30 4,8 1,15 -6,15 -6,0 -10,-11 -8,-27 z"
           id="path805" />
      </g>
      <g
         id="g811">
        <path
           d="m 208,2973 c 6,-2 18,-2 25,0 6,3 1,5 -13,5 -14,0 -19,-2 -12,-5 z"
           id="path809" />
      </g>
      <g
         id="g815">
        <path
           d="m 170,2915 c -7,-9 -11,-18 -8,-20 3,-3 11,1 18,10 7,9 11,18 8,20 -3,3 -11,-1 -18,-10 z"
           id="path813" />
      </g>
      <g
         id="g819">
        <path
           d="m 600,2902 c 0,-4 5,-13 12,-20 17,-17 -18,-81 -46,-87 -12,-2 -30,-6 -41,-8 -18,-4 -18,-5 -2,-12 63,-27 152,76 105,123 -14,14 -28,16 -28,4 z"
           id="path817" />
      </g>
      <g
         id="g823">
        <path
           d="m 570,2861 c 0,-12 -4,-21 -10,-21 -5,0 -10,-4 -10,-10 0,-15 17,-12 35,6 17,18 16,35 -3,42 -7,2 -12,-6 -12,-17 z"
           id="path821" />
      </g>
      <g
         id="g827">
        <path
           d="m 400,2821 c 0,-5 7,-12 16,-15 24,-9 28,-7 14,9 -14,17 -30,20 -30,6 z"
           id="path825" />
      </g>
      <g
         id="g831">
        <path
           d="m 460,2780 c 0,-5 7,-10 16,-10 8,0 12,5 9,10 -3,6 -10,10 -16,10 -5,0 -9,-4 -9,-10 z"
           id="path829" />
      </g>
      <g
         id="g835">
        <path
           d="m 150,2632 c 0,-10 43,-42 56,-42 10,0 -17,30 -38,41 -10,6 -18,6 -18,1 z"
           id="path833" />
      </g>
      <g
         id="g839">
        <path
           d="m 360,2588 c 0,-36 4,-35 14,5 4,16 2,27 -4,27 -5,0 -10,-14 -10,-32 z"
           id="path837" />
      </g>
      <g
         id="g843">
        <path
           d="m 643,2593 c 9,-2 23,-2 30,0 6,3 -1,5 -18,5 -16,0 -22,-2 -12,-5 z"
           id="path841" />
      </g>
      <g
         id="g847">
        <path
           d="m 501,2550 c -1,-29 6,-57 19,-78 18,-29 18,-32 2,-23 -30,16 -51,46 -61,87 -8,34 -9,35 -10,10 -1,-33 30,-88 62,-108 36,-24 66,-27 118,-14 71,19 89,39 88,95 -1,25 -3,35 -6,21 -10,-63 -15,-72 -48,-86 -87,-36 -141,-5 -155,88 l -8,53 z"
           id="path845" />
      </g>
      <g
         id="g851">
        <path
           d="m 597,2583 c -11,-10 -8,-41 5,-49 8,-5 9,-2 5,11 -4,9 -2,24 4,31 11,14 -1,20 -14,7 z"
           id="path849" />
      </g>
      <g
         id="g855">
        <path
           d="m 390,2568 c 0,-9 5,-20 10,-23 13,-8 13,5 0,25 -8,13 -10,13 -10,-2 z"
           id="path853" />
      </g>
      <g
         id="g859">
        <path
           d="m 258,2493 c -20,-5 -24,-23 -5,-23 6,1 23,7 37,15 22,12 22,14 5,13 -11,0 -28,-2 -37,-5 z"
           id="path857" />
      </g>
      <g
         id="g863">
        <path
           d="m 311,2464 c -18,-8 -31,-17 -28,-20 8,-8 55,7 68,22 14,17 4,17 -40,-2 z"
           id="path861" />
      </g>
      <g
         id="g867">
        <path
           d="m 800,2451 c 0,-5 -22,-20 -50,-33 -55,-25 -67,-41 -21,-28 58,16 102,52 81,65 -5,3 -10,2 -10,-4 z"
           id="path865" />
      </g>
      <g
         id="g871">
        <path
           d="m 996,2438 c 10,-12 25,-28 32,-36 6,-7 12,-32 12,-55 0,-29 3,-38 11,-30 24,24 -28,143 -63,143 -6,0 -3,-10 8,-22 z"
           id="path869" />
      </g>
      <g
         id="g875">
        <path
           d="m 324,2430 c -12,-5 -35,-25 -53,-46 -25,-31 -31,-47 -31,-84 1,-25 7,-58 15,-75 8,-16 13,-21 11,-10 -18,86 -17,103 7,142 14,22 39,47 57,55 34,17 29,31 -6,18 z"
           id="path873" />
      </g>
      <g
         id="g879">
        <path
           d="m 994,2343 c 0,-27 -4,-59 -8,-73 l -8,-25 21,25 c 16,19 20,36 19,69 -4,60 -23,63 -24,4 z"
           id="path877" />
      </g>
      <g
         id="g883">
        <path
           d="m 197,2353 c -30,-57 -16,-173 25,-209 17,-17 18,-16 3,14 -27,54 -37,140 -19,174 8,16 13,35 11,41 -2,7 -11,-2 -20,-20 z"
           id="path881" />
      </g>
      <g
         id="g887">
        <path
           d="m 823,2189 c 11,-7 23,-7 35,0 14,9 11,10 -18,10 -29,0 -32,-1 -17,-10 z"
           id="path885" />
      </g>
      <g
         id="g891">
        <path
           d="m 765,2171 c 36,-25 103,-28 146,-5 43,22 29,28 -23,10 -43,-14 -75,-12 -133,9 -11,4 -7,-2 10,-14 z"
           id="path889" />
      </g>
      <g
         id="g895">
        <path
           d="m 290,2105 c 13,-14 26,-25 28,-25 3,0 -5,11 -18,25 -13,14 -26,25 -28,25 -3,0 5,-11 18,-25 z"
           id="path893" />
      </g>
      <g
         id="g899">
        <path
           d="m 610,2110 c 0,-5 5,-10 10,-10 6,0 10,5 10,10 0,6 -4,10 -10,10 -5,0 -10,-4 -10,-10 z"
           id="path897" />
      </g>
      <g
         id="g903">
        <path
           d="m 280,2071 c 0,-13 74,-61 117,-77 45,-16 83,-18 83,-4 0,6 -12,10 -27,10 -33,0 -122,40 -142,63 -14,18 -31,22 -31,8 z"
           id="path901" />
      </g>
      <g
         id="g907">
        <path
           d="m 640,2059 c 0,-24 -101,-89 -140,-89 -11,0 -20,-4 -20,-10 0,-16 41,-11 85,9 55,25 119,101 85,101 -5,0 -10,-5 -10,-11 z"
           id="path905" />
      </g>
      <g
         id="g911">
        <path
           d="m 885,1970 c -17,-54 -110,-77 -159,-39 -20,16 -26,17 -26,6 0,-23 23,-36 72,-43 63,-9 128,26 128,68 0,33 -6,36 -15,8 z"
           id="path909" />
      </g>
      <g
         id="g915">
        <path
           d="m 720,1973 c 0,-31 79,-59 95,-33 4,6 -7,10 -26,10 -18,0 -41,7 -51,17 -10,9 -18,12 -18,6 z"
           id="path913" />
      </g>
      <g
         id="g919">
        <path
           d="m 2156,1455 c -11,-8 -17,-17 -14,-21 7,-6 48,17 48,28 0,12 -13,9 -34,-7 z"
           id="path917" />
      </g>
      <g
         id="g923">
        <path
           d="m 2080,1450 c 0,-5 4,-10 9,-10 6,0 13,5 16,10 3,6 -1,10 -9,10 -9,0 -16,-4 -16,-10 z"
           id="path921" />
      </g>
      <g
         id="g927">
        <path
           d="m 2290,1390 c 0,-5 5,-10 11,-10 5,0 7,5 4,10 -3,6 -8,10 -11,10 -2,0 -4,-4 -4,-10 z"
           id="path925" />
      </g>
      <g
         id="g931">
        <path
           d="m 2274,1359 c -3,-5 -1,-9 5,-9 5,0 16,-3 25,-6 9,-3 16,-2 16,4 0,13 -38,23 -46,11 z"
           id="path929" />
      </g>
      <g
         id="g935">
        <path
           d="m 2040,910 c 0,-5 5,-10 10,-10 6,0 10,5 10,10 0,6 -4,10 -10,10 -5,0 -10,-4 -10,-10 z"
           id="path933" />
      </g>
      <g
         id="g939">
        <path
           d="m 2700,871 c -12,-24 -13,-61 -1,-80 6,-10 10,-10 16,-1 4,6 4,14 1,17 -3,3 0,13 7,21 10,13 9,14 -2,7 -11,-6 -13,-2 -8,23 7,36 2,41 -13,13 z"
           id="path937" />
      </g>
      <g
         id="g943">
        <path
           d="m 2700,760 c 0,-5 5,-10 10,-10 6,0 10,5 10,10 0,6 -4,10 -10,10 -5,0 -10,-4 -10,-10 z"
           id="path941" />
      </g>
      <g
         id="g947">
        <path
           d="m 2483,723 c -29,-6 -39,-34 -16,-51 16,-11 21,-9 40,14 20,25 22,46 5,43 -4,-1 -17,-4 -29,-6 z"
           id="path945" />
      </g>
      <g
         id="g951">
        <path
           d="m 1480,710 c 0,-5 7,-10 16,-10 8,0 12,5 9,10 -3,6 -10,10 -16,10 -5,0 -9,-4 -9,-10 z"
           id="path949" />
      </g>
      <g
         id="g955">
        <path
           d="m 1355,701 c -3,-5 -1,-12 5,-16 5,-3 10,1 10,9 0,18 -6,21 -15,7 z"
           id="path953" />
      </g>
      <g
         id="g959">
        <path
           d="m 1682,703 c -12,-2 -20,-8 -17,-13 3,-5 19,-7 35,-3 18,3 36,0 45,-7 12,-10 15,-10 15,3 0,8 -7,18 -16,21 -16,6 -24,6 -62,-1 z"
           id="path957" />
      </g>
      <g
         id="g963">
        <path
           d="m 1785,699 c -4,-6 -3,-15 3,-21 6,-6 11,-4 15,6 7,18 -9,31 -18,15 z"
           id="path961" />
      </g>
      <g
         id="g967">
        <path
           d="m 1530,692 c 0,-11 49,-26 58,-17 8,7 0,12 -31,20 -16,4 -27,3 -27,-3 z"
           id="path965" />
      </g>
      <g
         id="g971">
        <path
           d="m 1822,684 c 4,-21 22,-23 26,-1 2,10 -3,17 -13,17 -10,0 -15,-6 -13,-16 z"
           id="path969" />
      </g>
      <g
         id="g975">
        <path
           d="m 2540,681 c 0,-12 5,-21 10,-21 6,0 10,4 10,9 0,5 9,7 20,4 11,-3 20,0 20,6 0,6 -6,11 -14,11 -8,0 -21,3 -30,6 -12,4 -16,0 -16,-15 z"
           id="path973" />
      </g>
      <g
         id="g979">
        <path
           d="m 1785,651 c -3,-5 -1,-12 5,-16 5,-3 10,1 10,9 0,18 -6,21 -15,7 z"
           id="path977" />
      </g>
      <g
         id="g983">
        <path
           d="m 1852,651 c -7,-4 -14,-21 -15,-37 -2,-26 1,-29 31,-29 37,0 41,9 11,26 -17,9 -19,13 -8,20 9,5 10,12 4,18 -6,6 -16,7 -23,2 z"
           id="path981" />
      </g>
      <g
         id="g987">
        <path
           d="m 1640,640 c 0,-5 5,-10 10,-10 6,0 10,5 10,10 0,6 -4,10 -10,10 -5,0 -10,-4 -10,-10 z"
           id="path985" />
      </g>
      <g
         id="g991">
        <path
           d="m 2430,640 c 0,-5 4,-10 9,-10 6,0 13,5 16,10 3,6 -1,10 -9,10 -9,0 -16,-4 -16,-10 z"
           id="path989" />
      </g>
      <g
         id="g995">
        <path
           d="m 1293,627 c 1,-5 18,-11 36,-13 22,-3 31,0 29,8 -3,7 -19,13 -37,14 -18,1 -30,-3 -28,-9 z"
           id="path993" />
      </g>
      <g
         id="g999">
        <path
           d="m 1390,630 c 0,-5 7,-10 16,-10 8,0 12,5 9,10 -3,6 -10,10 -16,10 -5,0 -9,-4 -9,-10 z"
           id="path997" />
      </g>
      <g
         id="g1003">
        <path
           d="m 1600,630 c 0,-5 5,-10 11,-10 5,0 7,5 4,10 -3,6 -8,10 -11,10 -2,0 -4,-4 -4,-10 z"
           id="path1001" />
      </g>
      <g
         id="g1007">
        <path
           d="m 2610,630 c 0,-5 5,-10 10,-10 6,0 10,5 10,10 0,6 -4,10 -10,10 -5,0 -10,-4 -10,-10 z"
           id="path1005" />
      </g>
      <g
         id="g1011">
        <path
           d="m 1190,595 c 0,-28 12,-32 30,-10 14,16 6,35 -16,35 -8,0 -14,-10 -14,-25 z"
           id="path1009" />
      </g>
      <g
         id="g1015">
        <path
           d="m 1738,613 c 7,-3 16,-2 19,1 4,3 -2,6 -13,5 -11,0 -14,-3 -6,-6 z"
           id="path1013" />
      </g>
      <g
         id="g1019">
        <path
           d="m 2477,603 c 3,-8 -4,-13 -18,-13 -16,0 -20,-3 -12,-11 7,-7 23,-6 52,3 47,15 49,33 4,33 -20,0 -29,-4 -26,-12 z"
           id="path1017" />
      </g>
      <g
         id="g1023">
        <path
           d="m 2562,608 c 6,-18 28,-21 28,-4 0,9 -7,16 -16,16 -9,0 -14,-5 -12,-12 z"
           id="path1021" />
      </g>
      <g
         id="g1027">
        <path
           d="m 2615,600 c 3,-5 10,-10 16,-10 5,0 9,5 9,10 0,6 -7,10 -16,10 -8,0 -12,-4 -9,-10 z"
           id="path1025" />
      </g>
      <g
         id="g1031">
        <path
           d="m 2327,581 c -3,-11 -21,-27 -42,-35 -21,-9 -34,-20 -30,-26 4,-6 14,-8 24,-4 32,13 84,4 109,-21 25,-25 52,-33 52,-16 0,5 3,17 7,27 5,14 2,16 -15,12 -15,-4 -22,-2 -22,8 0,9 -12,14 -36,14 -20,0 -33,4 -29,10 3,5 19,7 35,3 19,-3 30,-1 30,6 0,6 -11,11 -25,11 -16,0 -25,6 -25,15 0,22 -27,18 -33,-4 z"
           id="path1029" />
      </g>
      <g
         id="g1035">
        <path
           d="m 1650,571 c 0,-10 36,-21 44,-14 3,3 3,10 0,14 -7,12 -44,12 -44,0 z"
           id="path1033" />
      </g>
      <g
         id="g1039">
        <path
           d="m 1724,555 c 0,-14 7,-25 13,-25 15,0 11,42 -4,47 -6,2 -10,-7 -9,-22 z"
           id="path1037" />
      </g>
      <g
         id="g1043">
        <path
           d="m 1880,555 c 0,-9 5,-15 11,-13 6,2 11,8 11,13 0,5 -5,11 -11,13 -6,2 -11,-4 -11,-13 z"
           id="path1041" />
      </g>
      <g
         id="g1047">
        <path
           d="m 2536,563 c -11,-11 -6,-23 9,-23 8,0 15,4 15,9 0,13 -16,22 -24,14 z"
           id="path1045" />
      </g>
      <g
         id="g1051">
        <path
           d="m 1015,549 c -8,-11 22,-38 43,-39 6,0 12,7 12,15 0,8 -7,15 -15,15 -8,0 -15,5 -15,10 0,13 -17,13 -25,-1 z"
           id="path1049" />
      </g>
      <g
         id="g1055">
        <path
           d="m 1470,540 c 0,-13 20,-13 40,0 12,8 9,10 -12,10 -16,0 -28,-4 -28,-10 z"
           id="path1053" />
      </g>
      <g
         id="g1059">
        <path
           d="m 2225,540 c 3,-5 8,-10 11,-10 2,0 4,5 4,10 0,6 -5,10 -11,10 -5,0 -7,-4 -4,-10 z"
           id="path1057" />
      </g>
      <g
         id="g1063">
        <path
           d="m 1280,530 c 0,-5 7,-10 15,-10 8,0 15,5 15,10 0,6 -7,10 -15,10 -8,0 -15,-4 -15,-10 z"
           id="path1061" />
      </g>
      <g
         id="g1067">
        <path
           d="m 1350,530 c 0,-5 7,-10 15,-10 8,0 15,5 15,10 0,6 -7,10 -15,10 -8,0 -15,-4 -15,-10 z"
           id="path1065" />
      </g>
      <g
         id="g1071">
        <path
           d="m 1550,530 c 0,-5 5,-10 10,-10 6,0 10,5 10,10 0,6 -4,10 -10,10 -5,0 -10,-4 -10,-10 z"
           id="path1069" />
      </g>
      <g
         id="g1075">
        <path
           d="m 1821,531 c -8,-5 -9,-11 -3,-15 13,-8 42,3 42,15 0,11 -21,11 -39,0 z"
           id="path1073" />
      </g>
      <g
         id="g1079">
        <path
           d="m 2470,525 c 0,-8 7,-15 15,-15 8,0 15,4 15,9 0,5 -7,11 -15,15 -9,3 -15,0 -15,-9 z"
           id="path1077" />
      </g>
      <g
         id="g1083">
        <path
           d="m 2602,528 c 5,-15 28,-18 29,-3 0,6 -7,12 -17,13 -10,3 -15,-1 -12,-10 z"
           id="path1081" />
      </g>
      <g
         id="g1087">
        <path
           d="m 1220,520 c 0,-5 7,-10 15,-10 8,0 15,5 15,10 0,6 -7,10 -15,10 -8,0 -15,-4 -15,-10 z"
           id="path1085" />
      </g>
      <g
         id="g1091">
        <path
           d="m 2520,520 c 0,-5 7,-10 15,-10 8,0 15,5 15,10 0,6 -7,10 -15,10 -8,0 -15,-4 -15,-10 z"
           id="path1089" />
      </g>
      <g
         id="g1095">
        <path
           d="m 2560,520 c 0,-5 7,-10 15,-10 8,0 15,5 15,10 0,6 -7,10 -15,10 -8,0 -15,-4 -15,-10 z"
           id="path1093" />
      </g>
      <g
         id="g1099">
        <path
           d="m 1517,513 c -4,-3 -7,-11 -7,-17 0,-6 5,-5 12,2 6,6 9,14 7,17 -3,3 -9,2 -12,-2 z"
           id="path1097" />
      </g>
      <g
         id="g1103">
        <path
           d="m 1880,510 c 0,-5 4,-10 9,-10 6,0 13,5 16,10 3,6 -1,10 -9,10 -9,0 -16,-4 -16,-10 z"
           id="path1101" />
      </g>
      <g
         id="g1107">
        <path
           d="m 1370,490 c 0,-5 7,-10 15,-10 8,0 15,5 15,10 0,6 -7,10 -15,10 -8,0 -15,-4 -15,-10 z"
           id="path1105" />
      </g>
      <g
         id="g1111">
        <path
           d="m 1680,480 c 0,-5 5,-10 10,-10 6,0 10,5 10,10 0,6 -4,10 -10,10 -5,0 -10,-4 -10,-10 z"
           id="path1109" />
      </g>
      <g
         id="g1115">
        <path
           d="m 1716,481 c -4,-5 -2,-12 3,-15 5,-4 12,-2 15,3 4,5 2,12 -3,15 -5,4 -12,2 -15,-3 z"
           id="path1113" />
      </g>
      <g
         id="g1119">
        <path
           d="m 1755,481 c -3,-5 -1,-12 5,-16 12,-7 30,2 30,16 0,12 -27,12 -35,0 z"
           id="path1117" />
      </g>
      <g
         id="g1123">
        <path
           d="m 1827,470 c -6,-24 7,-28 96,-29 41,0 65,4 62,9 -3,6 -16,10 -28,10 -12,0 -31,7 -41,15 -30,22 -82,19 -89,-5 z"
           id="path1121" />
      </g>
      <g
         id="g1127">
        <path
           d="m 2295,480 c 3,-5 10,-10 16,-10 5,0 9,5 9,10 0,6 -7,10 -16,10 -8,0 -12,-4 -9,-10 z"
           id="path1125" />
      </g>
      <g
         id="g1131">
        <path
           d="m 1250,455 c 0,-8 7,-15 15,-15 8,0 15,7 15,15 0,8 -7,15 -15,15 -8,0 -15,-7 -15,-15 z"
           id="path1129" />
      </g>
      <g
         id="g1135">
        <path
           d="m 1470,450 c 0,-5 7,-10 16,-10 8,0 12,5 9,10 -3,6 -10,10 -16,10 -5,0 -9,-4 -9,-10 z"
           id="path1133" />
      </g>
      <g
         id="g1139">
        <path
           d="m 1510,450 c 0,-5 9,-10 20,-10 11,0 20,5 20,10 0,6 -9,10 -20,10 -11,0 -20,-4 -20,-10 z"
           id="path1137" />
      </g>
      <g
         id="g1143">
        <path
           d="m 1570,450 c 0,-5 7,-10 15,-10 8,0 15,5 15,10 0,6 -7,10 -15,10 -8,0 -15,-4 -15,-10 z"
           id="path1141" />
      </g>
      <g
         id="g1147">
        <path
           d="m 2400,450 c 0,-5 18,-10 40,-10 22,0 40,5 40,10 0,6 -18,10 -40,10 -22,0 -40,-4 -40,-10 z"
           id="path1145" />
      </g>
      <g
         id="g1151">
        <path
           d="m 1295,440 c 4,-6 11,-8 16,-5 14,9 11,15 -7,15 -8,0 -12,-5 -9,-10 z"
           id="path1149" />
      </g>
      <g
         id="g1155">
        <path
           d="m 1360,440 c 0,-5 9,-10 20,-10 11,0 20,5 20,10 0,6 -9,10 -20,10 -11,0 -20,-4 -20,-10 z"
           id="path1153" />
      </g>
      <g
         id="g1159">
        <path
           d="m 822,868 c 3,-7 13,-15 24,-17 16,-3 17,-1 5,13 -16,19 -34,21 -29,4 z"
           id="path1157" />
      </g>
      <g
         id="g1163">
        <path
           d="m 175,710 c 3,-5 10,-10 16,-10 5,0 9,5 9,10 0,6 -7,10 -16,10 -8,0 -12,-4 -9,-10 z"
           id="path1161" />
      </g>
      <g
         id="g1167">
        <path
           d="m 170,670 c 0,-5 5,-10 10,-10 6,0 10,5 10,10 0,6 -4,10 -10,10 -5,0 -10,-4 -10,-10 z"
           id="path1165" />
      </g>
      <g
         id="g1171">
        <path
           d="m 310,660 c 0,-5 5,-10 11,-10 5,0 7,5 4,10 -3,6 -8,10 -11,10 -2,0 -4,-4 -4,-10 z"
           id="path1169" />
      </g>
      <g
         id="g1175">
        <path
           d="m 150,641 c 0,-9 52,-22 59,-15 6,6 -1,11 -31,18 -16,3 -28,2 -28,-3 z"
           id="path1173" />
      </g>
      <g
         id="g1179">
        <path
           d="m 240,630 c 0,-5 7,-10 16,-10 8,0 12,5 9,10 -3,6 -10,10 -16,10 -5,0 -9,-4 -9,-10 z"
           id="path1177" />
      </g>
      <g
         id="g1183">
        <path
           d="m 298,613 c 7,-3 16,-2 19,1 4,3 -2,6 -13,5 -11,0 -14,-3 -6,-6 z"
           id="path1181" />
      </g>
      <g
         id="g1187">
        <path
           d="m 212,601 c 4,-13 18,-16 19,-4 0,4 -5,9 -11,12 -7,2 -11,-2 -8,-8 z"
           id="path1185" />
      </g>
      <g
         id="g1191">
        <path
           d="m 185,552 c -3,-3 -5,-11 -5,-18 0,-15 52,-12 57,3 4,11 -43,24 -52,15 z"
           id="path1189" />
      </g>
      <g
         id="g1195">
        <path
           d="m 255,540 c 3,-5 13,-10 21,-10 8,0 14,5 14,10 0,6 -9,10 -21,10 -11,0 -17,-4 -14,-10 z"
           id="path1193" />
      </g>
      <g
         id="g1199">
        <path
           d="m 260,485 c 0,-9 5,-15 11,-13 6,2 11,8 11,13 0,5 -5,11 -11,13 -6,2 -11,-4 -11,-13 z"
           id="path1197" />
      </g>
      <g
         id="g1203">
        <path
           d="m 2792,699 c 2,-6 8,-10 13,-10 5,0 11,4 13,10 2,6 -4,11 -13,11 -9,0 -15,-5 -13,-11 z"
           id="path1201" />
      </g>
      <g
         id="g1207">
        <path
           d="m 625,619 c -4,-6 -5,-13 -2,-16 7,-7 27,6 27,18 0,12 -17,12 -25,-2 z"
           id="path1205" />
      </g>
      <g
         id="g1211">
        <path
           d="m 737,584 c -12,-12 -8,-24 7,-24 8,0 16,-6 19,-12 6,-17 14,-9 19,17 2,14 -3,21 -17,23 -12,2 -24,0 -28,-4 z"
           id="path1209" />
      </g>
      <g
         id="g1215">
        <path
           d="m 680,560 c 0,-5 7,-10 15,-10 8,0 15,5 15,10 0,6 -7,10 -15,10 -8,0 -15,-4 -15,-10 z"
           id="path1213" />
      </g>
      <g
         id="g1219">
        <path
           d="m 632,506 c 1,-10 8,-17 13,-17 15,1 12,24 -3,29 -9,3 -13,-2 -10,-12 z"
           id="path1217" />
      </g>
      <g
         id="g1223">
        <path
           d="m 720,490 c 0,-5 5,-10 10,-10 6,0 10,5 10,10 0,6 -4,10 -10,10 -5,0 -10,-4 -10,-10 z"
           id="path1221" />
      </g>
      <g
         id="g1227">
        <path
           d="m 535,331 c -7,-7 -7,-41 -1,-100 5,-49 6,-97 3,-105 -4,-9 -5,-20 -4,-24 4,-12 167,-8 167,4 0,6 7,17 15,24 8,7 15,16 15,21 0,15 -27,10 -40,-7 -9,-10 -26,-14 -49,-12 -35,3 -36,5 -39,46 -3,38 11,59 20,30 6,-17 28,0 28,22 0,22 -16,35 -25,20 -13,-21 -25,-9 -25,25 0,33 2,35 35,35 24,0 35,-5 35,-15 0,-21 17,-19 30,4 14,28 13,30 -17,29 -16,-1 -53,1 -83,5 -34,5 -59,4 -65,-2 z"
           id="path1225" />
      </g>
      <g
         id="g1231">
        <path
           d="m 1024,329 c -2,-4 3,-12 11,-19 20,-16 22,-189 3,-209 -11,-10 -5,-12 27,-9 l 40,3 v 60 59 l 44,8 c 72,12 102,56 64,91 -13,11 -43,16 -101,19 -46,2 -86,0 -88,-3 z m 154,-51 c -3,-30 -6,-33 -40,-36 -37,-3 -38,-3 -38,32 0,35 1,36 41,36 39,0 40,-1 37,-32 z"
           id="path1229" />
      </g>
      <g
         id="g1235">
        <path
           d="m 2012,334 c -10,-5 -10,-8 2,-18 13,-10 10,-24 -27,-108 -23,-54 -48,-98 -54,-98 -7,0 -13,-5 -13,-11 0,-17 55,-6 56,11 0,8 5,28 12,43 7,16 12,32 12,37 0,12 27,20 69,20 37,0 39,-2 53,-47 11,-33 13,-52 6,-60 -8,-10 -2,-13 26,-13 20,0 36,5 36,11 0,10 -60,222 -63,225 -7,6 -105,12 -115,8 z m 72,-41 c 2,-10 7,-28 11,-39 5,-18 1,-22 -25,-26 -39,-6 -44,3 -29,47 14,38 35,46 43,18 z"
           id="path1233" />
      </g>
      <g
         id="g1239">
        <path
           d="m 2284,329 c -38,-11 -80,-51 -88,-85 -9,-34 10,-100 35,-123 35,-32 118,-41 139,-16 12,14 8,15 -26,9 -61,-9 -88,17 -88,89 -1,45 3,60 23,81 32,34 73,36 69,4 -4,-33 14,-35 32,-5 10,17 11,29 5,35 -16,15 -67,20 -101,11 z"
           id="path1237" />
      </g>
      <g
         id="g1243">
        <path
           d="m 2419,337 c 0,-1 -1,-57 -2,-125 l -2,-122 h 73 c 69,0 73,1 83,26 13,36 2,44 -21,16 -15,-17 -27,-23 -52,-20 l -32,3 3,100 c 2,62 7,103 14,107 7,4 8,8 2,9 -5,0 -22,2 -37,4 -16,2 -28,3 -29,2 z"
           id="path1241" />
      </g>
      <g
         id="g1247">
        <path
           d="m 2585,330 c -3,-5 2,-13 11,-18 14,-8 15,-21 7,-103 -4,-52 -8,-100 -8,-108 0,-12 13,-14 60,-12 68,3 90,12 98,41 7,27 -10,36 -18,10 -5,-17 -14,-21 -43,-18 -36,3 -37,4 -40,51 -2,36 0,47 12,47 8,0 18,-5 21,-10 10,-16 25,-1 25,26 0,24 -14,32 -25,14 -3,-5 -13,-10 -21,-10 -10,0 -14,12 -14,40 0,39 1,40 35,40 19,0 35,-4 35,-10 0,-5 5,-10 10,-10 6,0 10,9 10,20 0,18 -6,20 -75,19 -41,-1 -77,-5 -80,-9 z"
           id="path1245" />
      </g>
      <g
         id="g1251">
        <path
           d="m 2805,329 c -26,-16 -35,-29 -35,-56 0,-27 47,-55 78,-47 25,7 45,-24 40,-64 -2,-21 -9,-28 -30,-30 -24,-3 -28,0 -28,22 0,33 -27,35 -39,4 -24,-66 -26,-63 40,-62 52,1 65,5 85,27 50,55 16,137 -58,137 -39,0 -49,27 -19,52 27,21 41,23 41,5 0,-7 9,-18 20,-25 17,-10 21,-10 27,3 3,9 2,20 -4,26 -15,15 -96,21 -118,8 z"
           id="path1249" />
      </g>
      <g
         id="g1255">
        <path
           d="m 80,318 c 0,-4 7,-8 16,-8 19,0 17,-8 -20,-95 -14,-33 -26,-68 -26,-77 0,-10 -7,-18 -15,-18 -8,0 -15,-7 -15,-15 0,-10 11,-15 35,-15 36,0 43,8 25,26 -7,7 -6,23 3,50 13,36 17,39 52,39 38,0 39,-1 51,-48 7,-26 11,-51 11,-55 -1,-4 10,-8 26,-10 30,-4 50,24 26,38 -15,10 -37,105 -38,163 l -1,38 -65,-2 c -36,-1 -65,-6 -65,-11 z m 80,-43 c 0,-14 1,-28 3,-32 1,-5 -8,-9 -20,-11 -25,-4 -30,16 -13,49 15,27 30,24 30,-6 z"
           id="path1253" />
      </g>
      <g
         id="g1259">
        <path
           d="M 353,319 C 272,295 242,191 299,128 c 27,-30 34,-33 89,-33 61,1 92,15 92,42 0,11 -5,13 -17,7 -10,-5 -38,-8 -62,-8 -67,0 -104,51 -85,120 7,25 43,44 85,44 25,0 29,-3 24,-19 -8,-25 9,-35 35,-21 16,8 19,17 14,33 -8,27 -2,24 -49,30 -22,3 -54,1 -72,-4 z"
           id="path1257" />
      </g>
      <g
         id="g1263">
        <path
           d="m 1250,320 c 0,-5 5,-10 11,-10 7,0 10,-35 7,-109 l -3,-110 73,3 c 51,3 79,8 90,20 22,22 7,33 -17,12 -12,-11 -31,-16 -53,-14 -32,3 -33,5 -36,51 -3,41 -1,47 17,47 11,0 23,-4 26,-10 12,-20 25,-9 25,20 0,32 -9,37 -27,19 -22,-22 -43,-2 -41,36 3,32 5,35 36,35 17,0 32,-4 32,-10 0,-5 7,-10 15,-10 8,0 15,9 15,20 0,18 -7,20 -85,20 -50,0 -85,-4 -85,-10 z"
           id="path1261" />
      </g>
      <g
         id="g1267">
        <path
           d="m 1483,316 c 3,-8 9,-57 13,-110 5,-69 4,-96 -5,-96 -6,0 -11,-4 -11,-10 0,-5 12,-9 28,-8 36,2 45,7 34,21 -5,7 -6,34 -3,62 l 6,49 19,-29 c 37,-57 81,-105 97,-105 14,0 17,16 21,100 2,60 9,105 16,112 21,21 13,28 -27,28 h -40 l 15,-27 c 14,-29 20,-143 7,-143 -14,1 -104,128 -106,149 -1,17 -8,21 -35,21 -25,0 -33,-4 -29,-14 z"
           id="path1265" />
      </g>
      <g
         id="g1271">
        <path
           d="m 1737,323 c -4,-3 -7,-12 -7,-20 0,-10 10,-12 39,-7 l 38,6 7,-45 c 4,-24 4,-71 0,-104 l -6,-60 h 31 30 l 3,106 3,106 28,3 c 17,2 29,-2 33,-12 8,-21 24,-10 24,15 0,18 -8,19 -108,19 -60,0 -112,-3 -115,-7 z"
           id="path1269" />
      </g>
      <g
         id="g1275">
        <path
           d="m 796,157 c -10,-7 -17,-22 -15,-33 5,-25 51,-31 73,-8 16,15 16,18 0,35 -20,22 -34,24 -58,6 z"
           id="path1273" />
      </g>
    </g>
    <g
       id="g1281">
      <path
         d="m 98,4069 c -14,-6 -29,-17 -32,-26 -10,-25 0,-27 23,-4 25,25 63,27 81,6 16,-19 30,-19 30,0 0,30 -51,42 -102,24 z"
         id="path1279" />
    </g>
    <g
       id="g1285">
      <path
         d="m 82,4008 c -7,-7 -12,-16 -12,-20 0,-15 15,-8 28,12 13,22 3,27 -16,8 z"
         id="path1283" />
    </g>
    <g
       id="g1289">
      <path
         d="m 2993,3900 c 0,-30 2,-43 4,-27 2,15 2,39 0,55 -2,15 -4,2 -4,-28 z"
         id="path1287" />
    </g>
    <g
       id="g1293">
      <path
         d="m 148,3783 c 7,-3 16,-2 19,1 4,3 -2,6 -13,5 -11,0 -14,-3 -6,-6 z"
         id="path1291" />
    </g>
    <g
       id="g1297">
      <path
         d="m 90,3770 -25,-8 28,-1 c 15,-1 27,4 27,9 0,6 -1,10 -2,9 -2,-1 -14,-5 -28,-9 z"
         id="path1295" />
    </g>
    <g
       id="g1301">
      <path
         d="m 190,3742 c 40,-20 49,-19 30,3 -7,8 -24,15 -39,15 -25,0 -24,-1 9,-18 z"
         id="path1299" />
    </g>
    <g
       id="g1305">
      <path
         d="m 220,3674 c 0,-8 5,-12 10,-9 6,4 8,11 5,16 -9,14 -15,11 -15,-7 z"
         id="path1303" />
    </g>
    <g
       id="g1309">
      <path
         d="m 440,3571 c -5,-11 -10,-25 -10,-32 0,-7 -7,-20 -16,-30 -21,-23 -12,-62 21,-94 32,-33 63,-39 129,-25 62,13 75,30 22,30 -97,0 -164,80 -126,151 7,12 7,19 1,19 -6,0 -15,-9 -21,-19 z m 62,-156 c 31,-13 32,-14 7,-15 -24,0 -57,27 -73,60 -4,8 1,5 12,-8 11,-12 35,-29 54,-37 z"
         id="path1307" />
    </g>
    <g
       id="g1313">
      <path
         d="m 83,3208 c -13,-6 -23,-15 -23,-20 0,-13 13,-9 40,12 27,21 18,25 -17,8 z"
         id="path1311" />
    </g>
    <g
       id="g1317">
      <path
         d="m 66,3125 c -29,-27 -32,-51 -11,-79 14,-18 15,-17 15,21 0,33 5,45 28,62 19,14 22,20 11,21 -9,0 -28,-11 -43,-25 z"
         id="path1315" />
    </g>
    <g
       id="g1321">
      <path
         d="m 97,3102 c -19,-20 -23,-52 -7,-52 5,0 12,11 16,25 3,14 14,30 23,35 14,8 14,9 0,10 -9,0 -23,-8 -32,-18 z"
         id="path1319" />
    </g>
    <g
       id="g1325">
      <path
         d="m 70,3010 c 0,-7 24,-20 36,-20 13,0 1,19 -16,23 -11,3 -20,2 -20,-3 z"
         id="path1323" />
    </g>
    <g
       id="g1329">
      <path
         d="m 2288,1663 c 7,-3 16,-2 19,1 4,3 -2,6 -13,5 -11,0 -14,-3 -6,-6 z"
         id="path1327" />
    </g>
    <g
       id="g1333">
      <path
         d="m 2840,1460 c 0,-5 5,-10 11,-10 5,0 7,5 4,10 -3,6 -8,10 -11,10 -2,0 -4,-4 -4,-10 z"
         id="path1331" />
    </g>
    <g
       id="g1337">
      <path
         d="m 2872,1433 c 2,-11 14,-19 31,-21 22,-3 27,1 27,17 0,17 -6,21 -31,21 -24,0 -30,-4 -27,-17 z"
         id="path1335" />
    </g>
    <g
       id="g1341">
      <path
         d="m 2560,1380 c 0,-5 5,-10 10,-10 6,0 10,5 10,10 0,6 -4,10 -10,10 -5,0 -10,-4 -10,-10 z"
         id="path1339" />
    </g>
    <g
       id="g1345">
      <path
         d="m 1490,1339 c -17,-14 -21,-22 -12,-26 6,-2 12,-14 12,-26 0,-21 1,-21 18,-3 13,14 14,20 4,23 -10,4 -10,8 -1,19 20,24 5,34 -21,13 z"
         id="path1343" />
    </g>
    <g
       id="g1349">
      <path
         d="m 500,1288 -22,-30 21,-19 c 11,-10 23,-19 26,-19 15,0 31,27 33,56 3,45 -29,52 -58,12 z"
         id="path1347" />
    </g>
    <g
       id="g1353">
      <path
         d="m 216,1265 c -8,-32 -1,-45 24,-45 28,0 34,18 16,45 -21,32 -32,32 -40,0 z"
         id="path1351" />
    </g>
    <g
       id="g1357">
      <path
         d="m 410,1280 c 0,-5 5,-10 11,-10 5,0 7,5 4,10 -3,6 -8,10 -11,10 -2,0 -4,-4 -4,-10 z"
         id="path1355" />
    </g>
    <g
       id="g1361">
      <path
         d="m 1048,1263 c 7,-3 16,-2 19,1 4,3 -2,6 -13,5 -11,0 -14,-3 -6,-6 z"
         id="path1359" />
    </g>
    <g
       id="g1365">
      <path
         d="m 956,1222 c -3,-5 2,-20 12,-33 24,-29 36,-11 13,20 -11,14 -21,19 -25,13 z"
         id="path1363" />
    </g>
    <g
       id="g1369">
      <path
         d="m 1217,1200 c -4,-16 0,-20 19,-20 26,0 30,10 12,28 -17,17 -25,15 -31,-8 z"
         id="path1367" />
    </g>
  </g>
</svg>
