<?xml version="1.0" standalone="no"?>
<!DOCTYPE svg PUBLIC "-//W3C//DTD SVG 20010904//EN"
 "http://www.w3.org/TR/2001/REC-SVG-20010904/DTD/svg10.dtd">
<svg version="1.0" xmlns="http://www.w3.org/2000/svg"
 width="41.000000pt" height="57.000000pt" viewBox="0 0 41.000000 57.000000"
 preserveAspectRatio="xMidYMid meet">

<g transform="translate(0.000000,57.000000) scale(0.100000,-0.100000)"
fill="#000000" stroke="none">
<path d="M170 556 c-51 -14 -160 -83 -160 -101 0 -12 45 -55 57 -55 4 0 17
-10 30 -22 l23 -22 28 25 c52 48 142 68 142 32 0 -33 -57 -138 -94 -172 l-36
-35 -24 23 -25 23 -6 -38 c-8 -46 -40 -171 -50 -197 -7 -16 3 -17 116 -17 144
0 158 5 140 47 -11 27 -9 34 23 81 75 112 91 236 42 336 -32 64 -84 106 -131
105 -16 0 -50 -6 -75 -13z m44 -63 c-7 -65 -11 -73 -20 -49 -9 22 5 106 17
106 7 0 8 -21 3 -57z m41 40 c-2 -10 -7 -35 -10 -56 -3 -21 -10 -35 -16 -32
-5 4 -7 17 -4 31 3 13 7 35 10 49 3 14 9 25 14 25 5 0 8 -8 6 -17z m25 -28
c-4 -5 -10 -19 -13 -30 -4 -16 -5 -16 -6 5 0 14 2 36 6 49 6 23 7 23 13 5 4
-10 4 -23 0 -29z m-95 16 c-3 -11 -7 -38 -8 -60 -1 -39 -27 -69 -27 -32 0 54
14 111 27 111 10 0 12 -6 8 -19z m144 -7 c48 -61 64 -112 59 -187 -5 -83 -51
-192 -94 -226 -24 -19 -25 -21 -10 -43 9 -12 16 -26 16 -29 0 -15 -65 -21
-145 -14 l-82 7 25 98 c25 97 26 98 47 84 21 -14 25 -12 64 32 24 25 54 70 68
100 21 46 24 66 21 129 -2 41 0 75 4 75 4 0 16 -12 27 -26z m-183 0 c-3 -9 -6
-37 -6 -62 0 -26 -5 -54 -10 -62 -8 -13 -11 -13 -26 1 -13 14 -15 27 -9 68 10
76 25 72 20 -6 l-4 -68 11 73 c6 39 15 72 20 72 6 0 7 -7 4 -16z m-65 -70 c-9
-38 -9 -38 -10 -7 -1 33 10 74 16 57 2 -6 -1 -28 -6 -50z m-25 -11 c-3 -3 -12
2 -21 10 -14 14 -14 17 2 26 14 8 19 6 21 -10 2 -12 1 -23 -2 -26z m231 25
c-3 -8 -6 -5 -6 6 -1 11 2 17 5 13 3 -3 4 -12 1 -19z"/>
</g>
</svg>
