<?xml version="1.0" encoding="UTF-8" standalone="no"?>
<svg
   version="1.0"
   width="300.000000pt"
   height="519.000000pt"
   viewBox="0 0 300.000000 519.000000"
   preserveAspectRatio="xMidYMid meet"
   id="svg198"
   sodipodi:docname="arcana_0_fool.svg"
   inkscape:version="1.2.1 (9c6d41e, 2022-07-14)"
   xmlns:inkscape="http://www.inkscape.org/namespaces/inkscape"
   xmlns:sodipodi="http://sodipodi.sourceforge.net/DTD/sodipodi-0.dtd"
   xmlns="http://www.w3.org/2000/svg"
   xmlns:svg="http://www.w3.org/2000/svg">
  <defs
     id="defs202" />
  <sodipodi:namedview
     id="namedview200"
     pagecolor="#ffffff"
     bordercolor="#000000"
     borderopacity="0.25"
     inkscape:showpageshadow="2"
     inkscape:pageopacity="0.0"
     inkscape:pagecheckerboard="0"
     inkscape:deskcolor="#d1d1d1"
     inkscape:document-units="pt"
     showgrid="false"
     inkscape:zoom="0.84738151"
     inkscape:cx="294.43645"
     inkscape:cy="372.32344"
     inkscape:window-width="1920"
     inkscape:window-height="1027"
     inkscape:window-x="1920"
     inkscape:window-y="25"
     inkscape:window-maximized="0"
     inkscape:current-layer="layer1" />
  <metadata
     id="metadata2">
Created by potrace 1.15, written by Peter Selinger 2001-2017
</metadata>
  <g
     inkscape:groupmode="layer"
     id="layer1"
     inkscape:label="sky">
    <path
       id="path546"
       style="fill:#00ffff;stroke-width:0.789054"
       d="M 281.40234,4.2109375 C 254.16064,4.352755 211.16508,4.7853079 147.55273,5.5332031 113.70237,5.9311844 68.383776,6.267651 46.845703,6.2832031 L 7.6855469,6.3125 7.0371094,63.716797 C 6.1757154,139.90048 6.1441143,253.67292 6.9824219,257.62695 l 0.6679687,3.1543 1.8613282,-3.65039 c 2.0462082,-4.01416 10.6681432,-12.31165 13.5429692,-13.0332 1.05362,-0.26443 3.688636,0.3033 6.261718,1.34765 l 4.441407,1.80274 3.634765,-1.91211 c 1.999121,-1.05171 10.914893,-6.4869 19.8125,-12.07813 8.897607,-5.59122 28.426164,-17.85246 43.398442,-27.24609 30.65209,-19.23121 35.07295,-22.30985 38.79882,-27.01758 5.36984,-6.78488 7.60785,-8.47141 13.52344,-10.19336 9.22574,-2.68549 13.98226,-4.78101 20.0332,-8.82812 9.76976,-6.53442 10.95224,-10.05079 4.97461,-14.78516 -3.16957,-2.51036 -4.87331,-7.72022 -2.78503,-7.72022 1.31868,0.51688 1.28478,-2.58996 2.31219,-3.5649 1.47691,-1.3883 3.44954,-4.05689 4.38281,-5.92968 0.9768,-1.9601 2.8515,-4.08829 4.41992,-5.01368 1.68034,-0.99142 2.88503,-2.40709 3.14258,-3.69531 1.19791,-5.99186 2.98936,-10.41364 5.30273,-13.08984 2.60892,-3.01807 4.16117,-3.44628 15.72852,-4.34375 0.30159,-0.0234 2.01637,-1.60919 3.81055,-3.523439 5.77794,-6.164625 18.35012,-10.173618 29.44531,-9.390625 5.04004,0.355681 7.52849,0.158369 10.41797,-0.826172 2.08775,-0.711371 5.28642,-1.294922 7.10937,-1.294922 2.94318,0 3.42491,-0.266285 4.30078,-2.380859 0.5425,-1.309726 2.40509,-3.503523 4.13672,-4.875 1.73164,-1.371479 4.19061,-4.186907 5.46485,-6.257813 1.27425,-2.070906 3.09628,-3.985459 4.04883,-4.253906 0.95255,-0.268448 2.89501,-1.082831 4.3164,-1.808594 2.3473,-1.198526 2.78163,-1.207799 4.73438,-0.101562 2.5822,1.462828 2.67328,3.429888 0.51757,11.15625 -0.811,2.906775 -1.254,5.505775 -0.98242,5.777343 0.27157,0.271576 1.57577,-0.06508 2.89649,-0.748047 3.48139,-1.800305 4.8457,-1.589722 4.8457,0.744141 0,1.09152 1.041,3.843418 2.3125,6.115234 2.65814,4.749349 4.33978,12.806941 3.59375,17.222661 -0.66867,3.95786 -4.47297,7.31672 -9.71484,8.57421 -4.75324,1.14029 -8.262,-0.0459 -8.67383,-2.93359 -0.36604,-2.56658 -1.46467,-2.1696 -2.47656,0.89649 -0.48397,1.46645 -1.57806,3.29765 -2.42969,4.06835 -0.85161,0.7707 -1.54883,2.0685 -1.54883,2.88282 0,0.81431 -0.49269,1.66899 -1.0957,1.90039 -0.62984,0.24172 -0.92871,1.06542 -0.70117,1.93554 0.70961,2.71356 -0.49553,5.27778 -4.5918,9.75977 -5.85564,6.40699 -7.07576,5.69574 -3.48047,-2.02734 1.08072,-2.32149 1.94016,-5.28596 1.91016,-6.58789 -0.03,-1.30195 -0.23424,-1.92333 -0.45313,-1.38086 -0.8499,2.10628 -1.95342,0.90764 -1.45312,-1.57813 0.95667,-4.75335 1.28052,-5.32512 3.01562,-5.32812 1.95829,-0.003 6.84961,-2.75835 6.84961,-3.85743 0,-0.39974 -0.76978,-0.52541 -1.71094,-0.27929 -1.44461,0.37778 -1.61079,0.21224 -1.07226,-1.06055 3.12814,-7.39329 3.22343,-8.03701 1.48242,-9.94922 -0.90965,-0.99911 -1.84798,-2.34903 -2.08594,-2.999998 -0.30612,-0.837406 -0.45209,-0.713919 -0.49609,0.417969 -0.0343,0.879899 0.50173,2.404029 1.1914,3.388669 1.69287,2.41691 1.02829,3.69516 -2.99023,5.74219 -5.93831,3.02497 -30.66822,19.66135 -31.16992,20.96875 -0.26532,0.69142 -0.0649,3.95178 0.44726,7.24609 0.86835,5.58543 0.82351,6.1364 -0.66406,8.14844 -0.87737,1.18672 -1.59375,3.28387 -1.59375,4.66016 0,2.42712 0.0845,2.48697 2.80859,2.04492 2.76353,-0.44847 2.80467,-0.41364 2.56446,2.06836 -0.16814,1.7373 -0.80963,2.7671 -2.0586,3.31055 -1.17677,0.51204 -1.6877,1.27436 -1.45507,2.16992 0.55305,2.12908 -0.64006,2.33894 -5.40039,0.95508 -5.52252,-1.60544 -7.23439,-1.12683 -3.13282,0.875 3.86735,1.88748 4.19644,4.19912 0.75586,5.31836 -1.30194,0.42353 -3.43243,1.51902 -4.73437,2.43359 -3.5693,2.50733 -8.28954,2.124 -12.77149,-1.03516 -3.56855,-1.16326 4.74272,6.13941 8.09571,7.82617 13.46602,6.74346 24.71934,13.91227 33.87109,21.57618 3.55197,2.97451 7.59009,5.63157 9.23633,6.07812 3.30705,0.89706 4.37321,2.05453 3.08203,3.3457 -0.645,0.645 -2.41387,0.49538 -6.66211,-0.5625 -4.56875,-1.1377 -6.14466,-1.24866 -7.49609,-0.52539 -2.37776,1.27254 -2.13674,2.43946 0.5039,2.43946 1.68228,0 2.421,0.52176 3.07227,2.16992 l 0.85742,2.16992 0.084,-2.16992 c 0.0691,-1.78753 0.44391,-2.16992 2.12891,-2.16992 1.125,0 2.93646,0.7001 4.02539,1.55664 1.08894,0.85654 3.27402,1.76607 4.85742,2.02148 1.5834,0.25541 5.36449,1.3025 8.40235,2.32617 4.76227,1.60474 7.53507,1.91501 20.12109,2.25586 14.26873,0.38643 14.71218,0.34974 19.66211,-1.62304 4.02126,-1.60266 5.35853,-1.83274 6.49805,-1.1211 0.78925,0.4929 2.24031,0.88259 3.22265,0.86719 l 1.78516,-0.0273 -1.88086,-1.04297 c -2.01507,-1.11695 -1.7163,-1.54508 1.64453,-2.34766 1.17221,-0.27993 5.07812,-2.28077 8.67969,-4.44726 3.60157,-2.16651 7.79162,-4.1397 9.31055,-4.38477 4.73283,-0.76363 6.44614,-1.77134 6.16992,-3.62695 -0.13812,-0.92794 -0.86313,-2.06936 -1.60938,-2.53711 -1.10018,-0.68958 -1.88254,-0.33895 -4.14258,1.85156 -3.04534,2.95168 -4.08081,2.68425 -4.5,-1.16211 -0.22621,-2.07568 -0.67077,-2.45952 -3.61132,-3.11133 -2.41508,-0.53533 -3.35352,-1.13611 -3.35352,-2.15039 0,-1.70995 2.73028,-3.61012 6.18359,-4.30078 1.40316,-0.28063 2.91926,-1.19428 3.36719,-2.03125 0.50664,-0.94666 1.46394,-1.42985 2.53516,-1.27734 1.40747,0.20036 1.71407,0.75054 1.67187,3.00781 -0.0284,1.51893 -0.20597,3.24898 -0.39453,3.8457 -0.40748,1.28956 3.45483,2.84267 5.30469,2.13282 2.07561,-0.79648 1.01136,-7.8786 -1.5918,-10.59571 -2.57958,-2.69251 -2.60754,-3.27344 -0.16406,-3.27344 1.23109,0 2.10025,-0.57034 2.42383,-1.58984 0.59739,-1.88223 1.96875,-1.32433 1.96875,0.80078 0,1.93851 1.21195,2.6295 3.57226,2.03711 3.94394,-0.98987 4.40144,-6.04754 0.69922,-7.73437 -2.04161,-0.93022 -2.69744,-2.66676 -0.7207,-1.90821 0.79086,0.30348 1.18359,-0.0321 1.18359,-1.01367 0,-2.24489 2.55302,-2.84311 3.84375,-0.90039 0.59541,0.89617 1.85953,1.62891 2.8086,1.62891 3.16098,0 4.67686,1.79865 4.10156,4.86523 -0.5137,2.73827 -2.90967,5.48944 -6.96875,8.00391 -2.32736,1.44172 -6.66773,8.18384 -5.81641,9.03515 0.95912,0.95912 3.18999,-1.11592 3.91407,-3.64062 0.43064,-1.5016 1.23054,-2.48242 2.02343,-2.48242 0.72086,0 2.51381,-0.88771 3.98438,-1.97266 4.71731,-3.48032 7.34483,-1.7689 4.19336,2.73047 -0.73091,1.04351 -1.73323,3.69513 -2.22852,5.89453 -1.08857,4.83409 -2.99547,5.70714 -4.50586,2.0625 l -1.00976,-2.4375 -2.95118,2.01172 c -5.11427,3.48901 -6.96515,9.71709 -3.75195,12.625 0.87062,0.7879 1.76737,1.24825 1.99219,1.02344 0.22481,-0.22482 -0.13152,-0.85729 -0.79297,-1.40625 -1.15433,-0.95801 -1.68373,-3.17188 -0.75781,-3.17188 1.88471,0 7.44531,4.43278 7.44531,5.93555 0,0.50942 -1.46564,1.58725 -3.25586,2.39453 -1.79021,0.80727 -2.85972,1.59885 -2.37695,1.75977 1.59167,0.53056 9.57812,-3.61721 9.57812,-4.97461 0,-1.76005 2.66536,-1.16723 3.01953,0.67187 0.15152,0.78676 -0.37828,2.15271 -1.17578,3.03516 -0.7975,0.88245 -1.33617,2.29316 -1.19726,3.13281 0.4228,2.55574 -3.45852,8.21662 -6.68164,9.74609 -2.46285,1.1687 -4.26416,1.31555 -11.26953,0.91602 -4.58654,-0.26158 -10.47036,-0.70615 -13.07422,-0.98633 -4.47182,-0.48118 -4.86046,-0.38359 -7.01953,1.75195 -3.06237,3.02899 -5.11782,7.8453 -5.49024,12.8711 -0.20793,2.80588 -0.82259,4.65073 -1.91406,5.74219 -1.50825,1.50824 -1.92636,1.54797 -6.75586,0.63671 -2.83149,-0.53426 -5.5271,-0.73741 -5.99024,-0.45117 -1.36149,0.84146 -0.98026,3.90901 1.22461,9.85742 l 2.06641,5.57422 -1.80859,4.83594 c -1.77499,4.74627 -1.78033,4.85583 -0.29102,5.87891 9.11906,6.26435 9.60483,7.00418 6.98828,10.68164 -1.50303,2.11249 -1.83036,3.30327 -1.43945,5.25781 0.27798,1.38988 0.98473,2.52734 1.57031,2.52734 0.58558,0 1.60924,1.05151 2.27344,2.33594 1.17175,2.26591 1.39963,2.34214 7.68555,2.56445 l 6.47851,0.22852 0.7207,3.05469 c 0.49624,2.10449 1.42186,3.45328 2.98047,4.33984 1.24379,0.70748 2.26363,1.72355 2.26563,2.25977 0.005,0.9322 -7.11147,4.92068 -10.84961,6.08008 -2.12489,0.65903 -8.08203,-1.73655 -8.08203,-3.25 0,-0.56201 1.42034,-1.91979 3.15625,-3.01563 1.73592,-1.09583 3.15625,-2.31571 3.15625,-2.71094 0,-0.39524 0.96552,-1.8644 2.14453,-3.26562 l 2.14258,-2.54883 -3.09375,0.58203 c -1.70159,0.31922 -5.5946,2.237 -8.65235,4.26172 -6.96093,4.60921 -6.46875,4.42614 -6.95507,2.56641 -0.24124,-0.92251 -1.34387,-1.78397 -2.66407,-2.08008 -3.64668,-0.81793 -8.96093,-2.8909 -8.96093,-3.4961 0,-1.53455 3.48815,-3.35239 7.46875,-3.89257 2.4492,-0.33236 4.97991,-1.13031 5.62304,-1.77344 1.03306,-1.03306 0.43661,-1.32691 -5.11328,-2.51953 -5.36757,-1.15343 -6.63591,-1.75218 -8.70898,-4.11328 -3.97062,-4.52229 -2.91998,-7.45204 2.66406,-7.43164 1.75762,0.006 4.08302,0.52479 5.16797,1.15234 3.63413,2.10204 4.04683,2.20695 4.98437,1.25391 0.721,-0.73293 0.43105,-1.38564 -1.27929,-2.86719 -1.21764,-1.05476 -2.89591,-1.91797 -3.72852,-1.91797 -2.54226,0 -4.17669,-4.2758 -3.59375,-9.40039 0.27578,-2.4244 0.49528,-5.21807 0.48828,-6.20899 -0.0188,-2.55879 -2.096,-6.25249 -4.3457,-7.72656 -1.74792,-1.14522 -2.29929,-1.14721 -6.1582,-0.0254 -4.37192,1.27095 -7.42723,3.69221 -6.51758,5.16406 0.80561,1.3035 -0.83826,0.98797 -1.97266,-0.3789 -0.69299,-0.835 -1.71618,-1.06388 -3.25195,-0.72657 -1.75085,0.38455 -2.24219,0.2091 -2.24219,-0.80078 0,-0.71108 -0.35508,-1.0729 -0.78906,-0.80468 -1.37942,0.85252 -0.86471,2.03877 1.97265,4.55078 3.57695,3.16678 3.68356,5.97449 0.33399,8.79297 -1.33523,1.12351 -3.11904,2.04101 -3.96485,2.04101 -1.45799,0 -1.47271,0.12438 -0.30078,2.39063 1.29567,2.50555 1.12848,3.22429 -1.39648,6.0332 -1.61042,1.79152 -1.3072,3.41211 0.63867,3.41211 1.54533,0 7.2909,5.29005 8.69531,8.00586 1.06339,2.05636 1.01821,2.28383 -0.64453,3.35937 -0.98092,0.63451 -2.78454,1.39978 -4.00976,1.70118 -3.55806,0.87527 -1.42964,1.79452 5.38281,2.32226 3.47184,0.26895 7.11144,0.65048 8.08789,0.84961 2.40262,0.48999 2.30492,3.03549 -0.25977,6.73633 -2.38853,3.44664 -2.3576,6.68831 0.0625,6.47851 0.86796,-0.0752 2.99846,-0.50991 4.73438,-0.96679 1.73591,-0.45688 5.69305,-0.83931 8.79297,-0.84961 5.89529,-0.0197 6.59375,0.40251 6.59375,3.99023 0,2.57688 2.82917,4.66992 6.3125,4.66992 2.21351,0 3.15625,0.33809 3.15625,1.13086 0,0.62172 0.71799,1.35815 1.5957,1.63672 2.7037,0.85812 6.23164,-0.41216 8.96875,-3.23047 1.93571,-1.99312 3.29093,-2.69336 5.2207,-2.69336 2.47565,0 2.54281,-0.0731 1.30274,-1.44336 -1.61502,-1.78457 -1.64881,-2.81444 -0.13086,-4.07421 0.74412,-0.61759 1.00208,-1.66627 0.70312,-2.85743 -0.39506,-1.57401 -0.17566,-1.88281 1.33789,-1.88281 0.99553,0 2.59395,0.73587 3.55079,1.63477 1.67113,1.56995 1.90069,1.58619 5.84765,0.41406 3.58615,-1.065 4.38545,-1.07714 6.28711,-0.0937 2.32511,1.20236 4.43943,5.17906 3.73242,7.02148 -1.14706,2.98919 -8.75506,6.80469 -13.56836,6.80469 -1.40154,0 -3.83352,0.88151 -5.4414,1.97266 -1.59877,1.08494 -3.44525,1.97265 -4.10547,1.97265 -0.66023,0 -1.90966,0.37847 -2.77539,0.8418 -1.13225,0.60596 -3.16551,0.56545 -7.2461,-0.14453 -3.12004,-0.54287 -10.82254,-1.04424 -17.11523,-1.11523 -13.10923,-0.14798 -20.29025,-1.82529 -32.35156,-7.55665 -9.21959,-4.38101 -10.62495,-5.59851 -21.17383,-18.33398 -12.99146,-15.68435 -16.00103,-19.74675 -22.04102,-29.74805 -9.51891,-15.76188 -9.02845,-14.57756 -10.03711,-24.18554 -0.51004,-4.85835 -1.38009,-9.37996 -1.93359,-10.04688 -1.27219,-1.5329 -2.45716,-0.75915 -7.17578,4.67774 -1.88324,2.16988 -3.89088,3.89428 -4.46094,3.83398 -0.57006,-0.0603 -1.03515,0.33053 -1.03515,0.86719 0,0.53665 -2.87555,4.31412 -6.38868,8.39453 -3.51313,4.08039 -7.51716,9.72601 -8.89843,12.54687 -2.98017,6.08616 -4.14403,6.50049 -9.97657,3.54493 -2.2489,-1.13961 -4.2631,-1.89706 -4.47656,-1.6836 -0.76083,0.76083 0.67218,3.66211 1.8086,3.66211 0.63636,0 1.88896,1.24279 2.78515,2.76172 1.94085,3.2895 2.82703,3.45799 3.86328,0.73242 0.50191,-1.32012 1.25394,-1.93535 2.15039,-1.75781 1.45837,0.28881 1.54998,1.86206 0.54297,9.36719 -0.91205,6.79734 2.66252,13.97633 8.44922,16.96875 1.23753,0.63995 2.25,1.68829 2.25,2.32812 0,0.63983 0.44385,1.16365 0.98633,1.16406 0.54247,4.1e-4 3.47191,3.41228 6.50976,7.58204 12.91137,17.72215 14.92703,20.22847 18.19727,22.63281 3.25326,2.39185 4.64348,5.29101 2.53711,5.29101 -2.45109,0 3.02336,2.55676 5.77539,2.69727 3.53269,0.18037 5.37373,1.66175 6.58398,5.29883 1.07558,3.23231 3.88281,5.27476 8.33204,6.06054 l 3.54882,0.62696 -2.36718,1.30664 c -2.11207,1.1657 -2.17984,1.30969 -0.62891,1.33789 2.36984,0.0431 5.58053,1.58326 6.0957,2.92578 0.53569,1.39599 -3.4595,6.96534 -6.83789,9.53125 -7.76669,5.89885 -15.07947,6.52724 -30.18945,2.5957 -10.59819,-2.75758 -18.80958,-6.23741 -23.93945,-10.14453 -3.88179,-2.95652 -5.36546,-2.84286 -2.12305,0.16211 3.03824,2.81574 15.26789,8.56022 24.4707,11.4961 8.82357,2.81489 10.05444,3.55149 9.7168,5.81054 -0.1682,1.12529 -1.77347,2.19802 -5.62695,3.75586 -2.96558,1.19889 -6.04145,2.76518 -6.83399,3.48242 -1.39389,1.26146 -1.38787,1.46319 0.17383,6.17774 1.87778,5.66876 3.09109,7.29434 5.98047,8.01953 3.44788,0.86536 11.60824,7.18201 16.49023,12.76367 2.51575,2.8763 5.6685,6.4766 7.00782,8 2.20623,2.50944 3.44966,3.0431 7.56445,3.24805 1.78344,0.0888 6.17578,4.57962 6.17578,6.31445 0,2.63654 13.322,20.37164 21.04102,28.01172 2.09834,2.0769 5.32367,4.86454 7.16796,6.19531 3.0866,2.22717 4.91184,5.57112 4.92774,9.0293 0.002,0.52762 -2.48169,3.77692 -5.51953,7.21875 -3.03786,3.44184 -5.52344,6.47137 -5.52344,6.73242 0,0.26106 1.68664,1.53364 3.74805,2.82813 2.06139,1.29448 4.55843,2.35918 5.54883,2.36718 5.10179,0.0425 10.79818,-4.88958 11.62695,-10.06836 0.67626,-4.22574 2.43045,-7.83824 4.29101,-8.83398 0.88717,-0.4748 1.61329,-0.61787 1.61329,-0.31836 -1e-5,0.29953 0.71016,-0.0993 1.57812,-0.88477 2.86071,-2.5889 1.62528,-7.30603 -3.08594,-11.78515 -2.82226,-2.68324 -3.06046,-4.37208 -0.89258,-6.33399 0.85004,-0.76927 2.12971,-3.15683 2.84375,-5.30664 0.71406,-2.1498 1.80437,-4.10288 2.42188,-4.33984 0.6175,-0.23696 2.46446,0.49891 4.10352,1.63477 1.6721,1.15877 4.0696,2.06445 5.46289,2.06445 1.36574,0 4.33067,0.39635 6.58984,0.88086 4.27988,0.91787 7.29173,3.49356 16.28906,13.92969 3.11257,3.61031 4.40591,7.2832 2.56446,7.2832 -0.43398,0 -0.78907,0.65287 -0.78907,1.45117 0,0.7983 -0.90496,1.86382 -2.00976,2.36719 -1.87565,0.85461 -5.85405,7.75617 -5.87305,10.1875 -0.0221,2.82285 8.33628,-1.24529 14.66992,-7.14063 l 4.51758,-4.20508 0.61523,-8.23437 c 0.73939,-9.89017 0.86051,-24.14297 0.22461,-26.51367 -0.25239,-0.94092 -1.49133,-2.138 -2.75195,-2.66016 -2.02903,-0.84045 -2.29101,-1.34041 -2.29101,-4.35351 0,-1.872 -0.37403,-4.3891 -0.83204,-5.59375 -1.1027,-2.90032 1.10497,-9.18382 3.08399,-8.77735 1.0226,0.21004 1.25035,1.044 1.07031,3.91211 -0.20445,3.25683 0.0176,3.82048 2.09375,5.29883 1.27776,0.90985 2.97833,1.65268 3.7793,1.65234 2.89358,-10e-4 11.29686,-4.69929 15.79687,-8.83203 2.5289,-2.3225 5.34048,-4.74753 6.24805,-5.38867 2.64313,-1.86718 3.36766,-4.01733 3.94727,-11.69531 0.6267,-8.30191 0.76311,-8.18 -6.01172,-5.39258 -8.56597,3.52437 -19.88037,12.28349 -21.79883,16.875 -1.21202,2.90076 -3.06717,3.41143 -3.81641,1.05078 -0.66083,-2.08206 0.39399,-3.84416 4.65039,-7.76758 4.52039,-4.16674 9.94762,-7.63878 19.20899,-12.28711 l 7.29883,-3.66211 -0.0469,-11.23632 c -0.0623,-14.86985 -0.64765,-18.21617 -3.57422,-20.45899 -1.26363,-0.9684 -4.48266,-4.0744 -7.15234,-6.90039 l -4.85352,-5.13672 -0.82812,3.13281 c -0.45561,1.72381 -1.34809,6.41035 -1.98438,10.41407 -2.52308,15.87616 -9.55302,22.15216 -15.0957,13.47656 -1.30194,-2.03784 -2.5772,-3.72445 -2.83399,-3.74805 -0.25679,-0.0236 -0.90896,1.46614 -1.44921,3.31055 -2.34027,7.98976 -7.11555,13.2168 -12.07422,13.2168 -2.7972,0 -4.4588,-1.33163 -7.24219,-5.80469 -1.84279,-2.96149 -2.58369,-2.10169 -4.39063,5.10156 -3.64148,14.51665 -8.0618,21.21875 -13.99609,21.21875 -3.92929,0 -7.0062,-2.2546 -7.75976,-5.68555 -0.50565,-2.30222 -0.63808,-2.39342 -1.58985,-1.09179 -0.57077,0.78057 -2.32562,4.63776 -3.90039,8.57226 -2.54313,6.35397 -11.65984,26.52059 -15.17969,33.57813 -1.59609,3.20024 -5.30618,6.44531 -7.36718,6.44531 -2.2058,0 -1.85744,-1.81791 0.71093,-3.7168 2.91289,-2.15359 9.45734,-14.89617 8.26368,-16.08984 -1.29729,-1.29728 -3.94277,0.38862 -8.94141,5.69922 -3.24627,3.44886 -4.91719,4.63867 -6.50977,4.63867 -2.76038,0 -2.70097,-0.7489 0.28516,-3.59961 4.57611,-4.36857 8.34848,-11.0599 10.94336,-19.41211 4.62178,-14.87627 5.56819,-16.0478 10.08594,-12.49414 3.06146,2.40815 4.08067,1.95353 6.1582,-2.74414 2.08595,-4.7167 4.43224,-7.51367 6.30078,-7.51367 0.65799,0 1.80145,1.33156 2.54102,2.95898 0.73957,1.62742 1.45068,3.11388 1.58203,3.30469 0.31994,0.46479 2.68095,-2.84236 4.15234,-5.81836 0.99958,-2.02173 1.78806,-2.48669 5.00781,-2.94726 2.10216,-0.3007 3.96859,-0.69124 4.14649,-0.86914 0.17791,-0.1779 1.05693,-3.13213 1.95312,-6.56446 1.90579,-7.299 2.9848,-9.72794 4.83203,-10.875 1.84027,-1.14274 4.76896,1.67036 6.5254,6.26953 0.97392,2.55019 1.76727,3.49414 2.93945,3.49414 2.43723,0 7.44843,-5.48563 8.4668,-9.26757 1.02256,-3.79753 5.41998,-9.93728 7.38867,-10.31641 1.45358,-0.27994 2.92383,2.58965 2.92383,5.70508 0,0.98944 0.72011,2.45034 1.60156,3.24804 1.45366,1.31556 1.71866,1.33603 2.83789,0.2168 1.7985,-1.7985 4.1247,-9.41132 5.49805,-17.99219 2.1218,-13.25727 2.03023,-12.9897 4.54492,-13.27734 2.63377,-0.30127 5.43666,1.9702 7.62109,6.17578 1.63641,3.15049 7.60286,9.21942 8.33984,8.48242 0.81033,-0.81033 1.39136,-170.21849 0.67969,-198.25 -0.36359,-14.3213 -0.7868,-25.15135 -0.93945,-24.0664 -0.46475,3.30329 -0.97168,4.27832 -1.79883,3.45117 -0.88179,-0.88179 -1.93773,-13.26573 -3.48047,-40.82422 -1.01957,-18.21286 -1.70394,-22.384559 -3.39062,-20.703125 -1.13462,1.131092 -1.20031,17.407516 -0.1836,45.146485 0.55855,15.23785 0.76939,28.34546 0.46875,29.12891 -1.27225,3.3154 -2.13261,-0.85738 -2.86328,-13.88086 -0.42459,-7.56779 -1.11703,-16.77797 -1.53906,-20.4668 -0.42202,-3.68882 -1.15012,-13.63116 -1.61719,-22.093751 -0.89305,-16.180994 -1.04918,-17.357421 -2.3125,-17.357421 -2.78296,0 -3.81353,8.640977 -4.79687,40.240232 -0.82086,26.37756 -1.20805,31.5625 -2.35547,31.5625 -0.33411,0 -0.82232,-0.79894 -1.08399,-1.77539 -0.69722,-2.60165 -0.49192,-50.276003 0.25196,-58.585936 0.36672,-4.09606 0.33207,-7.683527 -0.0801,-8.47461 -0.73369,-1.408257 -4.32213,-2.734513 -5.15234,-1.904296 -0.25543,0.25543 -1.27988,8.527756 -2.27735,18.382812 -3.3555,33.15262 -5.51289,47.75249 -7.04687,47.67969 -1.50352,-0.0713 -1.24364,-8.52358 0.74023,-24.1211 2.47137,-19.430362 4.00711,-38.90659 3.29297,-41.751949 -0.3563,-1.419612 -0.97875,-2.06194 -1.83789,-1.896485 -1.78578,0.343912 -4.83946,9.646537 -10.57227,32.205074 -8.10177,31.88048 -10.93032,41.03125 -12.67968,41.03125 -1.39021,0 -0.45468,-4.88943 4.0625,-21.23828 5.44155,-19.69442 12.65429,-48.559711 12.65429,-50.642575 0,-2.111126 -1.69211,-5.445312 -2.76367,-5.445312 -0.846,0 -5.88576,9.940135 -15.09961,29.785157 -3.17242,6.83284 -5.01953,9.03646 -5.01953,5.98828 0,-0.72143 1.73803,-5.24875 3.86133,-10.060547 12.01801,-27.235209 12.54217,-28.904307 9.28515,-29.52539 -1.90743,-0.363731 -3.96866,1.654403 -12.5039,12.240234 -6.58543,8.167574 -8.93072,10.373979 -9.94531,9.359375 -0.58313,-0.583142 2.68433,-5.278746 10.375,-14.910156 3.75022,-4.696596 6.81645,-8.950329 6.81445,-9.455078 -0.002,-0.504749 -0.82483,-1.945389 -1.82813,-3.199219 l -1.82421,-2.279297 -9.3711,6.816406 c -8.19348,5.959422 -12.94071,8.364849 -12.08984,6.125 0.43023,-1.132561 8.57496,-7.829009 13.84765,-11.384765 5.22068,-3.520686 5.90045,-4.972781 3.39063,-7.244141 -1.47613,-1.335878 -1.76033,-1.342029 -4.93164,-0.121094 -1.85087,0.712569 -8.51394,4.132809 -14.80664,7.601563 -11.82186,6.516621 -16.9711,8.270929 -12.08008,4.115234 1.38385,-1.175804 7.52179,-4.970164 13.64062,-8.431641 12.32818,-6.974161 14.64507,-8.880167 13.84766,-11.392578 -0.2872,-0.90488 -0.89801,-1.644531 -1.35742,-1.644531 -2.70411,0 -30.52217,12.569257 -56.26563,25.423828 -14.45514,7.217938 -23.93879,11.260424 -24.67968,10.519531 -0.84615,-0.846148 0.87594,-1.859622 19.55078,-11.505859 18.03243,-9.314414 27.4627,-13.856213 46.88672,-22.580078 9.6344,-4.327074 12.29297,-6.035383 12.29297,-7.898438 0,-1.882902 -3.98274,-1.169072 -18.54297,3.324219 -26.29512,8.114673 -74.87503,21.723062 -76.50196,21.429688 -3.63399,-0.6553 12.88288,-6.609093 36.6543,-13.212891 4.99077,-1.386454 17.9513,-5.284222 28.80078,-8.660156 10.84948,-3.375935 21.94584,-6.754407 24.6582,-7.509766 2.71237,-0.755361 4.93165,-1.690592 4.93165,-2.078125 0,-0.387532 -0.97649,-1.091907 -2.16993,-1.564453 -2.74228,-1.085813 -33.82449,-0.368479 -55.43164,1.279297 -19.35789,1.476245 -24.70156,1.524601 -24.26758,0.222656 0.17848,-0.535435 1.71783,-1.233757 3.41993,-1.552734 3.55231,-0.665715 50.81934,-4.251061 66.40234,-5.03711 10.24628,-0.516851 12.98871,-1.320378 11.6875,-3.425781 -1.24144,-2.008686 -14.35,-3.70013 -49.35156,-6.365234 C 240.0185,11.176151 229.2207,9.6841072 229.2207,7.859375 c 0,-0.4172517 1.07799,-0.7578125 2.39649,-0.7578125 3.26198,0 48.84327,3.6809755 63.48828,5.1269535 15.99176,1.57895 23.80695,1.761404 24.98633,0.582031 0.52117,-0.521113 0.76607,-1.128453 0.54492,-1.349609 -0.92609,-0.926091 -9.76416,-2.0937356 -21.55859,-2.8457036 -6.92889,-0.4417597 -12.75754,-0.9626042 -12.95313,-1.1582031 -1.20487,-1.2048603 2.37101,-1.4972242 14.37305,-1.1777344 18.56363,0.4941566 20.07189,0.4769342 20.77539,-0.2265625 0.33834,-0.3383466 0.0915,-0.9781219 -0.54688,-1.421875 C 320.13149,4.2172215 308.64405,4.06912 281.40234,4.2109375 Z M 195.82422,22.546875 c 0.84397,-0.117444 1.48079,0.140313 2.53516,0.685547 2.94338,1.522087 6.36823,5.618409 6.51953,7.798828 0.4091,5.895847 -1.3033,10.136228 -4.82813,11.958984 -6.87547,3.555447 -15.79669,-2.050224 -15.80469,-9.93164 -0.004,-3.535109 2.27398,-6.146622 7.80079,-8.947266 1.88245,-0.953911 2.93337,-1.447009 3.77734,-1.564453 z m 109.49609,50.519531 c 5.17569,0 8.64177,5.522527 8.15039,12.986328 -0.15155,2.302085 0.13758,3.45714 0.9668,3.859375 5.3201,2.580669 5.89866,3.012362 5.68555,4.234375 -0.15496,0.888608 0.30299,1.328125 1.38086,1.328125 2.04645,0 2.08261,1.272518 0.0664,2.351563 -1.05211,0.563046 -2.62937,0.577939 -4.93164,0.04687 -4.23709,-0.977376 -4.56836,-0.985239 -4.56836,-0.101563 0,0.395079 2.2292,2.125392 4.95313,3.845711 4.58233,2.894 9.40319,7.79984 11.42578,11.62695 2.80123,5.30044 3.10221,23.7639 0.47851,29.29296 -2.80115,5.90298 -10.06007,9.24803 -22.88671,10.54492 -4.712,0.47643 -11.74733,1.55732 -15.63282,2.40235 -8.58034,1.8661 -8.17359,1.86384 -11.08398,0.082 -5.4494,-3.3363 -9.95098,-10.11142 -8.76758,-13.19532 0.79737,-2.07792 3.81696,-1.02598 4.67969,1.63086 0.42277,1.30194 1.86401,3.9072 3.20312,5.78907 l 2.4336,3.42188 4.09765,-0.51172 c 6.635,-0.82899 17.79741,-3.27904 20.93164,-4.59375 3.73125,-1.56512 5.92687,-5.43276 4.66016,-8.21289 -0.60238,-1.32206 -1.39708,-1.8392 -2.56055,-1.66601 -1.85503,0.27613 -2.69645,1.47047 -3.41015,4.8457 -0.56243,2.6599 -4.07147,4.39727 -13.08203,6.47656 -5.70618,1.31681 -6.09321,1.31425 -8.94922,-0.041 -3.76149,-1.78494 -4.20472,-2.94839 -2.12696,-5.58985 0.9095,-1.15623 1.65235,-2.81301 1.65235,-3.67969 0,-2.04498 5.14545,-6.89062 7.3164,-6.89062 3.19681,0 0.17239,-1.60654 -3.9414,-2.09375 -2.20025,-0.26061 -4.43818,-0.7439 -4.97266,-1.07422 -1.44233,-0.89141 -0.16999,-2.35547 2.04688,-2.35547 1.06359,0 2.53201,-0.6966 3.26172,-1.54883 0.99084,-1.15723 1.5881,-1.33345 2.35937,-0.69336 0.80564,0.66862 1.03125,0.40904 1.03125,-1.18359 0,-2.20758 2.48023,-4.10282 4.40234,-3.36523 0.61706,0.23679 1.1211,1.34533 1.1211,2.46484 0,1.52955 -0.60901,2.2907 -2.44922,3.06445 -1.95735,0.823 -2.18012,1.13313 -1.11719,1.54102 2.32711,0.89299 3.14084,0.55814 4.51758,-1.86133 1.02275,-1.79736 1.90754,-2.36328 3.70312,-2.36328 3.05197,0 7.3536,-3.54547 5.6543,-4.66016 -0.94821,-0.62197 -0.96006,-0.94944 -0.0801,-2.00976 0.89384,-1.07701 0.7975,-1.53742 -0.64257,-3.07031 -1.84292,-1.96171 -2.21765,-3.67383 -0.80274,-3.67383 0.58402,0 0.73375,-0.98213 0.43164,-2.84375 -0.42234,-2.6026 -0.32059,-2.8077 1.20703,-2.40821 2.31071,0.60426 4.57032,-0.7809 4.57032,-2.80273 0,-1.67802 -0.0109,-1.6783 -1.98243,0.17383 -2.56754,2.41208 -3.26415,1.68017 -5.06836,-5.333992 -0.7834,-3.045578 -2.22779,-6.967537 -3.21093,-8.716797 -3.78101,-6.727391 -0.45908,-15.46875 5.8789,-15.46875 z m 52.18946,93.410154 c 1.5731,-0.1 2.69336,0.38545 2.69336,1.5 0,0.82248 -0.70471,1.67003 -1.57813,1.89844 -1.08946,0.2849 -1.57812,1.07711 -1.57812,2.55664 0,1.80737 -0.18414,1.98934 -1.17383,1.16797 -0.64543,-0.53567 -1.68732,-0.77582 -2.31446,-0.53516 -0.62715,0.24065 -1.25365,1.61156 -1.39257,3.04688 l -0.25196,2.60937 -1.3789,-2.52539 c -2.07639,-3.80261 -1.73955,-5.45666 1.5664,-7.70312 1.80949,-1.22957 3.8351,-1.91563 5.40821,-2.01563 z m -48.01172,135.80078 c 0.37845,-0.10812 0.92945,0.18141 1.625,0.87696 0.52078,0.52078 0.94726,1.23093 0.94726,1.57812 0,0.34718 -0.71016,0.63086 -1.57812,0.63086 -1.05207,0 -1.57813,-0.52605 -1.57813,-1.57812 0,-0.89428 0.20554,-1.39969 0.58399,-1.50782 z m 28.27539,10.97657 c 0.77461,0 0.89459,0.48291 0.43164,1.73437 -0.66683,1.80262 -2.46289,2.93534 -2.46289,1.55274 0,-1.66524 1.00184,-3.28711 2.03125,-3.28711 z"
       transform="scale(0.75)"
       sodipodi:nodetypes="ssccccccscccssssssccssssssssssssssssssssssssssssssssscssssscssssssssssssssccsssssssccssssssscccssssssssssssssssssssssssssssssssscccsssssssssssssssssssccsssssscccscsssscccsssssssscssssscssssssssssssssssssssscssssssssssssssssssssssssssssssssssssssssssssscccsssssssssssssssssscssscsssssssssssssssssccssssssscssssssscccsccsssssssssssssssssssssssssssssssssssssssssssssssssssssssssssssssssssssssssssscccsssssssssssssssssssssssssscssssssssssssssscsssssssssssssssssscccsssssssssssssssssssssssssssssssssssssssccsssssssssssss" />
  </g>
  <g
     transform="matrix(0.1,0,0,-0.1,0,519)"
     fill="#000000"
     stroke="none"
     id="g196"
     style="display:inline">
    <g
       id="g194"
       style="display:inline">
      <path
         d="m 1195,5179 c -110,-3 -419,-7 -687,-8 L 20,5170 18,4958 C 14,4348 11,3631 12,3275 13,3055 13,2228 13,1437 L 14,0 1504,2 2995,5 v 2075 c 0,1878 -8,3026 -21,3088 l -5,23 -787,-3 c -433,-2 -877,-6 -987,-9 z m 1223,-29 c 2,-13 -9,-15 -68,-13 -38,2 -101,4 -139,6 -38,1 -67,-1 -65,-5 3,-4 38,-8 78,-8 70,0 174,-14 185,-25 2,-3 0,-10 -6,-16 -9,-9 -53,-7 -165,4 -84,9 -225,21 -313,27 -88,6 -170,13 -182,16 -13,2 -23,0 -23,-5 0,-12 123,-27 331,-41 91,-6 206,-17 255,-23 78,-11 89,-14 89,-32 0,-18 -7,-20 -85,-22 -47,-1 -137,-7 -200,-12 -63,-6 -163,-13 -222,-17 -63,-4 -108,-11 -108,-17 0,-6 26,-8 73,-4 161,14 435,28 486,25 51,-3 81,-23 49,-32 -7,-2 -40,-12 -73,-21 -33,-10 -94,-28 -135,-42 -125,-40 -162,-51 -240,-72 -115,-30 -276,-84 -262,-89 6,-2 49,8 94,22 46,13 151,43 233,66 83,23 197,58 255,76 120,39 140,41 140,17 0,-12 -22,-27 -68,-47 -137,-60 -259,-117 -312,-147 -30,-16 -92,-48 -138,-71 -45,-22 -81,-43 -79,-45 6,-6 118,44 247,110 63,33 171,84 239,114 98,43 126,52 132,41 17,-25 4,-40 -71,-81 -104,-56 -153,-88 -147,-94 3,-3 32,11 64,30 32,19 84,48 115,63 47,23 59,25 72,15 20,-17 21,-37 2,-44 -24,-9 -136,-100 -131,-105 3,-3 18,3 33,14 15,11 50,36 78,57 l 52,37 17,-26 c 16,-25 16,-26 -22,-71 -69,-82 -105,-133 -95,-133 6,0 31,26 56,58 84,106 93,115 110,109 23,-9 20,-28 -14,-102 -16,-36 -30,-68 -30,-70 0,-3 -13,-33 -30,-67 -16,-34 -28,-64 -25,-66 3,-3 6,-3 8,-1 8,14 70,146 98,207 17,39 35,72 39,72 17,0 32,-32 27,-57 -9,-53 -77,-318 -107,-417 -27,-91 -31,-131 -11,-97 10,16 54,172 75,266 26,115 72,269 82,272 5,1 14,-1 21,-5 12,-8 1,-169 -27,-372 -13,-93 -13,-147 -1,-135 9,10 34,197 51,389 5,60 11,111 14,113 2,2 14,-1 28,-6 24,-9 24,-11 17,-83 -9,-96 -9,-448 1,-448 10,0 20,132 20,274 0,164 10,256 27,263 8,3 16,3 19,0 3,-2 7,-56 10,-118 2,-63 9,-153 15,-200 6,-48 11,-121 11,-163 1,-44 5,-76 11,-76 7,0 7,53 2,158 -5,86 -9,213 -9,282 -1,107 1,125 15,128 14,3 17,-14 22,-120 14,-265 20,-348 28,-348 5,0 9,16 9,36 0,19 4,33 8,30 8,-5 7,-1704 -1,-1712 -9,-9 -60,42 -73,72 -15,36 -51,54 -65,33 -5,-8 -9,-27 -9,-44 0,-45 -31,-168 -46,-184 -19,-20 -44,3 -44,40 0,18 -5,29 -14,29 -16,0 -56,-59 -56,-83 0,-9 -15,-30 -32,-46 -36,-34 -46,-30 -64,22 -6,19 -19,33 -30,35 -16,2 -23,-8 -37,-56 -9,-32 -17,-63 -17,-70 0,-7 -14,-12 -35,-12 -23,0 -35,-5 -35,-14 0,-8 -9,-24 -19,-37 l -19,-24 -11,28 c -6,15 -14,27 -19,27 -15,0 -40,-33 -47,-63 -8,-30 -28,-35 -52,-12 -25,26 -37,12 -58,-66 -24,-89 -44,-127 -87,-169 -32,-30 -32,-31 -8,-28 15,2 34,17 48,38 25,38 72,60 72,34 0,-23 -49,-114 -65,-121 -17,-6 -20,-23 -5,-23 13,0 60,52 60,67 0,6 18,47 39,90 22,43 52,111 67,150 28,74 44,92 44,50 0,-28 38,-52 68,-43 42,14 72,72 97,189 7,34 22,35 35,3 5,-14 19,-30 30,-36 33,-18 85,27 103,88 l 14,47 19,-32 c 10,-18 25,-35 32,-38 33,-13 82,62 82,125 0,12 5,41 11,66 l 12,45 46,-49 c 25,-27 52,-51 60,-54 10,-3 14,-31 15,-118 l 1,-115 -76,-38 c -81,-40 -159,-104 -159,-131 0,-9 5,-16 10,-16 6,0 10,4 10,10 0,34 126,129 194,146 l 29,7 -5,-68 c -3,-53 -8,-69 -23,-78 -10,-5 -33,-25 -49,-43 -17,-18 -53,-42 -80,-54 -45,-19 -51,-19 -73,-5 -20,13 -23,22 -18,46 8,37 -12,39 -25,3 -7,-17 -7,-32 1,-45 5,-11 7,-29 4,-39 -5,-15 0,-22 18,-29 26,-10 24,6 19,-220 -2,-59 -4,-65 -39,-98 -40,-37 -98,-67 -112,-58 -15,9 16,78 38,87 12,4 19,12 16,18 -3,5 -1,10 4,10 20,0 11,30 -14,46 -14,9 -25,22 -25,28 0,14 -46,59 -77,75 -12,6 -39,11 -61,11 -23,0 -45,6 -52,15 -20,24 -37,18 -44,-16 -3,-18 -14,-38 -24,-45 -16,-13 -15,-16 10,-38 33,-29 45,-70 28,-91 -7,-8 -16,-13 -20,-10 -9,5 -34,-22 -36,-39 -4,-55 -19,-79 -57,-96 -38,-17 -40,-17 -73,2 -19,11 -36,24 -39,28 -3,4 16,28 41,53 41,40 45,49 39,76 -4,17 -10,31 -14,31 -7,0 -36,23 -74,58 -43,40 -157,191 -157,209 0,26 -40,56 -68,51 -14,-2 -32,14 -64,57 -43,59 -128,125 -160,125 -9,0 -20,17 -27,41 -7,23 -14,46 -17,53 -3,10 40,34 89,50 27,8 20,35 -10,42 -93,20 -243,92 -243,115 0,5 -4,9 -10,9 -5,0 -10,-10 -10,-21 0,-19 -2,-20 -17,-8 -15,12 -16,12 -10,-3 3,-10 2,-18 -3,-18 -15,0 -12,21 5,40 13,15 12,19 -10,40 -14,13 -25,18 -25,12 0,-7 -4,-12 -10,-12 -5,0 -10,9 -10,19 0,11 -11,28 -23,38 -34,26 -67,84 -110,188 -37,91 -57,164 -56,200 1,19 7,0 30,-87 5,-21 16,-38 23,-38 8,0 16,-17 19,-45 9,-63 49,-142 98,-192 22,-24 44,-43 48,-43 5,0 28,-19 52,-43 62,-61 110,-87 208,-114 126,-34 158,-35 213,-7 26,13 53,34 59,46 7,13 17,26 23,30 16,10 -25,38 -46,32 -26,-8 -22,5 5,16 21,8 20,9 -7,9 -34,1 -66,26 -66,52 0,20 -28,39 -47,32 -6,-2 -22,2 -35,11 -13,8 -43,20 -67,26 -23,6 -41,14 -38,17 3,3 27,-2 53,-11 55,-19 54,-18 54,-8 0,4 -13,15 -29,25 -16,9 -54,54 -85,100 -31,45 -65,92 -76,105 l -19,23 -41,-21 c -48,-24 -67,-18 -31,11 14,12 31,17 42,14 24,-8 25,13 2,22 -53,19 -85,105 -60,160 8,17 7,27 -2,36 -9,9 -13,7 -17,-11 -8,-29 -22,-28 -34,3 -5,14 -15,24 -22,23 -7,-2 -14,7 -16,20 l -4,23 39,-21 c 51,-27 57,-26 72,18 7,20 30,55 50,77 78,85 77,82 55,108 l -19,22 24,-20 23,-20 32,38 c 51,61 65,48 70,-66 2,-43 7,-61 15,-59 7,1 10,-2 6,-7 -3,-6 3,-20 14,-33 11,-13 33,-49 50,-81 17,-32 59,-91 93,-132 35,-41 81,-97 103,-125 31,-40 57,-59 120,-89 85,-41 214,-68 245,-51 10,6 44,3 89,-6 55,-11 76,-12 86,-4 8,7 19,9 24,6 5,-4 14,1 19,10 6,10 24,17 49,18 43,2 90,27 100,52 3,9 -4,25 -15,37 -20,19 -25,20 -58,8 -32,-12 -38,-11 -46,3 -12,21 -39,21 -31,0 3,-9 0,-20 -8,-25 -12,-8 -11,-12 5,-24 19,-14 18,-15 -12,-15 -18,0 -32,-4 -32,-10 0,-19 -49,-42 -75,-36 -14,4 -23,11 -20,17 4,6 -2,8 -17,4 -28,-7 -53,16 -53,49 0,19 -5,21 -60,18 -33,-2 -65,-8 -72,-14 -7,-5 -17,-7 -23,-3 -14,9 -12,41 4,54 8,6 16,20 18,29 5,19 1,21 -79,25 -64,4 -76,13 -32,24 18,5 34,14 36,19 5,14 -54,74 -72,74 -20,0 -19,15 2,35 13,14 14,21 5,36 -16,25 -15,30 2,23 19,-7 57,32 50,51 -4,9 -15,20 -25,26 -20,10 -26,39 -9,39 6,0 10,-5 10,-12 0,-9 3,-9 11,-1 9,9 16,7 28,-6 9,-9 13,-12 8,-5 -10,15 28,40 71,46 28,4 34,0 53,-30 12,-21 17,-41 13,-51 -19,-42 -5,-101 23,-101 24,0 48,-29 35,-42 -9,-9 -16,-7 -30,5 -26,24 -82,23 -82,-1 0,-30 23,-53 65,-62 62,-15 68,-13 61,14 -4,15 0,28 9,36 8,7 15,18 15,24 0,8 -46,45 -78,62 -1,0 5,18 14,39 15,36 15,42 0,72 -16,33 -21,75 -11,85 3,3 24,1 47,-5 36,-9 43,-8 55,9 7,10 11,24 9,30 -8,22 13,80 38,103 23,22 27,22 101,11 107,-16 149,-8 175,37 15,26 18,38 10,43 -8,5 -7,9 4,13 18,7 22,37 5,37 -5,0 -8,-4 -5,-9 7,-11 -81,-47 -91,-37 -3,3 8,11 25,17 38,13 40,22 7,43 -33,22 -42,20 -20,-4 20,-23 9,-26 -18,-6 -25,19 -12,71 23,96 35,25 36,25 43,-1 7,-26 27,-15 27,15 0,12 7,31 15,42 8,10 15,22 15,27 0,13 -27,7 -40,-8 -7,-8 -20,-14 -29,-13 -11,2 -15,-4 -14,-19 2,-19 -23,-40 -35,-29 -11,12 29,74 51,80 27,6 52,48 44,70 -4,9 -18,16 -32,16 -15,0 -24,4 -20,10 3,6 -1,10 -10,10 -11,0 -15,-5 -12,-14 4,-11 1,-14 -11,-10 -9,2 -7,-1 6,-7 12,-7 22,-19 22,-29 0,-40 -59,-57 -61,-17 -1,18 -2,18 -6,4 -3,-11 -11,-16 -19,-13 -8,3 -14,1 -14,-3 0,-5 6,-11 14,-14 15,-6 28,-59 20,-81 -3,-8 -13,-12 -22,-9 -9,3 -23,7 -31,9 -11,4 -12,7 -3,16 16,16 15,48 -2,48 -8,0 -17,-7 -20,-15 -3,-9 -11,-15 -18,-13 -19,3 -60,-21 -53,-33 4,-5 17,-9 31,-9 19,0 24,-5 24,-25 0,-31 13,-32 32,-3 13,20 17,21 32,9 31,-26 14,-51 -35,-51 -11,0 -43,-16 -72,-35 -28,-19 -61,-35 -72,-36 -19,0 -20,-1 -1,-8 19,-7 19,-8 -2,-13 -12,-3 -23,-1 -25,6 -3,8 -10,8 -28,-1 -46,-23 -102,-33 -116,-21 -9,7 -38,8 -86,4 -58,-5 -80,-3 -107,10 -18,9 -49,18 -69,20 -19,1 -41,10 -48,20 -15,21 -45,11 -36,-12 4,-12 3,-15 -5,-10 -7,4 -12,14 -12,22 0,11 -6,13 -20,9 -25,-8 -26,11 -2,24 13,7 31,6 58,-4 21,-7 42,-11 47,-8 13,8 -3,23 -25,23 -11,0 -35,15 -53,33 -45,45 -171,129 -242,162 -114,52 -123,58 -123,77 0,24 16,23 42,-2 25,-23 70,-26 90,-6 8,8 23,15 33,17 29,6 29,28 1,35 -14,3 -26,11 -26,16 0,6 10,8 23,4 67,-19 67,-19 61,-2 -4,10 -1,16 9,16 8,0 17,9 20,21 5,18 2,20 -19,15 -21,-6 -24,-3 -24,23 0,16 6,31 14,34 10,4 12,15 5,49 -4,24 -8,50 -9,59 0,8 39,40 93,73 50,32 103,66 117,75 14,10 33,20 43,24 19,7 22,22 7,32 -5,3 -10,18 -9,33 l 1,27 10,-27 c 5,-16 14,-28 19,-28 13,0 3,-48 -13,-68 -11,-13 -10,-15 5,-9 9,3 17,2 17,-3 0,-14 -41,-39 -56,-33 -8,3 -14,1 -14,-3 0,-5 -3,-20 -6,-34 -4,-20 -3,-22 5,-10 21,29 12,-41 -10,-76 -29,-48 -8,-42 34,9 27,33 33,47 26,60 -7,11 -6,17 1,17 5,0 10,6 10,14 0,7 6,19 14,26 8,6 16,20 18,31 4,24 23,26 23,3 0,-48 118,-20 131,30 10,40 -6,119 -28,143 -13,13 -19,30 -15,42 5,20 4,20 -25,5 -16,-9 -33,-13 -36,-9 -3,3 3,31 13,61 16,48 17,57 4,65 -19,12 -36,11 -44,-1 -3,-5 -15,-10 -25,-10 -12,0 -25,-13 -36,-36 -9,-20 -28,-40 -40,-44 -13,-5 -26,-21 -30,-35 -5,-20 -11,-24 -29,-19 -13,3 -33,0 -46,-6 -23,-13 -99,-18 -115,-7 -13,8 -137,-26 -168,-47 -14,-9 -30,-25 -36,-36 -8,-16 -21,-20 -60,-20 -37,0 -55,-5 -70,-20 -22,-22 -40,-61 -45,-95 -1,-11 -3,-23 -4,-26 0,-4 -10,-9 -21,-12 -11,-3 -27,-22 -35,-42 -9,-20 -22,-38 -30,-41 -7,-3 -16,-12 -19,-20 -4,-12 -2,-12 14,-4 11,6 31,8 45,4 27,-7 32,4 15,37 -6,11 -7,19 -3,18 20,-3 25,2 13,15 -9,12 -4,19 29,36 27,13 41,27 41,40 0,13 7,20 18,20 10,0 23,5 29,11 8,8 16,3 29,-17 9,-16 26,-42 37,-58 14,-20 18,-38 14,-62 -4,-26 0,-40 17,-61 32,-40 80,-132 73,-140 -4,-3 -7,1 -7,10 0,10 -7,17 -16,17 -22,0 -12,-23 16,-37 l 24,-12 -27,-10 c -15,-6 -27,-18 -27,-27 0,-8 -6,-14 -12,-11 -7,2 -12,11 -10,19 1,9 -9,26 -23,39 -25,24 -33,63 -15,74 5,3 6,13 3,23 -6,15 -4,15 9,4 15,-12 15,-10 6,22 -12,39 -28,48 -28,16 0,-11 -4,-20 -9,-20 -14,0 -21,-43 -9,-58 9,-10 8,-12 -3,-10 -17,4 -13,-43 5,-54 7,-5 7,-8 1,-8 -6,0 -16,-18 -22,-40 -7,-27 -7,-40 0,-40 6,0 19,-7 28,-16 18,-16 18,-17 -4,-33 -77,-57 -122,-68 -182,-47 -20,8 -20,7 -1,-8 32,-26 82,-19 152,20 35,20 66,40 70,45 7,11 24,12 24,0 0,-4 -27,-25 -60,-46 -55,-35 -59,-39 -45,-55 17,-19 20,-40 5,-40 -5,0 -12,10 -15,23 -6,22 -10,23 -72,21 -36,-2 -66,-5 -67,-6 -1,-2 -11,-18 -24,-35 -21,-31 -22,-33 -3,-33 12,0 23,11 30,30 5,17 15,30 20,30 6,0 8,-7 5,-15 -7,-18 7,-20 24,-3 9,9 12,4 12,-25 0,-43 -25,-62 -71,-52 -19,4 -29,3 -29,-5 0,-7 -6,-5 -16,4 -8,9 -29,16 -45,16 -34,0 -45,19 -29,49 7,14 7,21 0,21 -5,0 -10,-8 -10,-17 -1,-17 -1,-17 -11,-1 -8,14 -3,25 25,53 41,41 53,45 30,10 -10,-15 -12,-25 -5,-25 6,0 18,14 26,30 14,27 14,31 0,36 -22,9 -57,8 -77,0 -13,-6 -15,-3 -11,14 3,13 11,19 19,16 8,-3 14,0 14,7 1,11 80,77 93,77 4,0 7,-6 7,-14 0,-8 5,-18 12,-22 8,-5 10,9 6,54 -5,47 -3,62 8,66 8,3 14,15 14,26 0,24 18,26 46,5 10,-8 25,-15 32,-15 22,0 1,21 -35,37 -20,8 -53,26 -75,39 -50,32 -63,23 -19,-14 26,-22 31,-32 26,-52 -9,-35 -123,-108 -188,-121 -62,-11 -93,-30 -118,-74 -21,-34 -76,-74 -274,-195 -66,-40 -156,-97 -200,-125 -125,-82 -273,-174 -306,-190 -26,-14 -32,-14 -59,0 -39,20 -41,20 -85,-15 -37,-29 -48,-44 -77,-100 -17,-33 -20,383 -10,1270 l 7,645 355,1 c 336,0 1663,15 1667,18 1,0 77,1 170,1 143,0 168,-2 171,-15 z m 530,-221 4,-237 -59,-22 c -170,-64 -377,32 -442,205 -19,49 -22,75 -19,140 2,44 12,97 21,118 l 16,37 238,-2 238,-3 z M 37,5083 c -3,-10 -5,-4 -5,12 0,17 2,24 5,18 2,-7 2,-21 0,-30 z m 2921,-603 c 4,-243 -8,-213 -24,59 -6,104 -5,123 7,119 11,-4 15,-40 17,-178 z m -828,81 c 0,-5 -6,-14 -14,-20 -10,-9 -15,-8 -19,3 -3,8 -3,17 0,20 9,9 33,7 33,-3 z m 63,-28 c 2,-10 -6,-29 -17,-42 l -21,-24 32,17 c 31,15 33,15 43,-3 14,-27 13,-104 -2,-119 -19,-19 -27,-14 -25,16 2,23 -3,29 -30,37 -18,5 -33,15 -33,22 0,7 -7,13 -15,13 -18,0 -21,55 -4,66 8,5 10,-1 7,-20 -4,-19 -1,-26 10,-26 11,0 13,8 9,36 -5,29 -3,35 8,30 8,-3 15,-1 15,4 0,17 18,11 23,-7 z m -99,-102 c -8,-10 -24,14 -24,37 l 1,27 13,-30 c 7,-16 12,-32 10,-34 z m -159,-26 c -22,-19 -44,-35 -49,-35 -5,0 -23,-10 -40,-23 -67,-49 -79,-51 -122,-23 -68,44 -84,57 -84,66 0,4 56,8 124,8 105,0 130,4 162,21 54,28 55,26 9,-14 z m 250,-15 c 7,-12 -2,-12 -30,0 -19,8 -19,9 2,9 12,1 25,-3 28,-9 z m -680,-30 c -3,-5 -10,-10 -16,-10 -5,0 -9,5 -9,10 0,6 7,10 16,10 8,0 12,-4 9,-10 z m 665,-10 c 0,-5 -2,-10 -4,-10 -3,0 -8,5 -11,10 -3,6 -1,10 4,10 6,0 11,-4 11,-10 z m -535,-40 c 3,-5 1,-10 -4,-10 -6,0 -11,5 -11,10 0,6 2,10 4,10 3,0 8,-4 11,-10 z m 5,-51 c 0,-6 -4,-7 -10,-4 -5,3 -10,11 -10,16 0,6 5,7 10,4 6,-3 10,-11 10,-16 z m 80,-67 c 0,-7 -4,-10 -10,-7 -5,3 -10,16 -10,28 0,18 2,19 10,7 5,-8 10,-21 10,-28 z m -21,-50 c 0,-24 -1,-25 -9,-7 -12,28 -12,47 0,40 6,-3 10,-18 9,-33 z m 71,12 c 0,-8 -4,-12 -10,-9 -5,3 -10,13 -10,21 0,8 5,12 10,9 6,-3 10,-13 10,-21 z m -96,-28 c 3,-12 17,-28 31,-34 14,-6 25,-18 25,-26 0,-24 -72,29 -86,64 -7,15 -10,31 -7,34 10,9 30,-13 37,-38 z m 66,-13 c 0,-7 -4,-13 -10,-13 -5,0 -10,12 -10,28 0,21 2,24 10,12 5,-8 10,-21 10,-27 z m 10,-93 c -19,-12 -30,-12 -30,-1 0,10 31,20 40,14 2,-2 -2,-8 -10,-13 z m -640,-145 c -7,-8 -17,-15 -23,-15 -5,0 -2,9 8,20 21,23 35,19 15,-5 z m 1651,-38 c -16,-16 -20,-5 -8,23 9,22 11,23 14,6 3,-10 0,-23 -6,-29 z m -1091,13 c 0,-5 -2,-10 -4,-10 -3,0 -8,5 -11,10 -3,6 -1,10 4,10 6,0 11,-4 11,-10 z m -479,-37 c 13,-17 13,-17 -6,-3 -11,8 -22,16 -24,17 -2,2 0,3 6,3 6,0 17,-8 24,-17 z m 64,-13 c -18,-20 -45,-27 -45,-12 0,8 53,40 59,35 2,-1 -4,-12 -14,-23 z m 375,11 c 0,-18 -18,-21 -30,-6 -10,13 -9,15 9,15 11,0 21,-4 21,-9 z m -40,-21 c 0,-5 -4,-10 -10,-10 -5,0 -10,5 -10,10 0,6 5,10 10,10 6,0 10,-4 10,-10 z m 120,0 c 0,-5 -7,-10 -15,-10 -8,0 -15,5 -15,10 0,6 7,10 15,10 8,0 15,-4 15,-10 z m -535,-20 c 3,-5 2,-10 -4,-10 -5,0 -13,5 -16,10 -3,6 -2,10 4,10 5,0 13,-4 16,-10 z m 385,0 c 0,-5 -2,-10 -4,-10 -3,0 -8,5 -11,10 -3,6 -1,10 4,10 6,0 11,-4 11,-10 z m 92,-25 c 4,-5 -7,-21 -23,-36 -19,-17 -26,-28 -18,-31 10,-3 9,-10 -3,-27 -16,-23 -16,-23 -27,-3 -17,32 -13,47 15,62 17,10 24,20 21,32 -4,13 0,18 11,16 10,-2 20,-7 24,-13 z m 82,-4 c 3,-5 15,-7 26,-4 14,4 21,-1 25,-20 8,-31 3,-62 -10,-62 -6,0 -12,11 -14,25 -4,31 -17,40 -58,40 -31,0 -41,9 -26,23 9,10 51,8 57,-2 z m 118,-23 c 33,-37 35,-42 9,-28 -11,5 -28,7 -38,4 -16,-5 -16,-4 2,11 20,15 19,16 -3,21 -12,4 -22,10 -22,15 0,19 24,8 52,-23 z m -752,13 c 0,-12 -29,-41 -41,-41 -15,0 -10,22 9,36 20,16 32,18 32,5 z m 380,-22 c 0,-11 -4,-17 -10,-14 -5,3 -10,13 -10,21 0,8 5,14 10,14 6,0 10,-9 10,-21 z m 17,-1 c -3,-8 -6,-5 -6,6 -1,11 2,17 5,13 3,-3 4,-12 1,-19 z m -528,-21 c -29,-24 -99,-66 -99,-60 0,10 93,73 99,67 2,-2 2,-6 0,-7 z m 732,-10 c -10,-9 -11,-8 -5,6 3,10 9,15 12,12 3,-3 0,-11 -7,-18 z m -568,1 c 3,-10 8,-10 21,1 23,19 32,6 16,-24 -12,-22 -11,-27 2,-38 23,-18 29,-57 12,-89 -18,-35 -27,-37 -14,-3 12,32 -7,67 -32,60 -9,-3 -19,-1 -23,5 -11,18 -35,-9 -35,-41 0,-34 -13,-37 -33,-8 -15,21 -12,59 4,59 5,0 9,5 9,10 0,6 -7,10 -16,10 -13,0 -14,3 -5,14 8,10 9,16 1,21 -5,3 -10,1 -10,-4 0,-14 -47,-14 -55,-1 -6,10 18,13 93,12 21,0 39,-8 47,-19 7,-10 17,-14 22,-10 4,5 0,13 -10,18 -9,6 -17,17 -17,24 0,18 17,20 23,3 z m 749,-10 c 6,6 16,12 21,12 5,0 -16,-21 -46,-47 l -56,-47 27,-24 c 27,-24 27,-24 2,-11 -14,6 -28,17 -32,22 -4,7 -11,7 -21,-1 -8,-7 -33,-13 -55,-15 -27,-2 -47,-9 -56,-22 -13,-17 -15,-17 -16,-4 0,25 23,39 77,48 34,5 64,19 92,42 23,18 38,35 32,37 -6,2 -8,8 -5,14 4,6 10,5 15,-3 6,-11 11,-11 21,-1 z m -646,-25 c -7,-7 -26,7 -26,19 0,6 6,6 15,-2 9,-7 13,-15 11,-17 z m 274,17 c 0,-5 -4,-10 -10,-10 -5,0 -10,5 -10,10 0,6 5,10 10,10 6,0 10,-4 10,-10 z m 1150,5 c 0,-3 -15,-11 -33,-19 -34,-14 -73,-61 -58,-70 5,-3 19,3 31,14 25,22 40,26 40,10 0,-5 7,-10 15,-10 8,0 15,4 15,9 0,5 7,12 16,15 15,6 15,4 3,-10 -24,-30 -21,-52 9,-57 25,-4 25,-4 -5,-6 -18,0 -33,-5 -33,-10 0,-6 15,-12 33,-14 28,-4 -77,2 -143,8 -27,2 -56,-11 -80,-37 -18,-20 -60,-33 -60,-19 0,16 98,129 123,142 12,7 25,16 28,21 10,15 99,45 99,33 z m -910,-15 c 0,-5 -4,-10 -10,-10 -5,0 -10,5 -10,10 0,6 5,10 10,10 6,0 10,-4 10,-10 z m -754,-59 c -10,-16 -66,8 -66,29 0,10 6,20 13,23 15,5 61,-39 53,-52 z m 288,53 c 23,-9 20,-24 -4,-24 -11,0 -20,7 -20,15 0,17 2,18 24,9 z m 270,-16 c -4,-6 0,-14 7,-19 25,-15 -13,-34 -58,-30 -18,1 -16,41 1,41 7,0 19,7 26,15 13,16 34,10 24,-7 z m -104,-7 c 0,-16 -28,-32 -64,-38 -29,-5 -36,-3 -36,11 0,10 4,15 9,12 5,-4 11,0 14,6 3,10 7,10 20,-1 14,-11 18,-11 23,3 6,17 34,23 34,7 z m -639,-50 c -42,-53 -108,-111 -127,-111 -8,0 -35,-20 -59,-44 -29,-28 -65,-51 -104,-65 -33,-12 -63,-26 -66,-31 -4,-6 -15,-10 -25,-10 -11,0 -34,-9 -52,-20 -35,-21 -58,-26 -58,-11 0,4 42,35 93,66 50,32 143,92 205,132 234,153 243,157 193,94 z m 143,-8 c 37,-30 30,-66 -18,-88 -42,-20 -67,-14 -83,22 -18,39 -16,70 7,93 21,21 38,16 94,-27 z m 276,37 c 0,-5 -4,-10 -10,-10 -5,0 -10,5 -10,10 0,6 5,10 10,10 6,0 10,-4 10,-10 z m 407,-32 c -3,-7 -5,-2 -5,12 0,14 2,19 5,13 2,-7 2,-19 0,-25 z m -307,12 c 0,-5 -5,-10 -11,-10 -5,0 -7,5 -4,10 3,6 8,10 11,10 2,0 4,-4 4,-10 z m -215,-10 c 3,-5 1,-10 -4,-10 -6,0 -11,5 -11,10 0,6 2,10 4,10 3,0 8,-4 11,-10 z m 387,-16 c 22,-8 33,-64 21,-100 -5,-16 -24,-36 -42,-46 -29,-16 -35,-17 -60,-3 -39,20 -48,67 -21,122 22,46 35,54 65,41 11,-4 28,-11 37,-14 z m 478,9 c 0,-2 -13,-9 -30,-14 -16,-6 -30,-15 -30,-20 0,-5 -10,-9 -22,-9 -22,1 -22,1 -3,12 11,6 26,19 32,29 11,15 53,17 53,2 z m -714,-15 c -4,-13 -10,-40 -13,-61 -4,-26 -9,-34 -14,-25 -12,18 -11,51 1,82 12,32 35,35 26,4 z m 373,-41 c 1,-14 -4,-17 -19,-12 -14,5 -20,2 -20,-9 0,-25 -19,-19 -30,9 -6,16 -6,34 0,51 l 10,25 29,-23 c 17,-13 30,-31 30,-41 z m 412,48 c -18,-8 -36,-15 -40,-15 -13,1 45,29 59,29 8,0 0,-6 -19,-14 z m 699,1 c 0,-3 -4,-8 -10,-11 -5,-3 -10,-1 -10,4 0,6 5,11 10,11 6,0 10,-2 10,-4 z m -1392,-27 c 10,-16 10,-24 1,-35 -15,-19 -49,-18 -49,1 0,8 -4,15 -10,15 -5,0 -10,5 -10,11 0,8 4,8 14,0 10,-8 16,-9 21,-1 3,5 1,10 -4,10 -6,0 -11,5 -11,10 0,18 35,10 48,-11 z m 399,-17 c 17,-42 10,-41 -16,4 -12,20 -16,34 -9,32 7,-3 18,-19 25,-36 z m 341,21 c -2,-14 -15,-19 -60,-21 -52,-3 -57,-1 -51,14 4,11 8,13 11,6 5,-17 44,-15 68,3 26,19 36,19 32,-2 z m 269,-20 c -9,-21 -9,-27 1,-31 25,-8 12,-39 -20,-48 -25,-8 -34,-17 -39,-39 -5,-25 -7,-27 -13,-12 -12,25 -24,21 -29,-10 -4,-27 -4,-27 -12,-5 -5,16 -13,21 -26,17 -10,-4 -24,-3 -31,2 -7,4 -19,8 -27,8 -8,0 -16,6 -18,13 -4,9 12,12 55,12 83,0 110,36 46,60 -31,12 -31,30 1,30 14,0 25,5 25,11 0,6 6,9 13,6 8,-3 20,-1 28,4 8,5 24,9 36,9 21,0 22,-2 10,-27 z m -1332,-20 c 0,-15 -7,-28 -15,-30 -13,-4 -13,-3 0,6 13,10 13,13 -4,22 -15,9 -16,13 -5,20 22,13 25,11 24,-18 z m 1140,17 c -3,-5 -13,-10 -21,-10 -8,0 -12,5 -9,10 3,6 13,10 21,10 8,0 12,-4 9,-10 z m -1042,-34 c 15,-4 27,-10 27,-14 0,-12 -53,-32 -87,-32 -30,0 -33,-2 -27,-24 3,-13 1,-27 -5,-30 -7,-5 -8,-1 -5,9 5,11 2,14 -10,9 -9,-3 -16,-1 -16,5 0,6 5,11 12,11 6,0 3,7 -8,15 -21,16 -19,17 54,20 47,2 85,25 41,25 -25,0 -49,16 -49,32 0,5 10,2 23,-6 12,-7 34,-16 50,-20 z m 847,16 c 8,2 16,-5 18,-14 5,-24 -42,-35 -74,-18 -29,16 -32,34 -5,27 12,-3 22,1 26,11 5,13 8,13 14,4 4,-7 14,-12 21,-10 z M 828,3467 c 2,-11 -3,-17 -17,-17 -23,0 -35,15 -26,31 10,15 39,6 43,-14 z m 1362,3 c 12,-8 9,-10 -12,-10 -15,0 -30,5 -33,10 -8,13 25,13 45,0 z m -970,-10 c 0,-5 -4,-10 -10,-10 -5,0 -10,5 -10,10 0,6 5,10 10,10 6,0 10,-4 10,-10 z m -235,-27 c -7,-30 -25,-55 -25,-36 0,7 -9,9 -22,5 -21,-5 -22,-4 -8,14 38,48 65,57 55,17 z m 679,21 c 17,-6 22,-24 8,-24 -5,0 -17,7 -28,15 -19,15 -8,20 20,9 z m 216,-45 c 0,-22 -5,-26 -25,-26 -14,0 -25,3 -25,7 0,5 -3,15 -6,24 -4,12 0,16 15,16 13,0 21,6 21,18 0,14 2,15 10,2 5,-8 10,-27 10,-41 z m 210,30 c 19,-3 24,-9 22,-25 -2,-14 6,-27 23,-38 28,-18 33,-36 10,-36 -8,0 -15,7 -15,15 0,8 -8,15 -19,15 -20,0 -71,46 -71,65 0,16 12,27 19,16 3,-5 17,-11 31,-12 z m -729,-10 c 8,-13 -2,-79 -12,-79 -5,0 -9,7 -9,15 0,17 -16,20 -25,5 -12,-20 -25,1 -14,22 9,17 8,24 -5,33 -9,7 -16,15 -16,19 0,9 74,-5 81,-15 z m 224,11 c 3,-5 1,-10 -4,-10 -6,0 -11,-13 -11,-30 0,-30 -22,-42 -35,-19 -5,6 -12,4 -21,-8 -7,-10 -14,-13 -14,-6 0,6 8,18 18,25 11,7 24,23 31,36 13,24 26,28 36,12 z m -887,-42 c -2,-35 0,-43 16,-46 11,-2 24,2 30,10 31,42 73,3 60,-56 l -6,-29 -16,26 c -20,33 -37,35 -28,5 17,-61 18,-68 8,-68 -6,0 -13,14 -17,30 -10,46 -29,37 -22,-10 6,-49 -5,-52 -22,-5 -17,47 -35,46 -27,-2 6,-35 6,-36 -6,-14 -20,37 -40,40 -33,4 6,-25 5,-26 -8,-10 -22,27 -37,21 -35,-15 2,-26 -1,-33 -14,-32 -12,1 -18,-5 -18,-17 0,-16 3,-18 19,-9 11,5 21,10 23,10 2,0 5,-28 6,-61 2,-34 5,-66 8,-70 8,-14 34,-10 50,6 25,25 44,18 44,-14 0,-27 21,-61 39,-61 4,0 12,5 19,12 9,9 11,-1 9,-44 -1,-43 2,-61 16,-75 9,-10 26,-29 36,-43 16,-20 21,-22 34,-11 13,11 16,10 15,-6 -2,-20 29,-73 43,-73 12,0 12,-53 0,-66 -11,-10 -50,-164 -58,-227 -3,-22 0,-43 7,-52 14,-17 68,-45 87,-45 7,0 21,-4 31,-9 9,-5 35,-14 57,-21 67,-19 74,-29 83,-116 6,-52 20,-103 39,-145 29,-63 36,-87 68,-220 18,-77 19,-103 4,-130 -12,-23 2,-75 30,-111 10,-13 19,-25 19,-28 0,-3 7,-22 16,-44 22,-52 22,-166 1,-166 -9,0 -18,-12 -21,-29 -3,-16 -16,-34 -28,-40 -56,-29 -190,-42 -264,-26 -30,7 -82,58 -82,81 0,16 -65,54 -93,54 -14,0 -30,6 -34,13 -13,19 -72,47 -101,47 -15,-1 -62,-9 -105,-19 -67,-16 -83,-24 -112,-57 -19,-22 -34,-48 -35,-60 0,-11 -9,-29 -20,-39 -26,-24 -25,-33 7,-95 16,-32 37,-56 52,-62 33,-12 41,-25 41,-68 0,-24 6,-39 19,-47 11,-7 27,-28 36,-47 16,-34 16,-36 -4,-62 -35,-44 -28,-61 33,-78 30,-9 66,-16 80,-16 19,0 29,-7 36,-26 8,-21 15,-25 35,-22 27,6 32,-1 14,-19 -8,-8 -6,-19 7,-39 27,-41 45,-53 80,-54 22,0 33,-6 37,-19 4,-16 15,-19 88,-19 77,-1 86,-3 104,-27 12,-14 28,-25 36,-25 24,0 51,-35 47,-62 -3,-22 -6,-23 -83,-19 -44,2 -85,7 -90,11 -6,5 -35,12 -65,15 -30,4 -73,16 -96,26 -23,11 -51,18 -64,17 -20,-3 -25,3 -31,31 -10,46 -33,69 -53,51 -9,-7 -16,-23 -16,-35 0,-28 -23,-48 -48,-41 -10,3 -27,-1 -38,-9 -10,-8 -26,-15 -34,-15 -8,0 -28,-7 -44,-15 -23,-12 -36,-13 -59,-5 -17,5 -44,10 -62,10 -23,0 -39,9 -62,35 -39,44 -61,44 -95,1 -20,-25 -45,-40 -93,-56 -37,-12 -68,-20 -70,-19 -1,2 -5,193 -6,424 l -4,420 28,3 c 16,2 41,-1 56,-6 33,-12 48,-3 131,68 106,93 150,143 150,173 0,33 -20,27 -20,-6 -1,-26 -72,-106 -117,-133 -18,-10 -33,-22 -33,-26 0,-4 -20,-21 -44,-38 -39,-26 -48,-29 -72,-20 -15,6 -38,10 -50,8 l -23,-3 -5,895 -5,896 66,41 67,41 44,-34 c 33,-25 55,-34 83,-34 35,0 40,-4 53,-34 8,-18 20,-37 27,-41 7,-5 5,2 -4,16 -9,13 -17,33 -16,44 0,15 4,13 17,-13 14,-29 19,-32 46,-26 24,5 108,46 125,60 2,2 -4,11 -14,20 -14,15 -18,15 -26,3 -5,-8 -9,-22 -9,-31 0,-10 -3,-18 -7,-18 -5,0 -19,-3 -32,-7 -22,-6 -23,-4 -18,22 6,36 -2,63 -14,44 -4,-7 -16,-14 -26,-17 -26,-5 -144,-3 -154,4 -22,13 -5,21 39,19 26,-1 32,0 14,2 -32,4 -51,25 -92,102 l -12,24 31,-22 c 21,-15 40,-21 55,-17 16,4 30,-1 46,-19 13,-14 32,-25 43,-25 11,0 29,-7 39,-17 10,-9 18,-12 18,-7 -1,17 -25,41 -49,49 -21,6 -22,9 -8,17 12,6 24,4 42,-9 13,-10 25,-20 25,-23 1,-12 42,-72 46,-67 11,11 -30,89 -55,102 l -26,14 25,-3 c 14,-1 32,-6 39,-10 18,-11 26,1 12,18 -10,12 -8,17 8,25 11,6 26,11 34,11 31,0 93,43 135,94 25,31 44,19 40,-26 z m 182,23 c 0,-5 3,-17 6,-25 5,-12 2,-15 -10,-11 -9,3 -23,7 -32,10 -13,4 -14,8 -4,20 14,17 40,20 40,6 z m 766,-18 c -7,-7 -26,7 -26,19 0,6 6,6 15,-2 9,-7 13,-15 11,-17 z m 383,-7 c 6,-8 14,-32 17,-54 4,-34 0,-45 -22,-67 -20,-21 -32,-25 -53,-20 -37,9 -71,33 -71,50 0,8 -4,15 -10,15 -5,0 -10,-8 -10,-17 1,-22 23,-53 38,-53 6,0 9,-7 6,-15 -4,-9 -19,-15 -35,-15 -26,0 -28,2 -23,29 5,22 2,30 -10,33 -14,2 -11,9 14,36 16,18 30,40 30,48 0,20 34,52 62,56 26,5 49,-4 67,-26 z m 360,7 c 10,-19 9,-23 -3,-23 -16,0 -29,27 -20,42 7,11 7,10 23,-19 z m -1109,3 c 0,-3 -4,-8 -10,-11 -5,-3 -10,-1 -10,4 0,6 5,11 10,11 6,0 10,-2 10,-4 z m 514,-45 c -4,-24 -2,-41 5,-45 6,-4 11,-14 11,-23 0,-9 7,-25 17,-35 9,-10 11,-18 5,-18 -16,0 -52,73 -52,104 0,25 9,56 16,56 2,0 1,-17 -2,-39 z m -653,-1 c 27,0 24,-24 -6,-40 -21,-11 -29,-11 -50,0 -14,7 -25,19 -25,27 0,7 11,13 25,13 17,0 25,6 26,18 1,16 2,16 6,0 2,-10 13,-18 24,-18 z m 104,20 c 3,-5 1,-10 -4,-10 -6,0 -11,5 -11,10 0,6 2,10 4,10 3,0 8,-4 11,-10 z m -35,-10 c 0,-5 -4,-10 -10,-10 -5,0 -10,5 -10,10 0,6 5,10 10,10 6,0 10,-4 10,-10 z m -198,-30 c -6,-15 -11,-19 -16,-12 -4,7 -1,18 6,26 17,19 20,14 10,-14 z m 458,13 24,-17 -24,-6 c -16,-4 -26,-14 -28,-28 -2,-12 -10,-22 -19,-22 -11,0 -14,7 -10,26 3,20 0,28 -14,31 -15,4 -17,8 -8,19 16,19 49,18 79,-3 z m -580,-7 c 0,-2 -7,-9 -15,-16 -13,-11 -14,-10 -9,4 5,14 24,23 24,12 z m 1310,-6 c 0,-5 -5,-10 -11,-10 -5,0 -7,5 -4,10 3,6 8,10 11,10 2,0 4,-4 4,-10 z m -2000,-2 c 0,-9 -70,-69 -70,-61 0,17 41,63 56,63 8,0 14,-1 14,-2 z m 1046,-38 c 1,-13 7,-26 13,-28 22,-7 10,-22 -18,-22 -39,0 -54,20 -41,55 13,33 44,31 46,-5 z m -386,-6 c 0,-16 -2,-16 -24,-8 -22,8 -20,19 4,21 11,1 20,-4 20,-13 z m 500,8 c 0,-5 -11,-15 -25,-22 -28,-15 -66,-89 -62,-123 1,-14 -5,-23 -18,-25 -11,-2 -23,-9 -27,-15 -11,-19 -21,0 -14,28 4,14 20,37 36,52 17,14 30,32 30,40 0,7 14,26 31,43 32,30 49,38 49,22 z m 174,-31 c -9,-10 -26,18 -18,30 5,9 9,8 14,-7 4,-10 6,-21 4,-23 z m 572,-4 c 22,-12 17,-24 -13,-30 -42,-8 -54,12 -29,46 18,25 22,26 25,10 2,-10 9,-22 17,-26 z m -811,23 c 3,-5 1,-10 -4,-10 -6,0 -11,5 -11,10 0,6 2,10 4,10 3,0 8,-4 11,-10 z m -135,-22 c 23,-25 28,-96 8,-116 -7,-7 -8,-12 -4,-12 5,0 -3,-9 -16,-20 -21,-16 -31,-18 -60,-9 -20,5 -41,16 -48,24 -7,8 -19,15 -26,15 -19,0 -18,10 4,26 16,12 15,13 -5,14 -12,0 -25,5 -29,12 -5,8 0,9 14,6 27,-7 30,16 5,32 -15,9 -14,10 9,6 15,-4 30,-1 34,5 7,12 62,38 81,39 7,0 21,-10 33,-22 z M 120,3251 c 0,-5 -7,-14 -15,-21 -12,-10 -15,-10 -15,2 0,8 3,18 7,21 9,10 23,9 23,-2 z m 1358,-5 c 14,-9 16,-42 3,-51 -5,-3 -11,5 -13,17 -2,19 -8,22 -35,20 -36,-4 -73,5 -73,17 0,10 102,7 118,-3 z m -611,-13 c -5,-25 20,-73 39,-73 8,0 18,-10 23,-22 5,-13 18,-32 30,-42 11,-11 21,-24 21,-29 0,-6 -3,-7 -7,-4 -10,10 -33,-13 -33,-33 0,-10 7,-23 16,-31 17,-14 15,-91 -6,-159 -5,-19 -10,-47 -10,-62 0,-16 -5,-28 -11,-28 -6,0 -9,9 -6,20 3,11 1,20 -4,20 -14,0 -10,54 6,76 20,26 19,34 -5,34 -16,0 -19,5 -14,24 7,29 -9,41 -35,27 -15,-9 -17,-17 -11,-51 4,-22 3,-40 -1,-40 -5,0 -9,-7 -9,-16 0,-8 -4,-12 -10,-9 -5,3 -10,22 -10,40 0,26 -3,33 -15,29 -20,-8 -20,45 0,72 18,23 20,74 3,74 -33,0 -58,-14 -58,-31 0,-10 -5,-21 -11,-25 -8,-4 -10,10 -8,47 3,40 1,53 -9,51 -11,-2 -11,18 3,63 1,6 -5,12 -16,12 -12,1 -16,-3 -12,-13 3,-8 0,-14 -6,-14 -6,0 -11,-8 -11,-19 0,-12 -7,-18 -17,-17 -13,1 -19,-7 -21,-26 -2,-16 -8,-28 -13,-28 -13,0 -11,47 4,70 10,17 9,22 -2,29 -20,13 -7,26 41,40 24,7 59,20 79,30 20,10 48,17 62,17 15,-1 27,2 27,6 0,4 5,8 11,8 6,0 9,-8 6,-17 z m 463,2 c 0,-8 -4,-15 -10,-15 -5,0 -10,7 -10,15 0,8 5,15 10,15 6,0 10,-7 10,-15 z M 224,3224 c 16,-6 23,-34 8,-34 -10,0 -32,22 -32,32 0,10 3,10 24,2 z m 1811,-24 c -3,-38 -11,-46 -29,-31 -8,7 -24,10 -36,6 -13,-4 -20,-2 -20,6 0,23 33,49 60,49 25,0 27,-3 25,-30 z m -675,10 c 0,-5 -4,-10 -10,-10 -5,0 -10,5 -10,10 0,6 5,10 10,10 6,0 10,-4 10,-10 z m 785,-10 c 3,-5 1,-10 -4,-10 -6,0 -11,5 -11,10 0,6 2,10 4,10 3,0 8,-4 11,-10 z M 945,3190 c 3,-5 3,-15 -1,-21 -6,-11 -23,6 -24,24 0,10 18,9 25,-3 z m 375,0 c 0,-5 -4,-10 -10,-10 -5,0 -10,5 -10,10 0,6 5,10 10,10 6,0 10,-4 10,-10 z m 583,-17 c 4,-29 26,-53 49,-53 21,0 30,-16 32,-61 1,-17 9,-35 19,-40 9,-6 17,-17 17,-24 0,-17 -16,-20 -25,-5 -4,6 -10,8 -15,5 -5,-3 -10,20 -12,52 -3,51 -6,58 -25,61 -13,2 -23,8 -23,13 0,6 -4,8 -9,5 -9,-6 -21,26 -21,58 0,24 8,17 13,-11 z m 51,-13 c 23,0 46,-17 46,-33 0,-5 -6,-5 -12,1 -7,5 -24,12 -38,14 -20,2 -25,9 -27,33 -1,20 0,23 4,8 3,-16 12,-23 27,-23 z M 52,3158 c -9,-9 -12,-7 -12,12 0,19 3,21 12,12 9,-9 9,-15 0,-24 z m 1811,17 c -3,-9 -8,-14 -10,-11 -3,3 -2,9 2,15 9,16 15,13 8,-4 z m -525,-40 c -6,-14 -16,-25 -22,-25 -6,0 -5,5 2,12 7,7 12,20 12,31 0,10 4,16 10,12 6,-3 5,-15 -2,-30 z m 757,5 c 3,-6 -1,-7 -10,-4 -8,4 -22,1 -30,-6 -9,-8 -15,-8 -15,-2 0,19 45,29 55,12 z m -745,-35 c -7,-8 -17,-15 -23,-15 -6,0 -2,7 9,15 25,19 30,19 14,0 z m 65,5 c 3,-5 1,-10 -4,-10 -6,0 -11,5 -11,10 0,6 2,10 4,10 3,0 8,-4 11,-10 z m 685,0 c 0,-5 -9,-10 -20,-10 -11,0 -20,5 -20,10 0,6 9,10 20,10 11,0 20,-4 20,-10 z m -1050,-10 c 13,-8 12,-11 -5,-24 -11,-9 -23,-16 -26,-16 -12,0 -17,39 -5,44 17,7 20,6 36,-4 z m 178,-38 c 3,-16 -2,-22 -16,-22 -22,0 -32,17 -24,38 7,20 37,9 40,-16 z m 87,18 c 4,-6 10,-8 15,-5 5,3 11,2 14,-3 2,-4 -9,-14 -25,-21 -27,-12 -32,-11 -50,5 l -21,19 24,6 c 34,10 36,10 43,-1 z m -147,-15 c 2,-2 -6,-13 -18,-25 -25,-25 -40,-19 -40,17 0,22 3,24 27,18 16,-4 29,-8 31,-10 z m 262,-3 c 0,-9 -3,-12 -7,-9 -3,4 -14,0 -24,-9 -21,-19 -39,-11 -39,16 0,16 7,19 35,18 24,-1 35,-6 35,-16 z m 604,-24 c 6,-5 2,-8 -11,-8 -16,0 -23,6 -23,18 0,26 14,38 19,15 2,-10 8,-21 15,-25 z m -964,3 c 0,-23 -9,-31 -26,-24 -17,6 -18,25 -2,41 14,14 28,6 28,-17 z m 1290,5 c 0,-2 -9,-2 -20,1 -11,3 -20,9 -20,15 0,5 9,4 20,-2 11,-6 20,-12 20,-14 z m -1356,-5 c 17,-7 16,-8 -7,-24 -22,-15 -26,-15 -31,-1 -11,29 3,39 38,25 z m 96,-7 c 0,-8 -4,-12 -10,-9 -5,3 -10,10 -10,16 0,5 5,9 10,9 6,0 10,-7 10,-16 z m 370,1 c 0,-8 -4,-15 -10,-15 -5,0 -10,7 -10,15 0,8 5,15 10,15 6,0 10,-7 10,-15 z m -300,-5 c 0,-5 -5,-10 -11,-10 -5,0 -7,5 -4,10 3,6 8,10 11,10 2,0 4,-4 4,-10 z m 30,-59 c 0,-45 -6,-37 -13,18 -4,29 -2,40 4,30 5,-7 9,-29 9,-48 z m 121,12 c 15,-41 6,-48 -12,-9 -9,20 -12,36 -8,36 5,0 14,-12 20,-27 z m -270,0 c 13,-16 12,-17 -3,-4 -10,7 -18,15 -18,17 0,8 8,3 21,-13 z m 1044,-13 c 1,-11 -4,-20 -11,-20 -7,0 -20,-3 -29,-6 -15,-6 -16,-4 -3,17 24,43 40,46 43,9 z m -967,-10 c 4,0 8,-19 9,-42 1,-43 -9,-58 -37,-57 -8,0 -5,4 8,9 12,5 22,14 22,20 0,13 -47,13 -55,0 -10,-17 -25,-11 -25,9 0,10 7,22 16,25 9,3 14,13 11,20 -6,16 11,27 31,20 8,-2 17,-4 20,-4 z m 68,-36 c 9,3 14,-1 14,-14 0,-24 29,-98 81,-208 29,-61 38,-87 30,-95 -16,-16 -34,6 -36,45 -1,18 -7,46 -13,61 -7,16 -12,33 -12,38 0,5 -9,9 -20,9 -20,0 -28,25 -11,32 5,2 1,21 -10,42 -10,22 -19,46 -19,54 0,10 -9,6 -25,-12 -23,-25 -25,-25 -25,-7 0,12 5,21 11,21 7,0 9,9 6,21 -3,11 -3,28 1,37 6,14 7,12 10,-6 2,-16 8,-22 18,-18 z m -156,16 c 0,-5 -5,-10 -11,-10 -6,0 -9,-7 -5,-15 3,-8 1,-15 -3,-15 -5,0 -14,-17 -19,-37 l -10,-38 2,51 c 2,28 6,56 10,62 9,15 36,16 36,2 z m 1135,0 c 3,-5 15,-10 26,-10 20,0 26,-15 9,-25 -13,-8 -72,24 -65,35 8,13 22,13 30,0 z m -918,-22 c -3,-8 -6,-5 -6,6 -1,11 2,17 5,13 3,-3 4,-12 1,-19 z m 214,-11 c -13,-12 -20,-15 -16,-7 14,26 28,41 33,35 3,-3 -5,-16 -17,-28 z m -67,-56 c -2,-2 -11,2 -20,10 -9,7 -23,14 -31,15 -26,4 -40,24 -23,34 10,6 23,0 46,-23 17,-18 30,-34 28,-36 z m 744,53 c 21,-14 31,-62 16,-77 -13,-13 -104,57 -104,80 0,18 60,17 88,-3 z m -723,-4 c 3,-5 1,-10 -4,-10 -6,0 -11,5 -11,10 0,6 2,10 4,10 3,0 8,-4 11,-10 z m 180,-36 c 8,-20 15,-44 15,-54 0,-18 -48,-46 -59,-34 -3,4 0,9 7,11 14,5 16,43 2,43 -14,0 -13,43 2,58 16,16 16,17 33,-24 z m -578,-16 c -3,-8 -6,-5 -6,6 -1,11 2,17 5,13 3,-3 4,-12 1,-19 z m 30,0 c -3,-8 -6,-5 -6,6 -1,11 2,17 5,13 3,-3 4,-12 1,-19 z m 1651,16 c 12,-4 22,-11 22,-16 0,-5 -5,-6 -10,-3 -6,3 -13,-1 -16,-10 -5,-12 -9,-13 -20,-4 -8,6 -14,8 -14,4 0,-5 -2,-6 -5,-3 -7,6 5,38 14,38 3,0 16,-3 29,-6 z m -1321,-25 c 7,-7 22,-12 35,-13 18,-1 25,-9 33,-40 9,-37 8,-40 -25,-67 -19,-16 -43,-29 -53,-29 -23,0 -57,36 -57,60 0,39 13,80 26,80 8,0 14,5 14,10 0,13 13,13 27,-1 z m -250,-24 c -4,-8 -14,-15 -23,-15 -16,0 -16,2 1,20 20,22 31,20 22,-5 z m -97,-10 c 0,-18 -5,-25 -20,-25 -11,0 -20,7 -20,15 0,8 7,15 15,15 8,0 15,5 15,10 0,6 2,10 5,10 3,0 5,-11 5,-25 z m 127,-7 c -3,-7 -5,-2 -5,12 0,14 2,19 5,13 2,-7 2,-19 0,-25 z m 1061,14 c 3,-9 -2,-13 -14,-10 -9,1 -19,9 -22,16 -3,9 2,13 14,10 9,-1 19,-9 22,-16 z m -1152,-19 c -10,-10 -19,5 -10,18 6,11 8,11 12,0 2,-7 1,-15 -2,-18 z m -91,7 c 3,-5 1,-10 -4,-10 -6,0 -11,5 -11,10 0,6 2,10 4,10 3,0 8,-4 11,-10 z m 538,-20 c 14,-11 28,-20 31,-20 3,0 27,-13 53,-30 26,-16 43,-30 37,-30 -5,0 -22,9 -39,20 -36,24 -65,26 -65,5 0,-20 -6,-19 -30,5 -11,11 -20,29 -20,39 0,11 -6,22 -12,24 -9,4 -7,6 3,6 9,1 28,-8 42,-19 z m 107,-15 c -7,-8 -18,-15 -24,-15 -6,0 -2,7 8,15 25,19 32,19 16,0 z m -594,-85 c 2,-75 -6,-93 -33,-83 -8,3 -11,13 -7,25 4,14 2,18 -5,14 -6,-4 -11,0 -11,10 0,30 -11,8 -25,-48 l -13,-53 -1,63 c -1,47 3,64 14,68 8,4 15,14 15,23 0,13 2,13 9,2 6,-9 11,-10 15,-2 4,6 5,15 2,20 -10,16 6,42 23,39 13,-3 16,-18 17,-78 z m 44,46 c 0,-19 -4,-38 -10,-41 -6,-4 -10,10 -10,34 0,23 5,41 10,41 6,0 10,-15 10,-34 z m 79,-20 c 1,-15 -2,-16 -14,-6 -16,13 -20,42 -8,54 8,8 21,-20 22,-48 z m 516,34 c -3,-5 -10,-10 -16,-10 -5,0 -9,5 -9,10 0,6 7,10 16,10 8,0 12,-4 9,-10 z m -425,-19 c 0,-5 -7,-14 -15,-21 -8,-7 -15,-21 -15,-32 0,-14 -5,-18 -15,-14 -8,3 -15,0 -15,-6 0,-6 -3,-8 -6,-5 -8,8 16,69 30,79 15,10 36,10 36,-1 z m 247,-52 c 27,0 27,-1 6,-9 -19,-8 -22,-14 -17,-40 5,-23 3,-30 -10,-30 -9,0 -16,5 -16,10 0,6 -12,10 -26,10 -21,0 -25,3 -19,18 4,9 10,27 12,39 4,18 9,21 23,13 10,-6 31,-10 47,-11 z m 173,1 c 0,-5 -4,-10 -9,-10 -6,0 -13,5 -16,10 -3,6 1,10 9,10 9,0 16,-4 16,-10 z m -593,-45 c -1,-19 -5,-35 -9,-35 -4,0 -8,16 -8,35 0,19 4,35 9,35 5,0 9,-16 8,-35 z m 90,15 c 3,-11 10,-20 15,-20 5,0 6,-10 3,-21 -5,-15 -4,-19 4,-15 6,4 11,3 11,-3 0,-5 -5,-13 -11,-16 -5,-4 -14,-18 -19,-31 -11,-27 -60,-35 -60,-10 0,8 -3,22 -6,30 -4,11 -2,15 7,11 8,-3 21,0 29,5 13,9 13,11 0,19 -8,5 -17,8 -22,5 -6,-4 -28,27 -28,41 0,7 39,23 58,24 8,1 16,-8 19,-19 z m 577,4 c 9,-3 16,-15 16,-25 0,-18 -1,-19 -25,-3 -38,25 -31,44 9,28 z m -514,-28 c 0,-8 9,-18 20,-21 11,-3 20,-10 20,-16 0,-12 -43,-7 -52,6 -11,15 -10,45 2,45 6,0 10,-6 10,-14 z m 140,-58 c 43,-100 64,-123 131,-142 61,-17 61,-17 55,-49 -8,-39 -36,-69 -69,-73 -20,-2 -28,6 -47,42 -15,30 -20,54 -15,71 3,14 3,29 -2,32 -28,21 -82,102 -77,115 4,10 1,16 -9,16 -10,0 -13,7 -10,20 8,32 19,24 43,-32 z m 240,33 c 0,-11 -4,-23 -10,-26 -5,-3 -10,1 -10,9 0,22 -17,28 -41,16 -11,-7 -23,-9 -26,-6 -8,7 36,25 65,25 15,1 22,-5 22,-18 z m 230,-6 c 0,-8 -7,-15 -15,-15 -16,0 -20,12 -8,23 11,12 23,8 23,-8 z m -815,-47 c -2,-18 -3,-39 -4,-46 -1,-18 -26,-10 -27,9 -1,8 -2,18 -3,23 0,5 -8,3 -16,-4 -12,-10 -15,-9 -15,7 0,18 30,41 56,42 7,1 11,-12 9,-31 z m 740,22 c -3,-5 0,-7 9,-4 10,4 20,-5 30,-30 12,-30 20,-36 45,-36 16,0 33,-4 36,-10 3,-5 1,-10 -5,-10 -6,0 -18,-7 -26,-15 -22,-21 -36,-19 -29,5 8,26 -1,25 -37,-5 -33,-28 -37,-29 -58,-15 -12,8 -11,12 7,32 27,30 24,72 -6,76 -33,5 -73,-25 -66,-48 6,-20 -20,-41 -46,-36 -30,7 -79,31 -79,39 0,17 21,47 32,47 9,0 9,-3 0,-12 -18,-18 -15,-35 7,-41 13,-3 18,0 16,12 -1,9 0,10 2,3 3,-7 9,-10 14,-7 5,3 6,-1 3,-9 -12,-31 17,-15 38,20 11,20 30,40 42,44 30,12 78,12 71,0 z m -525,-10 c 0,-5 -4,-10 -10,-10 -5,0 -10,5 -10,10 0,6 5,10 10,10 6,0 10,-4 10,-10 z m -193,-152 c -2,-29 -3,-6 -3,52 0,58 1,81 3,53 2,-29 2,-77 0,-105 z m -107,105 c 0,-39 -13,-55 -35,-47 -17,7 -17,8 3,15 15,6 22,17 22,34 0,14 2,25 5,25 3,0 5,-12 5,-27 z m 365,7 c 4,-6 -7,-10 -25,-10 -18,0 -29,4 -25,10 3,6 15,10 25,10 10,0 22,-4 25,-10 z m -225,-20 c 0,-5 -4,-10 -10,-10 -5,0 -10,5 -10,10 0,6 5,10 10,10 6,0 10,-4 10,-10 z m 120,-1 c 0,-5 4,-8 8,-5 11,7 39,-93 33,-119 -3,-14 -7,-6 -15,24 -12,49 -36,68 -36,29 v -23 l -18,23 c -14,18 -20,20 -30,10 -16,-16 -15,-7 2,27 20,38 56,60 56,34 z m -60,-9 c 0,-5 -2,-10 -4,-10 -3,0 -8,5 -11,10 -3,6 -1,10 4,10 6,0 11,-4 11,-10 z m 570,-22 c 0,-13 -23,-5 -28,10 -2,7 2,10 12,6 9,-3 16,-11 16,-16 z m -327,-22 c 17,-18 10,-76 -9,-76 -8,0 -14,9 -14,19 0,12 -8,21 -22,24 l -23,4 23,8 c 12,4 22,14 22,21 0,18 5,18 23,0 z m 164,8 c -3,-3 -12,-4 -19,-1 -8,3 -5,6 6,6 11,1 17,-2 13,-5 z m -583,-20 c 3,-8 2,-12 -4,-9 -6,3 -10,10 -10,16 0,14 7,11 14,-7 z m 583,0 c -3,-3 -12,-4 -19,-1 -8,3 -5,6 6,6 11,1 17,-2 13,-5 z m -617,-31 c 0,-19 -3,-24 -10,-17 -6,6 -8,18 -4,27 9,24 14,21 14,-10 z m 670,-58 c -7,-9 -15,-13 -17,-11 -7,7 7,26 19,26 6,0 6,-6 -2,-15 z m -183,-37 c 17,-14 7,-28 -21,-28 -14,0 -27,9 -33,23 -10,22 -9,24 15,19 15,-3 33,-9 39,-14 z m -114,-24 c 21,-18 41,-24 74,-24 39,0 44,-2 38,-17 -18,-44 -17,-121 3,-179 12,-33 24,-100 28,-151 6,-83 5,-95 -15,-127 -25,-39 -77,-76 -109,-76 -17,0 -24,11 -36,51 -9,28 -18,67 -22,87 -12,70 -36,147 -66,207 -18,37 -33,86 -38,130 -4,39 -11,77 -14,86 -5,10 3,20 26,32 42,21 92,14 131,-19 z m 351,4 c 11,-42 7,-58 -14,-58 -39,0 -19,-18 38,-34 31,-9 69,-24 83,-33 56,-38 118,-135 130,-203 8,-50 -7,-119 -28,-127 -7,-3 -41,19 -75,49 -35,30 -85,70 -113,89 -27,19 -59,42 -70,52 -11,10 -41,34 -67,54 -36,28 -51,49 -68,94 -31,86 -14,109 78,109 26,0 56,7 66,15 27,20 33,19 40,-7 z m 795,-47 c 11,-7 10,-12 -6,-28 -11,-11 -22,-27 -26,-36 -6,-16 -37,-25 -37,-10 0,3 8,24 17,45 17,39 27,44 52,29 z m -1003,-68 c 15,-58 43,-90 144,-166 138,-101 240,-189 240,-205 0,-7 -7,-15 -15,-18 -19,-8 -9,-24 14,-24 10,0 29,-9 43,-19 13,-11 37,-23 52,-27 27,-6 96,-68 96,-86 0,-4 -7,-8 -15,-8 -31,0 -13,-19 33,-35 93,-33 103,-38 110,-49 4,-6 22,-22 40,-34 38,-27 67,-24 114,10 l 29,20 -7,-26 c -4,-19 -2,-26 9,-26 8,0 19,6 24,13 10,12 9,97 -1,123 -3,7 -1,16 4,19 6,4 10,-3 10,-15 0,-13 5,-20 13,-17 6,2 12,12 12,21 0,10 9,25 21,35 17,13 19,22 12,48 -5,18 -18,40 -31,49 -22,16 -21,16 16,10 43,-8 47,-1 12,26 -14,11 -25,29 -25,40 0,19 1,19 25,4 13,-9 40,-16 58,-16 20,0 46,-9 63,-22 38,-29 44,-39 41,-63 -1,-14 5,-21 21,-23 12,-2 22,-7 22,-12 0,-5 -13,-5 -30,0 -29,8 -42,-2 -19,-15 12,-8 2,-62 -17,-90 -19,-27 -18,-49 7,-118 24,-66 21,-127 -5,-156 -22,-24 -20,-34 4,-21 11,6 26,23 35,38 l 15,27 -6,-27 c -8,-36 3,-36 18,0 l 11,27 8,-30 c 7,-29 7,-29 14,-7 11,34 27,6 20,-33 -5,-27 -5,-28 8,-12 8,9 17,17 20,17 2,0 14,-21 26,-46 12,-25 27,-44 34,-41 7,2 20,0 30,-5 11,-6 17,-5 17,2 0,6 5,8 11,5 6,-5 3,-12 -9,-21 -18,-12 -19,-22 -15,-76 3,-35 10,-69 16,-76 16,-20 27,-120 20,-183 -5,-48 -10,-58 -39,-78 -50,-34 -63,-16 -20,28 34,35 36,41 30,80 -4,27 -20,58 -45,89 -26,31 -47,71 -61,119 -12,40 -25,73 -30,73 -4,0 -8,-5 -8,-10 0,-11 -47,16 -65,36 -13,14 -76,36 -84,29 -3,-3 1,-15 8,-27 11,-18 11,-20 -4,-14 -9,3 -21,6 -26,6 -6,0 -5,8 1,20 9,16 8,22 -5,26 -8,3 -15,15 -15,25 0,10 -4,19 -10,19 -5,0 -10,-7 -10,-16 0,-14 -3,-14 -15,-4 -8,7 -15,20 -15,30 0,10 -9,20 -20,23 -17,4 -19,1 -14,-21 6,-25 5,-26 -8,-8 -12,15 -19,16 -34,8 -12,-6 -63,-9 -121,-8 -86,3 -106,1 -130,-15 -39,-26 -65,-25 -61,2 4,29 119,71 208,76 80,5 100,10 81,23 -11,6 -10,14 8,39 21,29 21,31 4,31 -24,0 -43,-19 -43,-42 0,-38 -64,-44 -73,-6 -4,14 -11,19 -23,14 -12,-5 -15,-2 -10,10 7,18 -19,48 -34,39 -5,-3 -10,0 -10,7 0,22 -87,85 -137,98 -50,14 -66,27 -58,48 7,18 -13,15 -23,-5 -10,-17 12,-42 51,-56 33,-12 21,-58 -28,-110 -40,-41 -51,-47 -86,-47 -42,0 -137,-43 -146,-67 -3,-7 -13,-13 -23,-13 -10,0 -23,-7 -30,-15 -8,-10 -31,-15 -71,-15 -53,0 -59,2 -59,20 0,12 -8,32 -17,46 -13,21 -17,55 -19,167 -2,78 1,146 6,152 5,6 8,42 8,80 -1,62 -4,73 -28,100 -24,26 -28,41 -33,110 -2,44 -12,98 -21,119 -18,42 -22,126 -6,126 5,0 13,-12 16,-27 z m 812,-33 c 17,0 15,-8 -16,-69 -20,-41 -34,-56 -55,-62 -24,-7 -28,-5 -22,9 11,26 23,62 35,110 11,41 13,43 29,28 10,-9 23,-16 29,-16 z m -290,-132 c 6,-6 8,-17 3,-27 -5,-9 -11,-43 -15,-76 -6,-55 -5,-58 9,-41 8,11 15,31 15,45 0,21 2,23 10,11 13,-21 13,-81 -1,-77 -6,1 -16,-7 -22,-18 -12,-19 -21,-31 -45,-60 -13,-15 -16,-15 -31,-1 -10,9 -25,16 -34,16 -9,0 -17,5 -17,11 0,5 4,8 10,4 5,-3 23,18 40,47 23,42 30,65 30,110 0,51 6,64 31,67 3,1 10,-4 17,-11 z m 973,-28 c -13,-11 -28,-20 -35,-20 -6,1 0,10 13,20 13,11 28,20 35,20 6,-1 0,-10 -13,-20 z m -87,-15 c -4,-8 -1,-22 5,-29 7,-9 8,-15 2,-18 -6,-2 -5,-30 4,-75 13,-66 12,-75 -5,-110 -27,-56 -115,-125 -95,-75 3,9 8,73 10,142 4,125 4,125 35,153 33,30 53,35 44,12 z m 115,-162 -2,-98 -11,90 c -12,93 -12,105 5,105 5,0 8,-42 8,-97 z m -52,71 c 3,-8 1,-20 -4,-25 -7,-7 -12,-2 -15,15 -6,28 9,36 19,10 z m -839,-55 c 20,-23 61,-64 90,-92 28,-27 52,-57 52,-66 0,-9 -20,-34 -45,-54 -37,-31 -48,-36 -64,-27 -11,5 -29,10 -41,10 -19,0 -21,4 -15,29 3,17 2,32 -4,36 -6,3 -8,17 -5,31 4,17 1,26 -11,30 -14,6 -16,17 -11,68 3,33 5,64 5,69 2,14 12,7 49,-34 z m -594,-5 c 12,-32 5,-55 -30,-94 -23,-25 -31,-40 -22,-40 8,0 23,9 33,20 10,11 22,17 27,12 12,-12 -17,-65 -51,-90 -26,-19 -38,-21 -90,-16 -41,5 -58,10 -55,19 3,7 -3,16 -13,20 -17,7 -17,8 2,15 19,9 19,9 -3,16 -13,3 -21,11 -20,16 4,11 8,11 43,2 54,-13 155,63 155,119 0,21 16,22 24,1 z m 1433,-21 c -3,-10 -5,-4 -5,12 0,17 2,24 5,18 2,-7 2,-21 0,-30 z m -62,-213 c -3,-15 3,-24 20,-30 14,-5 25,-14 25,-19 0,-14 43,-21 57,-9 10,8 13,5 13,-13 0,-23 -2,-24 -75,-23 -73,2 -76,1 -90,-26 -14,-26 -11,-40 7,-40 4,0 8,9 8,19 0,10 7,22 16,25 23,9 29,0 13,-20 -12,-15 -11,-16 9,-10 29,9 29,-7 0,-23 l -23,-12 22,5 c 13,2 26,0 29,-5 3,-5 -1,-9 -9,-9 -26,0 -27,-29 -3,-52 13,-13 26,-30 29,-39 4,-13 -1,-13 -47,2 -49,17 -51,19 -50,53 1,37 -11,49 -19,19 -4,-14 -5,-12 -6,5 -1,12 -7,22 -16,22 -8,0 -15,9 -15,20 0,13 5,18 15,14 10,-4 15,0 15,15 0,11 9,26 20,33 11,7 20,16 20,20 0,14 -38,9 -43,-5 -3,-8 -22,-22 -42,-31 -49,-23 -66,-8 -31,27 13,14 27,23 30,20 2,-3 3,3 2,14 -3,14 -11,17 -37,15 l -34,-3 24,23 c 16,16 25,19 28,11 5,-14 35,-18 47,-6 3,4 16,8 29,10 12,2 26,8 31,13 17,17 35,11 31,-10 z m -1466,-16 c 2,-10 9,-22 16,-26 7,-5 11,-17 8,-28 -4,-14 0,-20 10,-20 12,0 15,11 14,48 -2,44 0,47 23,49 22,1 22,1 3,-4 -25,-5 -32,-23 -9,-23 10,0 16,-19 20,-67 4,-38 8,-89 11,-115 2,-30 0,-48 -7,-48 -7,0 -6,-5 2,-15 7,-8 9,-15 5,-15 -5,0 -1,-8 9,-19 15,-17 15,-19 0,-32 -14,-11 -17,-11 -25,4 -12,21 -33,23 -25,2 4,-12 2,-13 -13,-6 -24,13 -61,3 -54,-15 4,-10 0,-12 -11,-8 -11,4 -16,1 -16,-11 0,-11 -5,-15 -14,-12 -8,3 -32,-11 -54,-32 -37,-35 -125,-71 -140,-57 -2,3 8,18 24,34 16,16 45,46 64,68 19,22 43,43 53,47 10,4 27,28 38,54 17,40 20,63 17,141 -4,78 -2,92 11,93 9,0 0,6 -19,12 l -35,11 35,6 c 46,9 54,7 59,-16 z m 1541,16 c 0,-5 -4,-10 -10,-10 -5,0 -10,5 -10,10 0,6 5,10 10,10 6,0 10,-4 10,-10 z m -280,-49 c 0,-13 -30,-22 -43,-14 -7,4 -2,10 13,14 14,4 26,7 28,8 1,1 2,-3 2,-8 z m -572,-17 c 22,-15 30,-57 14,-80 -8,-12 -122,-37 -131,-29 -3,3 12,19 32,36 27,22 37,38 37,60 0,33 14,37 48,13 z m 579,-32 c -10,-10 -17,-24 -17,-30 0,-13 64,-27 79,-17 16,9 13,-27 -4,-49 -12,-16 -12,-20 3,-36 9,-9 29,-20 44,-24 35,-8 49,-33 36,-65 l -9,-25 -23,25 c -13,14 -31,39 -39,55 -9,16 -33,47 -54,69 -54,56 -77,94 -61,99 7,3 20,7 28,9 29,10 33,7 17,-11 z m 287,-32 c 22,-8 26,-16 26,-47 0,-47 -13,-72 -26,-52 -5,8 -10,23 -11,33 -2,11 -12,26 -23,33 -11,8 -17,20 -14,28 7,18 14,18 48,5 z M 755,1386 c 23,-27 35,-34 52,-30 12,3 30,1 40,-5 12,-8 13,-11 3,-9 -14,1 -109,-16 -152,-28 -10,-3 -18,-9 -18,-14 0,-16 30,-18 82,-4 74,19 81,18 131,-20 24,-18 57,-36 73,-39 16,-4 44,-9 62,-13 18,-3 34,-9 37,-13 7,-12 -187,-61 -240,-61 -47,0 -51,2 -62,31 -10,27 -16,30 -45,27 -36,-3 -41,-21 -8,-26 12,-2 25,-15 31,-29 9,-26 4,-47 -11,-38 -13,8 -35,-24 -23,-36 11,-11 38,0 76,30 19,16 22,15 31,-15 5,-17 2,-23 -16,-27 -13,-3 -68,-17 -122,-31 -71,-19 -103,-23 -110,-16 -20,20 32,48 76,43 36,-5 38,-4 38,21 0,27 -14,32 -65,27 -11,-1 -37,3 -58,10 l -37,12 29,26 c 31,28 50,71 31,71 -6,0 -25,-7 -41,-16 -25,-12 -28,-18 -19,-29 10,-12 7,-17 -15,-25 -38,-15 -44,-13 -57,18 -7,15 -18,35 -26,44 -8,9 -11,22 -7,28 9,14 109,60 130,60 8,0 15,4 15,8 0,4 14,13 30,19 17,6 30,16 30,22 0,16 -52,14 -93,-4 -53,-22 -64,-18 -36,11 44,47 98,65 184,60 42,-3 53,-8 80,-40 z m 1412,20 c -6,-17 -41,-13 -45,5 -2,13 3,15 23,11 14,-2 24,-10 22,-16 z m -44,-43 32,-16 -30,-12 c -16,-7 -47,-15 -67,-19 -31,-6 -38,-4 -38,9 0,19 -10,19 -46,0 -32,-16 -121,-20 -143,-6 -29,19 0,33 54,26 33,-3 56,-2 60,5 3,5 18,10 33,10 15,0 34,5 42,10 23,15 67,12 103,-7 z m 637,-15 c 0,-6 -6,-5 -15,2 -8,7 -15,14 -15,16 0,2 7,1 15,-2 8,-4 15,-11 15,-16 z m -932,-58 c 24,-8 42,-19 42,-28 0,-11 7,-13 33,-7 17,3 49,9 70,12 36,6 39,4 35,-18 -4,-30 -58,-43 -148,-34 -114,10 -153,20 -147,38 6,20 48,20 62,1 11,-16 15,-16 29,-5 23,19 20,27 -14,41 -16,7 -30,17 -30,22 0,7 5,7 13,1 6,-5 31,-15 55,-23 z m 1062,-47 c 0,-10 -6,-13 -16,-9 -9,3 -18,6 -20,6 -2,0 -4,7 -4,15 0,10 -6,12 -17,8 -16,-6 -16,-5 -5,10 13,15 16,15 38,0 13,-8 24,-22 24,-30 z m 77,-90 c 0,-68 -1,-71 -21,-63 -12,4 -38,6 -59,4 -32,-3 -38,0 -43,22 -5,19 0,32 22,53 16,16 34,26 41,24 9,-3 13,4 13,21 0,14 5,26 10,26 6,0 10,8 10,18 1,13 4,11 14,-8 8,-15 14,-54 13,-97 z m -807,103 c 0,-3 -4,-8 -10,-11 -5,-3 -10,-1 -10,4 0,6 5,11 10,11 6,0 10,-2 10,-4 z m 132,-30 c 4,3 14,7 23,8 9,1 20,8 24,15 6,9 11,8 21,-4 7,-8 17,-15 23,-15 5,0 16,-8 23,-17 11,-16 16,-16 34,-5 19,12 21,11 18,-5 -3,-16 -18,-18 -178,-20 -96,0 -195,-6 -220,-12 -56,-13 -90,-14 -90,-2 0,5 26,13 58,17 31,3 74,15 95,26 21,10 43,18 50,16 21,-4 67,12 67,24 0,6 10,2 23,-10 13,-12 26,-20 29,-16 z m -648,9 c 20,-8 36,-17 36,-19 0,-2 -33,-3 -74,-2 -65,1 -77,-2 -99,-23 -14,-12 -31,-20 -37,-16 -6,4 -16,2 -23,-3 -7,-5 -34,-12 -62,-16 l -50,-7 25,20 c 14,11 39,21 57,21 17,0 35,5 39,11 3,6 17,8 30,5 17,-5 26,-1 34,13 6,13 23,21 48,24 20,2 38,4 38,5 1,1 18,-5 38,-13 z m 218,-66 c 9,-5 29,-9 43,-9 17,0 25,-5 22,-12 -6,-20 -83,-9 -130,19 l -42,24 45,-7 c 25,-3 53,-10 62,-15 z m -192,-4 c -8,-10 -30,-15 -61,-15 -63,0 -73,18 -12,23 27,2 56,4 67,5 15,2 16,-1 6,-13 z m 140,-37 c 20,-14 28,-28 25,-39 -7,-21 11,-36 56,-44 30,-6 36,-10 32,-26 -5,-18 -7,-18 -23,-4 -9,8 -33,15 -53,15 -32,0 -36,3 -34,23 2,18 -4,23 -30,25 -17,2 -47,-5 -65,-14 -18,-10 -37,-17 -42,-16 -4,2 -24,-2 -43,-9 -23,-7 -33,-16 -29,-25 7,-19 -4,-18 -45,4 l -34,17 43,3 c 40,3 61,22 23,22 -24,0 -81,20 -81,28 0,4 16,7 36,8 24,0 40,7 46,18 8,14 18,16 44,11 26,-4 34,-3 34,9 0,32 94,28 140,-6 z m 652,17 c 27,-4 61,-2 78,3 58,21 30,-22 -35,-54 l -48,-22 -24,29 c -22,25 -31,29 -78,29 -30,0 -66,5 -81,10 -19,8 -30,7 -41,-1 -27,-23 9,-42 85,-44 70,-2 100,-11 85,-26 -9,-9 -44,-10 -314,-5 -108,2 -202,6 -208,10 -17,11 -3,26 25,26 14,0 42,9 63,20 22,10 68,24 102,29 67,10 309,7 391,-4 z m 190,-22 c 37,-42 65,-119 73,-205 l 7,-77 -31,-16 c -26,-13 -35,-13 -54,-3 l -22,13 25,3 c 42,6 53,22 48,73 -4,34 -16,62 -47,106 -67,96 -67,179 1,106 z m -1552,-2 c 0,-11 9,-26 20,-34 25,-17 17,-22 -55,-33 -39,-5 -51,-4 -60,10 -11,14 -19,15 -56,7 -59,-14 -69,-13 -69,3 0,8 19,18 48,24 26,6 70,18 97,26 67,20 75,19 75,-3 z m 377,-15 c -2,-7 -47,-12 -133,-13 -110,-1 -125,0 -100,11 39,16 238,18 233,2 z m 1113,-35 c 0,-5 12,-24 26,-41 74,-87 85,-170 23,-170 -16,0 -29,-4 -29,-10 0,-15 -40,-32 -103,-46 -55,-11 -76,-6 -62,16 3,5 21,12 41,16 35,6 43,31 8,26 -60,-9 -127,-4 -135,10 -5,10 -31,18 -64,23 -30,3 -55,10 -55,14 0,9 85,23 238,41 81,9 122,23 122,39 0,22 -68,22 -143,1 -47,-14 -79,-8 -78,14 0,5 28,20 63,34 35,13 67,28 73,33 12,12 75,11 75,0 z m -1085,-49 c 43,-39 60,-75 42,-91 -7,-5 -28,-12 -48,-16 -27,-5 -38,-3 -42,8 -5,13 -11,13 -51,-1 -38,-14 -52,-15 -91,-4 -25,7 -54,12 -65,12 -11,0 -20,4 -20,9 0,12 -86,23 -174,23 -78,0 -78,15 -1,29 57,11 101,32 98,47 -5,20 104,32 227,24 80,-4 87,-7 125,-40 z m 1434,35 c 21,-10 25,-21 29,-66 5,-71 -3,-101 -28,-101 -12,0 -20,7 -21,18 -3,37 -5,42 -24,56 -19,15 -19,15 13,16 36,0 41,23 6,28 -31,5 -64,24 -64,38 0,24 51,31 89,11 z M 861,1037 c 15,-12 15,-14 -1,-35 -10,-12 -24,-22 -32,-22 -8,0 -23,-7 -34,-16 -18,-15 -17,-15 16,-10 18,4 37,10 40,15 6,11 60,26 60,17 0,-3 -37,-24 -82,-46 -66,-32 -93,-40 -138,-40 -34,0 -64,-6 -76,-15 -29,-22 -34,-18 -17,15 8,17 12,41 9,54 -5,20 1,24 52,40 31,10 71,24 87,31 69,29 91,31 116,12 z m 1423,-4 c 34,-9 63,-18 65,-20 2,-1 -4,-12 -15,-24 -15,-17 -26,-20 -57,-15 -21,4 -46,11 -56,18 -13,8 -41,8 -108,-1 -133,-17 -143,-16 -143,14 0,17 7,26 23,29 12,3 31,7 42,9 52,11 193,6 249,-10 z m -524,-3 c 12,-8 9,-10 -12,-10 -16,0 -28,5 -28,10 0,13 20,13 40,0 z m -685,-10 c -27,-12 -43,-12 -25,0 8,5 22,9 30,9 10,0 8,-3 -5,-9 z m 780,-30 c 3,-5 -3,-10 -14,-10 -12,0 -24,0 -28,-1 -4,0 -9,4 -11,10 -5,14 45,15 53,1 z m -95,-10 c 0,-5 -13,-10 -30,-10 -16,0 -30,5 -30,10 0,6 14,10 30,10 17,0 30,-4 30,-10 z m 785,0 c -11,-5 -31,-9 -45,-9 -23,0 -23,1 -5,9 11,5 31,9 45,9 23,0 23,-1 5,-9 z m -384,-23 c 17,-4 29,-16 33,-31 3,-13 9,-31 12,-39 4,-11 -4,-17 -25,-22 -47,-10 -89,2 -93,28 -3,20 -8,22 -53,19 -73,-5 -115,5 -115,28 0,10 5,20 10,22 19,6 204,2 231,-5 z M 905,933 c 12,-17 18,-17 99,0 63,13 91,15 105,8 11,-6 37,-11 59,-11 21,0 42,-3 46,-7 4,-5 24,-13 44,-19 l 37,-12 -42,-1 c -50,-1 -61,-14 -32,-35 21,-14 21,-14 -9,-30 -16,-8 -32,-24 -34,-34 -4,-14 -17,-21 -42,-24 -41,-5 -44,3 -15,43 13,18 29,29 45,29 15,0 24,6 24,15 0,12 -9,15 -35,12 -44,-5 -64,-22 -87,-75 -14,-31 -29,-46 -56,-58 -51,-21 -88,-28 -109,-19 -10,4 -26,9 -35,10 -26,3 -29,9 -20,35 6,15 34,36 82,59 65,33 89,58 50,55 -21,-3 -162,-44 -174,-52 -17,-10 -45,-13 -49,-4 -13,22 -16,62 -6,62 17,0 117,48 124,60 9,14 16,12 30,-7 z m 955,7 c 0,-5 -6,-10 -14,-10 -8,0 -18,5 -21,10 -3,6 3,10 14,10 12,0 21,-4 21,-10 z m -90,-10 c 0,-5 -13,-10 -29,-10 -17,0 -33,5 -36,10 -4,6 8,10 29,10 20,0 36,-4 36,-10 z m 1011,-28 c 7,-19 7,-33 -2,-49 -20,-37 -29,-27 -29,33 0,58 13,65 31,16 z M 1760,890 c 0,-5 -9,-10 -20,-10 -11,0 -20,5 -20,10 0,6 9,10 20,10 11,0 20,-4 20,-10 z m 110,6 c 0,-2 -9,-6 -20,-9 -11,-3 -20,-1 -20,4 0,5 9,9 20,9 11,0 20,-2 20,-4 z m -320,-16 c 0,-5 -4,-10 -10,-10 -5,0 -10,5 -10,10 0,6 5,10 10,10 6,0 10,-4 10,-10 z m 500,-12 c 0,-5 -25,-8 -56,-8 -30,0 -53,3 -51,8 7,10 107,10 107,0 z m -285,-18 c -3,-5 -18,-9 -33,-9 l -27,1 30,8 c 17,4 31,8 33,9 2,0 0,-3 -3,-9 z m 125,0 c 0,-5 -13,-10 -30,-10 -16,0 -30,5 -30,10 0,6 14,10 30,10 17,0 30,-4 30,-10 z m 1080,-24 c 0,-32 -19,-46 -62,-46 -37,0 -38,1 -38,34 0,34 1,35 43,38 53,4 57,2 57,-26 z m -1430,14 c 0,-5 -5,-10 -11,-10 -5,0 -7,5 -4,10 3,6 8,10 11,10 2,0 4,-4 4,-10 z m 795,0 c 6,-4 22,-10 38,-14 32,-7 36,-32 7,-41 -27,-8 -25,-19 4,-33 18,-8 30,-7 49,3 15,7 39,15 54,16 15,2 33,6 38,10 25,16 82,19 100,4 23,-17 52,-19 57,-5 2,5 18,13 36,16 33,7 33,6 21,-14 -19,-30 5,-52 57,-55 27,-1 39,-7 39,-17 0,-12 -12,-15 -60,-13 -140,5 -162,4 -204,-2 -94,-15 -251,35 -251,81 0,9 -11,14 -34,14 -19,0 -47,5 -63,12 l -28,12 27,4 c 14,2 31,9 37,16 12,15 60,18 76,6 z m -219,-9 c 5,-5 18,-11 29,-14 11,-3 4,-5 -17,-6 -28,-1 -38,3 -38,14 0,17 11,20 26,6 z m -752,-26 c 8,-8 23,-15 33,-15 11,0 4,-7 -17,-16 -19,-9 -75,-35 -125,-59 -144,-69 -184,-85 -215,-85 -46,0 -37,25 23,58 131,75 244,131 264,131 12,1 28,-6 37,-14 z m 506,5 c 0,-5 -5,-10 -11,-10 -5,0 -7,5 -4,10 3,6 8,10 11,10 2,0 4,-4 4,-10 z m -107,-7 c -7,-2 -21,-2 -30,0 -10,3 -4,5 12,5 17,0 24,-2 18,-5 z m -253,-33 c 0,-5 -4,-10 -10,-10 -5,0 -10,5 -10,10 0,6 5,10 10,10 6,0 10,-4 10,-10 z m 45,0 c 3,-6 -4,-10 -17,-10 -18,0 -20,2 -8,10 19,12 18,12 25,0 z m 405,-11 c 0,-5 -4,-9 -10,-9 -5,0 -10,7 -10,16 0,8 5,12 10,9 6,-3 10,-10 10,-16 z m 208,14 c -15,-2 -42,-2 -60,0 -18,2 -6,4 27,4 33,0 48,-2 33,-4 z m -381,-9 c -3,-3 -12,-4 -19,-1 -8,3 -5,6 6,6 11,1 17,-2 13,-5 z m -224,-31 c -7,-2 -21,-2 -30,0 -10,3 -4,5 12,5 17,0 24,-2 18,-5 z m 1344,-9 c -3,-3 -12,-4 -19,-1 -8,3 -5,6 6,6 11,1 17,-2 13,-5 z M 1787,714 c -3,-3 -12,-4 -19,-1 -8,3 -5,6 6,6 11,1 17,-2 13,-5 z m 479,-10 c 18,-14 17,-15 -21,-10 -22,3 -51,6 -65,7 l -25,1 25,8 c 40,13 65,11 86,-6 z m -491,-24 c 3,-5 2,-10 -4,-10 -5,0 -13,5 -16,10 -3,6 -2,10 4,10 5,0 13,-4 16,-10 z m 1132,4 c -3,-3 -12,-4 -19,-1 -8,3 -5,6 6,6 11,1 17,-2 13,-5 z M 1897,674 c -3,-3 -12,-4 -19,-1 -8,3 -5,6 6,6 11,1 17,-2 13,-5 z m 363,-14 c 0,-12 -24,-12 -60,0 -21,7 -19,8 18,9 23,1 42,-3 42,-9 z m 78,-15 c -2,-24 -3,-24 -20,-5 -23,25 -23,30 2,30 15,0 19,-6 18,-25 z m 292,15 c 0,-5 -21,-9 -47,-9 l -48,2 40,7 c 22,4 43,8 48,9 4,0 7,-3 7,-9 z m 70,0 c 0,-5 -4,-10 -10,-10 -5,0 -10,5 -10,10 0,6 5,10 10,10 6,0 10,-4 10,-10 z m -970,-10 c 0,-5 -11,-10 -24,-10 -14,0 -28,5 -31,10 -4,6 7,10 24,10 17,0 31,-4 31,-10 z m -320,-10 c 0,-5 -4,-10 -10,-10 -5,0 -10,5 -10,10 0,6 5,10 10,10 6,0 10,-4 10,-10 z m -210,-20 c 0,-5 -2,-10 -4,-10 -3,0 -8,5 -11,10 -3,6 -1,10 4,10 6,0 11,-4 11,-10 z m 813,3 c -7,-2 -19,-2 -25,0 -7,3 -2,5 12,5 14,0 19,-2 13,-5 z m 306,-9 c 2,-2 -10,-4 -27,-4 -18,0 -32,5 -32,10 0,9 47,4 59,-6 z m 645,-4 c -15,-15 -134,-25 -134,-11 0,6 18,11 43,12 23,1 53,4 67,8 29,9 38,5 24,-9 z m -1164,-5 c 0,-1 -21,-2 -47,-2 -40,0 -43,1 -18,6 26,6 65,4 65,-4 z M 700,561 c 0,-46 19,-66 55,-57 15,4 34,1 48,-8 12,-8 52,-17 89,-21 37,-4 69,-12 71,-19 5,-13 -259,-15 -305,-2 -34,10 -35,23 -3,66 14,19 25,44 25,57 0,13 5,23 10,23 6,0 10,-17 10,-39 z m 705,29 c -3,-5 -10,-10 -16,-10 -5,0 -9,5 -9,10 0,6 7,10 16,10 8,0 12,-4 9,-10 z m 235,0 c 0,-5 -4,-10 -9,-10 -6,0 -13,5 -16,10 -3,6 1,10 9,10 9,0 16,-4 16,-10 z m 464,1 c 9,-14 -86,-24 -114,-11 -23,9 -22,10 12,6 21,-3 40,0 43,5 8,12 52,12 59,0 z m 82,-17 c -3,-9 -6,-20 -6,-25 0,-5 -25,-9 -55,-9 -30,0 -55,4 -55,8 0,4 16,6 35,4 30,-4 35,-1 35,17 0,16 6,21 26,21 20,0 25,-4 20,-16 z m -861,-14 c 3,-5 -1,-10 -10,-10 -9,0 -13,5 -10,10 3,6 8,10 10,10 2,0 7,-4 10,-10 z m 480,0 c 3,-5 -1,-10 -10,-10 -9,0 -13,5 -10,10 3,6 8,10 10,10 2,0 7,-4 10,-10 z m 1102,4 c -3,-3 -12,-4 -19,-1 -8,3 -5,6 6,6 11,1 17,-2 13,-5 z M 284,525 c 8,-19 19,-35 23,-36 4,0 29,-2 54,-4 26,-1 52,-5 58,-9 19,-12 12,-26 -13,-26 -28,0 -45,-19 -27,-30 16,-10 94,5 99,19 4,13 114,15 127,2 18,-18 128,-29 185,-20 34,5 86,5 135,-1 44,-5 98,-11 120,-13 22,-2 -195,-4 -482,-5 -288,-1 -523,1 -523,4 0,25 27,44 77,55 65,14 105,39 122,75 15,33 28,30 45,-11 z m 994,28 c -10,-2 -26,-2 -35,0 -10,3 -2,5 17,5 19,0 27,-2 18,-5 z m 292,-12 c 0,-11 -38,-21 -56,-14 -26,10 -14,23 21,23 19,0 35,-4 35,-9 z m 197,3 c -3,-3 -12,-4 -19,-1 -8,3 -5,6 6,6 11,1 17,-2 13,-5 z m 282,-10 c 2,-2 2,-7 -2,-10 -9,-10 -77,5 -77,17 0,9 68,3 79,-7 z m 204,9 c -7,-2 -19,-2 -25,0 -7,3 -2,5 12,5 14,0 19,-2 13,-5 z m 470,-10 c -7,-2 -21,-2 -30,0 -10,3 -4,5 12,5 17,0 24,-2 18,-5 z m 137,-10 c 2,-2 -21,-3 -53,-2 -32,1 -60,5 -62,9 -4,7 107,1 115,-7 z m 110,7 c 0,-5 -21,-9 -47,-9 -43,1 -45,2 -18,9 44,11 65,11 65,0 z M 1320,520 c 0,-5 -7,-10 -15,-10 -8,0 -15,5 -15,10 0,6 7,10 15,10 8,0 15,-4 15,-10 z m -710,-8 c 0,-18 -26,-32 -59,-32 l -36,1 35,19 c 37,20 60,25 60,12 z m 1200,-2 c -20,-13 -60,-13 -60,0 0,6 17,10 38,10 27,0 33,-3 22,-10 z m -410,-10 c 0,-5 -5,-10 -11,-10 -5,0 -7,5 -4,10 3,6 8,10 11,10 2,0 4,-4 4,-10 z m 860,1 c 0,-6 -17,-7 -37,-4 -52,8 -54,13 -5,13 23,0 42,-4 42,-9 z m -697,-7 c 4,-4 5,-10 2,-14 -6,-9 -65,0 -65,11 0,10 53,12 63,3 z m 1155,-1 c -16,-2 -40,-2 -55,0 -16,2 -3,4 27,4 30,0 43,-2 28,-4 z M 1340,480 c 0,-6 -21,-8 -57,-4 -78,9 -79,14 -5,14 35,0 62,-4 62,-10 z m 1595,-1 c -56,-11 -143,-11 -150,1 -4,6 29,10 92,9 79,-1 90,-3 58,-10 z M 1784,468 c -3,-4 -20,-8 -37,-7 -30,1 -30,1 -7,8 34,10 50,9 44,-1 z m 389,-10 c -6,-11 -93,-10 -93,0 0,5 22,8 49,8 27,-1 47,-4 44,-8 z m 92,2 c 3,-5 -3,-10 -14,-10 -11,0 -23,5 -26,10 -3,6 3,10 14,10 11,0 23,-4 26,-10 z m -855,-10 c 0,-5 -4,-10 -10,-10 -5,0 -10,5 -10,10 0,6 5,10 10,10 6,0 10,-4 10,-10 z m -297,-13 c 27,-7 49,-17 50,-22 3,-17 -39,-17 -53,0 -7,9 -29,15 -54,15 -30,0 -37,3 -26,10 19,12 25,12 83,-3 z m 395,6 c -10,-2 -28,-2 -40,0 -13,2 -5,4 17,4 22,1 32,-1 23,-4 z m 62,-3 c 0,-13 -11,-13 -30,0 -12,8 -11,10 8,10 12,0 22,-4 22,-10 z m 1220,6 c 0,-11 -19,-15 -25,-6 -3,5 1,10 9,10 9,0 16,-2 16,-4 z m -77,-13 c -7,-2 -19,-2 -25,0 -7,3 -2,5 12,5 14,0 19,-2 13,-5 z M 1307,414 c -9,-10 -87,-11 -87,-1 0,4 21,7 47,7 25,0 43,-3 40,-6 z M 2968,204 2965,29 1810,23 C 1175,19 519,16 353,16 L 50,15 48,188 c -2,94 -3,173 -3,174 0,4 1326,13 2163,16 l 762,2 z"
         id="path4"
         style="display:inline" />
      <g
         id="g8">
        <path
           d="m 1428,4999 c -46,-24 -57,-56 -32,-98 20,-35 69,-50 102,-32 31,16 47,65 33,100 -10,22 -49,54 -64,51 -1,-1 -19,-10 -39,-21 z m 75,-42 c 13,-40 -5,-77 -37,-77 -27,0 -41,14 -50,52 -14,58 68,81 87,25 z"
           id="path6" />
      </g>
      <g
         id="g12">
        <path
           d="m 2258,4628 c -23,-19 -31,-74 -13,-92 8,-8 19,-35 25,-62 14,-62 20,-71 36,-50 8,12 14,14 19,6 10,-16 -14,-40 -32,-33 -13,5 -15,2 -9,-12 4,-11 2,-22 -6,-26 -10,-6 -8,-12 7,-23 16,-13 17,-17 6,-25 -11,-7 -11,-9 0,-14 22,-7 -14,-39 -44,-39 -17,0 -27,-7 -30,-20 -4,-16 -11,-18 -29,-13 -13,4 -26,13 -30,19 -6,8 -8,7 -8,-1 0,-7 -11,-13 -25,-13 -37,0 -30,-20 8,-21 37,-1 85,-17 54,-18 -29,-1 -67,-32 -67,-54 0,-11 -8,-25 -17,-32 -15,-11 -14,-14 10,-29 24,-16 30,-16 89,-1 71,18 80,24 82,57 0,12 8,24 16,25 51,9 48,-61 -4,-82 -17,-7 -67,-19 -110,-26 l -79,-12 -24,29 c -12,16 -23,37 -23,47 0,9 -7,17 -15,17 -35,0 -8,-62 43,-99 26,-18 31,-18 82,-5 30,8 88,16 127,19 83,4 140,30 167,75 28,48 13,231 -20,244 -8,3 -14,11 -14,18 0,7 -23,25 -51,41 -55,30 -59,51 -7,36 21,-5 36,-5 42,1 6,6 8,10 6,11 -3,0 -16,2 -30,5 -77,12 -90,16 -90,24 0,10 55,2 83,-12 11,-6 17,-5 17,2 0,6 -13,13 -29,16 -27,6 -28,9 -24,44 9,67 -44,114 -89,78 z m 62,-34 c 0,-8 -4,-12 -10,-9 -5,3 -10,13 -10,21 0,8 5,12 10,9 6,-3 10,-13 10,-21 z m -34,-24 c 8,-10 10,-21 4,-30 -8,-13 -12,-12 -24,5 -17,22 -20,47 -9,59 4,4 9,1 12,-6 2,-7 10,-20 17,-28 z m 122,-203 c 4,-22 -16,-22 -40,0 -26,23 -22,32 10,24 15,-4 28,-15 30,-24 z m -54,-70 c 14,-47 15,-65 6,-93 -11,-31 -30,-47 -30,-24 0,6 -11,10 -25,10 -14,0 -25,5 -25,11 0,7 -10,9 -25,7 -14,-3 -25,-2 -25,1 0,13 24,31 40,31 9,0 27,11 40,25 19,21 22,31 16,67 -10,59 8,38 28,-35 z m 60,1 c -5,-8 0,-9 15,-5 28,7 23,-13 -6,-24 -17,-6 -20,-4 -20,17 0,13 4,24 9,24 5,0 6,-5 2,-12 z m 20,-53 c -10,-8 -23,-14 -29,-14 -5,0 -1,6 9,14 11,8 24,15 30,15 5,0 1,-7 -10,-15 z m -7,-35 c -27,-22 -37,-25 -37,-12 0,5 10,14 23,20 35,17 42,14 14,-8 z m 18,-40 c -3,-5 -20,-19 -38,-30 -32,-22 -32,-22 3,9 37,32 45,37 35,21 z m -45,-4 c 0,-3 -4,-8 -10,-11 -5,-3 -10,-1 -10,4 0,6 5,11 10,11 6,0 10,-2 10,-4 z m -251,-70 c 9,-11 9,-16 -1,-22 -7,-4 -10,-4 -6,1 4,4 3,14 -3,22 -6,7 -9,13 -6,13 2,0 10,-6 16,-14 z m 201,-16 c 0,-5 -4,-10 -10,-10 -5,0 -10,5 -10,10 0,6 5,10 10,10 6,0 10,-4 10,-10 z"
           id="path10" />
      </g>
      <g
         id="g16">
        <path
           d="m 1479,4263 c -11,-30 -5,-39 32,-48 47,-12 50,42 3,64 -22,10 -26,8 -35,-16 z"
           id="path14" />
      </g>
      <g
         id="g20">
        <path
           d="m 2173,4265 c -3,-9 -3,-18 0,-22 10,-10 37,6 37,22 0,20 -29,20 -37,0 z"
           id="path18" />
      </g>
      <g
         id="g24">
        <path
           d="m 2639,3921 c -20,-16 -22,-22 -12,-42 l 12,-24 v 23 c 1,23 25,30 35,10 4,-7 4,-3 2,10 -3,14 1,22 10,22 8,0 14,5 14,10 0,17 -36,11 -61,-9 z"
           id="path22" />
      </g>
      <g
         id="g28">
        <path
           d="m 1310,3780 c -9,-16 -8,-20 5,-20 8,0 15,2 15,4 0,2 3,11 6,20 9,23 -13,20 -26,-4 z"
           id="path26" />
      </g>
      <g
         id="g32">
        <path
           d="m 1337,3762 c -19,-21 -22,-32 -7,-32 10,0 34,39 27,46 -2,2 -11,-4 -20,-14 z"
           id="path30" />
      </g>
      <g
         id="g36">
        <path
           d="m 1391,3694 c -18,-21 -6,-30 14,-11 8,9 15,18 15,21 0,11 -15,5 -29,-10 z"
           id="path34" />
      </g>
      <g
         id="g40">
        <path
           d="m 2396,2991 c -10,-11 -25,-16 -41,-13 -14,2 -31,-2 -40,-12 -9,-9 -14,-17 -11,-17 3,-1 10,-2 15,-3 5,0 13,-4 17,-8 4,-5 18,-8 31,-8 15,0 23,-6 23,-17 0,-11 3,-14 8,-7 7,10 87,61 87,56 0,-2 8,0 18,4 24,9 36,-5 14,-17 -9,-6 -17,-17 -17,-25 0,-8 -11,-19 -25,-24 -27,-10 -34,-30 -11,-30 8,0 16,-5 18,-11 3,-8 21,-4 56,12 56,26 63,34 33,42 -12,3 -21,15 -23,33 -3,28 -4,29 -54,26 -45,-3 -52,-1 -57,17 -6,26 -19,27 -41,2 z"
           id="path38" />
      </g>
      <g
         id="g44">
        <path
           d="m 2320,2910 c 0,-5 5,-10 11,-10 5,0 7,5 4,10 -3,6 -8,10 -11,10 -2,0 -4,-4 -4,-10 z"
           id="path42" />
      </g>
      <g
         id="g48">
        <path
           d="m 2525,2829 c -4,-6 -5,-12 -2,-15 2,-3 7,2 10,11 7,17 1,20 -8,4 z"
           id="path46" />
      </g>
      <g
         id="g52">
        <path
           d="m 2540,3560 c 0,-5 12,-10 28,-10 21,0 24,2 12,10 -20,13 -40,13 -40,0 z"
           id="path50" />
      </g>
      <g
         id="g56">
        <path
           d="m 2601,3557 c 2,-1 13,-9 24,-17 19,-14 19,-14 6,3 -7,9 -18,17 -24,17 -6,0 -8,-1 -6,-3 z"
           id="path54" />
      </g>
      <g
         id="g60">
        <path
           d="m 860,3580 c 0,-5 5,-10 10,-10 6,0 10,5 10,10 0,6 -4,10 -10,10 -5,0 -10,-4 -10,-10 z"
           id="path58" />
      </g>
      <g
         id="g64">
        <path
           d="m 880,3535 c 0,-8 2,-15 4,-15 2,0 11,-3 20,-6 23,-9 20,13 -4,26 -16,9 -20,8 -20,-5 z"
           id="path62" />
      </g>
      <g
         id="g68">
        <path
           d="m 1453,3492 c -8,-5 -8,-11 1,-24 15,-20 26,-14 26,14 0,19 -8,22 -27,10 z"
           id="path66" />
      </g>
      <g
         id="g72">
        <path
           d="m 430,3070 c -9,-6 -10,-10 -3,-10 6,0 15,5 18,10 8,12 4,12 -15,0 z"
           id="path70" />
      </g>
      <g
         id="g76">
        <path
           d="m 720,1681 c 0,-41 -33,-77 -102,-112 -56,-28 -64,-30 -104,-20 -51,13 -67,14 -60,3 3,-5 30,-15 60,-22 48,-11 59,-11 73,1 10,8 34,22 54,32 57,29 89,64 89,97 0,17 3,30 7,30 23,0 115,-55 141,-84 16,-19 44,-42 61,-50 71,-37 210,-55 304,-40 74,13 34,21 -76,16 -101,-4 -117,-2 -157,17 -24,11 -50,21 -57,21 -8,0 -35,19 -61,43 -39,36 -143,97 -165,97 -4,0 -7,-13 -7,-29 z"
           id="path74" />
      </g>
      <g
         id="g80">
        <path
           d="m 1966,3363 c -3,-4 -6,-15 -6,-25 0,-19 25,-25 35,-8 7,12 -20,42 -29,33 z"
           id="path78" />
      </g>
      <g
         id="g84">
        <path
           d="m 1089,3200 c -10,-10 -13,-23 -9,-31 7,-10 14,-9 35,5 21,14 24,20 14,32 -14,18 -20,17 -40,-6 z"
           id="path82" />
      </g>
      <g
         id="g88">
        <path
           d="m 1346,2897 c 3,-10 9,-15 12,-12 3,3 0,11 -7,18 -10,9 -11,8 -5,-6 z"
           id="path86" />
      </g>
      <g
         id="g92">
        <path
           d="m 1361,2776 c -15,-18 5,-34 22,-17 8,8 8,11 -2,11 -7,0 -9,5 -6,10 9,15 -1,12 -14,-4 z"
           id="path90" />
      </g>
      <g
         id="g96">
        <path
           d="m 995,2681 c -3,-5 -1,-12 5,-16 5,-3 10,1 10,9 0,18 -6,21 -15,7 z"
           id="path94" />
      </g>
      <g
         id="g100">
        <path
           d="m 1470,2360 c 0,-14 7,-20 22,-20 20,0 21,1 3,20 -10,11 -20,20 -22,20 -1,0 -3,-9 -3,-20 z"
           id="path98" />
      </g>
      <g
         id="g104">
        <path
           d="m 1707,1788 c -8,-13 -23,-41 -33,-63 -11,-22 -30,-45 -44,-52 -18,-9 -20,-13 -8,-13 22,0 50,30 80,86 12,24 26,44 30,44 3,0 11,-13 17,-30 5,-16 15,-30 21,-30 6,0 8,5 5,10 -3,6 -1,10 6,10 7,0 3,9 -9,20 -12,12 -22,25 -22,30 0,19 -30,10 -43,-12 z"
           id="path102" />
      </g>
      <g
         id="g108">
        <path
           d="m 2482,1783 c 5,-25 28,-28 28,-4 0,12 -6,21 -16,21 -9,0 -14,-7 -12,-17 z"
           id="path106" />
      </g>
      <g
         id="g112">
        <path
           d="m 2480,1688 c -12,-22 -12,-22 6,-6 10,10 15,20 12,24 -4,3 -12,-5 -18,-18 z"
           id="path110" />
      </g>
      <g
         id="g116">
        <path
           d="m 1561,1649 c -13,-5 -21,-12 -18,-15 3,-3 18,1 34,10 31,17 21,20 -16,5 z"
           id="path114" />
      </g>
      <g
         id="g120">
        <path
           d="m 2505,1557 c -18,-28 -12,-108 7,-89 6,6 17,8 24,5 20,-8 17,3 -8,26 -19,19 -20,23 -8,46 18,34 6,43 -15,12 z"
           id="path118" />
      </g>
      <g
         id="g124">
        <path
           d="m 2470,1461 c 0,-10 -11,-30 -26,-46 -31,-34 -22,-48 10,-14 26,26 43,79 26,79 -5,0 -10,-8 -10,-19 z"
           id="path122" />
      </g>
      <g
         id="g128">
        <path
           d="m 2400,1430 c 0,-5 4,-10 9,-10 6,0 13,5 16,10 3,6 -1,10 -9,10 -9,0 -16,-4 -16,-10 z"
           id="path126" />
      </g>
      <g
         id="g132">
        <path
           d="m 2496,1414 c -9,-22 3,-32 14,-14 12,19 12,30 1,30 -5,0 -12,-7 -15,-16 z"
           id="path130" />
      </g>
      <g
         id="g136">
        <path
           d="m 2240,1380 c 0,-13 11,-13 30,0 12,8 11,10 -7,10 -13,0 -23,-4 -23,-10 z"
           id="path134" />
      </g>
      <g
         id="g140">
        <path
           d="m 2520,1340 c 0,-5 7,-10 15,-10 8,0 15,5 15,10 0,6 -7,10 -15,10 -8,0 -15,-4 -15,-10 z"
           id="path138" />
      </g>
      <g
         id="g144">
        <path
           d="m 2815,1330 c -3,-6 1,-7 9,-4 18,7 21,14 7,14 -6,0 -13,-4 -16,-10 z"
           id="path142" />
      </g>
      <g
         id="g148">
        <path
           d="m 1416,1451 c -4,-5 -2,-21 4,-35 13,-34 40,-24 40,15 0,22 -5,29 -19,29 -11,0 -22,-4 -25,-9 z"
           id="path146" />
      </g>
      <g
         id="g152">
        <path
           d="m 1436,1371 c -9,-14 5,-42 18,-38 15,5 14,39 -1,44 -6,2 -14,0 -17,-6 z"
           id="path150" />
      </g>
      <g
         id="g156">
        <path
           d="m 653,1355 c -17,-13 -16,-14 9,-15 30,0 46,15 24,23 -8,3 -22,-1 -33,-8 z"
           id="path154" />
      </g>
      <g
         id="g160">
        <path
           d="m 611,1277 c -6,-8 -8,-17 -5,-20 7,-7 44,14 44,25 0,13 -27,9 -39,-5 z"
           id="path158" />
      </g>
      <g
         id="g164">
        <path
           d="m 1955,294 c -52,-27 -65,-44 -65,-86 0,-80 45,-113 148,-106 55,4 68,8 88,32 13,15 24,37 24,48 0,36 -39,104 -66,116 -35,17 -94,15 -129,-4 z m 113,-13 c 23,-14 32,-81 17,-117 -23,-55 -64,-63 -122,-24 -16,10 -23,25 -23,48 0,36 23,87 42,95 21,9 72,7 86,-2 z"
           id="path162" />
      </g>
      <g
         id="g168">
        <path
           d="m 2190,302 c 0,-4 4,-12 10,-18 15,-15 25,-150 11,-158 -29,-19 -6,-27 71,-24 79,3 82,4 99,33 22,37 23,45 6,45 -8,0 -20,-11 -27,-25 -12,-22 -20,-25 -49,-23 l -36,3 v 88 87 h -42 c -24,0 -43,-4 -43,-8 z"
           id="path166" />
      </g>
      <g
         id="g172">
        <path
           d="m 843,287 c -2,-4 3,-10 11,-13 13,-5 16,-23 16,-89 0,-58 -4,-85 -12,-88 -26,-9 2,-18 71,-23 69,-6 71,-5 83,20 15,35 -4,59 -21,27 -9,-15 -21,-21 -46,-21 -32,0 -35,3 -35,29 0,35 15,48 35,31 21,-17 36,-3 29,28 -9,37 -14,40 -30,18 -19,-27 -36,-8 -32,35 2,28 7,35 30,37 19,2 30,-3 38,-18 6,-11 15,-18 21,-15 13,9 11,45 -3,46 -53,5 -151,3 -155,-4 z"
           id="path170" />
      </g>
      <g
         id="g176">
        <path
           d="m 1378,293 c -35,-4 -50,-17 -29,-25 6,-1 13,-38 17,-80 6,-70 5,-78 -10,-78 -10,0 -16,-5 -14,-12 5,-14 108,-12 123,3 9,9 8,10 -25,13 -9,0 -16,13 -18,33 -3,28 0,32 25,35 22,2 27,7 25,23 -5,29 -12,32 -26,13 -16,-22 -26,-13 -26,23 0,22 6,30 24,35 46,11 70,1 80,-33 5,-18 12,-33 16,-33 14,0 20,74 7,82 -12,8 -99,8 -169,1 z"
           id="path174" />
      </g>
      <g
         id="g180">
        <path
           d="m 1649,276 c -102,-71 -62,-175 69,-179 83,-3 116,21 120,86 3,38 -1,51 -26,78 -23,25 -38,32 -78,36 -40,4 -55,0 -85,-21 z m 127,-31 c 19,-29 14,-90 -10,-113 -21,-21 -72,-19 -96,3 -24,22 -27,81 -4,113 23,33 88,31 110,-3 z"
           id="path178" />
      </g>
      <g
         id="g184">
        <path
           d="m 292,264 c 4,-34 24,-42 31,-14 4,16 12,21 29,18 22,-3 23,-6 21,-90 l -2,-88 h 28 29 l -5,63 c -3,34 0,74 6,90 13,32 45,36 61,7 15,-29 32,-25 28,8 l -3,27 -113,3 -113,3 z"
           id="path182" />
      </g>
      <g
         id="g188">
        <path
           d="m 585,281 c -25,-5 -27,-8 -12,-14 17,-6 19,-17 15,-97 l -3,-90 h 32 c 32,0 57,20 35,28 -7,2 -12,21 -12,42 v 37 l 50,2 50,1 V 135 80 h 40 c 22,0 40,5 40,10 0,6 -7,10 -16,10 -13,0 -15,14 -13,93 l 2,92 -38,3 c -32,3 -37,1 -31,-13 13,-36 18,-65 10,-66 -5,-1 -29,-3 -53,-4 l -43,-4 5,45 c 5,48 4,49 -58,35 z"
           id="path186" />
      </g>
      <g
         id="g192">
        <path
           d="m 2544,135 c -4,-10 -1,-21 7,-26 20,-12 34,-5 34,17 0,24 -33,31 -41,9 z"
           id="path190" />
      </g>
    </g>
  </g>
</svg>
